<svg width="1200" height="600" viewBox="0 0 1200 600" fill="none" xmlns="http://www.w3.org/2000/svg">
<rect width="1200" height="600" fill="white"/>
<path d="M101.331 0L63.1623 131.209L0 105V0H101.331Z" fill="#E8E3DD"/>
<path d="M515.39 0L476.2 149L613.97 96.6119L618.962 0H515.39Z" fill="#E8E3DD"/>
<path d="M640.229 100.721L538.813 139.664L581.106 169.651L640.229 100.721Z" fill="#E8E3DD"/>
<path d="M629.13 0L622.969 95L722.881 62.4088L730.789 0H629.13Z" fill="#E8E3DD"/>
<path d="M740.574 70L687.854 86.6782L723.495 118.241L764.726 122L740.574 70Z" fill="#E8E3DD"/>
<path d="M887.612 107.349L778.513 133.709L778.513 255.814L865.784 213.555L887.612 107.349Z" fill="#E8E3DD"/>
<path d="M867.638 226.651L778.515 265.571L780.82 346.616L842.04 343.302L867.638 226.651Z" fill="#E8E3DD"/>
<path d="M685.672 526.233L654.054 551.472L720.796 600H818.633L778.7 556.5L747.787 577.274L685.672 526.233Z" fill="#E8E3DD"/>
<path d="M909.479 518L881.525 515L786.684 554L827.615 600H876.534L909.479 518Z" fill="#E8E3DD"/>
<path d="M876.859 509.495L842.749 456.939L783.126 408.256L783.126 547.442L876.859 509.495Z" fill="#E8E3DD"/>
<path d="M202.297 374.781L153.248 337.5V364.5L185.327 408.256L202.297 374.781Z" fill="#E8E3DD"/>
<path d="M1125.49 180.256L1171.89 132.535L1146.42 132.535L1087.38 165.198L1125.49 180.256Z" fill="#E8E3DD"/>
<path d="M256.492 326.601L153.74 258V321.032L218.008 371.981L195.711 417.994L211.336 441L269.547 413.583L256.492 326.601Z" fill="#E8E3DD"/>
<path d="M1189.9 230.127L1200 216.176L1200 133L1186.8 133L1128.39 192.38L1075.63 171.779L1049.25 186.215L1080.69 240L1189.9 230.127Z" fill="#E8E3DD"/>
<path d="M338.051 455.977L371.537 436.846L392.828 421.532L269.899 328.721L282.246 410.449L338.051 455.977Z" fill="#E8E3DD"/>
<path d="M1032.06 299.434L1054 328.682L1071.57 347.279L1178.03 239.907L1084.28 250.691L1032.06 299.434Z" fill="#E8E3DD"/>
<path d="M1046.76 310L1035.78 296L1032.28 299.378L1042.26 313L1046.76 310Z" fill="#C0BBB5"/>
<path d="M1053.25 304.5L1042.26 290.5L1038.77 293.878L1048.75 307.5L1053.25 304.5Z" fill="#C0BBB5"/>
<path d="M1058.74 298.5L1047.76 284.5L1044.26 287.878L1054.24 301.5L1058.74 298.5Z" fill="#C0BBB5"/>
<path d="M1064.23 293.878L1053.25 279.878L1049.75 283.256L1059.74 296.878L1064.23 293.878Z" fill="#C0BBB5"/>
<path d="M489.641 496.357L401.2 428.139L378.139 445.053L346.736 463.394L430.083 532.86L489.641 496.357Z" fill="#E8E3DD"/>
<path d="M986.249 433.442L1064.33 355.506L1044.97 335.185L1023.98 307.512L944.47 380.959L986.249 433.442Z" fill="#E8E3DD"/>
<path d="M418.694 340.331L339.496 336.675L314.461 346.397L404.054 413.558L435.853 390.251L418.694 340.331Z" fill="#E8E3DD"/>
<path d="M1163.19 370.731L1167.28 301.545L1156.4 279.675L1081.23 357.942L1107.32 385.721L1163.19 370.731Z" fill="#E8E3DD"/>
<path d="M447.568 394.656L411.272 420.665L499.168 485.14L524.981 479.64L474.461 374.993L439.3 371.14L447.568 394.656Z" fill="#E8E3DD"/>
<path d="M1103.47 396.246L1073.67 364.512L993.351 444.5L1006.1 463.93L1125.99 419.759L1130.41 389.017L1103.47 396.246Z" fill="#E8E3DD"/>
<path d="M1110.43 529.546L1124.26 429.465L1009.02 472.546L1005.17 572.628L1038.21 577.267L1078.93 514.302L1110.43 529.546Z" fill="#BDE051"/>
<path d="M578.754 416.872L595.657 388.372L492.704 375.116L538.802 475.198L644.06 478.512L651.743 453.988L578.754 416.872Z" fill="#BDE051"/>
<path d="M469.668 364.512L459.732 343.375L429.716 341.977L436.131 360.732L469.668 364.512Z" fill="#E8E3DD"/>
<path d="M1136.54 416.209L1171.12 404.279L1164.97 393.675L1162.67 380.419L1140.93 386.166L1136.54 416.209Z" fill="#E8E3DD"/>
<path d="M325.216 330.624L293.842 271.507L252.823 269.008L241.055 243.884L156.189 249.318L305.348 336.674L325.216 330.624Z" fill="#E8E3DD"/>
<path d="M288.35 262.442L277.394 241.232L251.472 242.938L259.548 260.649L288.35 262.442Z" fill="#E8E3DD"/>
<path d="M408.223 230.875L437.399 225.53L328.883 139.163L286.812 232.317L302.611 263.038L379.9 267.744L408.223 230.875Z" fill="#E8E3DD"/>
<path d="M269.144 134.523L218.436 100.721L184.631 126.57L203.838 137.837L247.632 233.942L275.291 231.291L321.389 131.872L311.401 121.267L269.144 134.523Z" fill="#BDE051"/>
<path d="M509.611 283.343L488.508 266.419L417.415 306.851L425.749 330.991H451.744L509.611 283.343Z" fill="#E8E3DD"/>
<path d="M1200 415L1200 236L1165.06 273.5L1177.24 301.5L1171.41 368L1171.41 390.765L1177.24 403L1200 415Z" fill="#E8E3DD"/>
<path d="M384.921 277.971L306.786 273.174L335.403 329.255L414.229 331.372L404.565 303.38L480.422 260.219L446.849 233.279L414.408 239.284L384.921 277.971Z" fill="#E8E3DD"/>
<path d="M678.604 273.365L650.134 321.329L690.681 363.186L769.298 349.92L765.217 227.976H644.546L629.467 255.131L678.604 273.365Z" fill="#E8E3DD"/>
<path d="M621.463 262L609.483 276L642.582 314.14L663.274 279.279L621.463 262Z" fill="#E8E3DD"/>
<path d="M594.553 280.885L528.618 283.5L622.668 347.279L637.152 323.494L594.553 280.885Z" fill="#E8E3DD"/>
<path d="M629.467 353.632L673.874 388L680.175 366.998L643.449 331.372L629.467 353.632Z" fill="#E8E3DD"/>
<path d="M1106.16 587.994L1129.62 600L1200 600L1200 497L1106.16 587.994Z" fill="#E8E3DD"/>
<path d="M382.08 507.235L334.95 469.233L306.786 485.973L322.596 524.63L356.034 532.861L382.08 507.235Z" fill="#E8E3DD"/>
<path d="M974.182 339.326L1018.23 297.009L998.828 271.721L954.017 285.917L944.476 315.94L974.182 339.326Z" fill="#E8E3DD"/>
<path d="M309.697 520.93L293.498 482.326L326.763 463.048L275.634 422.837L217.664 450.617L251.604 506.975L309.697 520.93Z" fill="#E8E3DD"/>
<path d="M958.297 274.024L1002.44 259.853L1024.49 288.954L1070.47 244.225L1038.7 193.512L974.255 223.203L958.297 274.024Z" fill="#E8E3DD"/>
<path d="M611.474 359L516.913 289L469.211 329.67L487.68 365.5L599.546 379L611.474 359Z" fill="#E8E3DD"/>
<path d="M1141.48 543L1200 485.279L1200 425.52L1178.87 411L1135.8 425.52L1120.13 533.544L1141.48 543Z" fill="#E8E3DD"/>
<path d="M654.238 442.721L670.964 401.21L623.698 367.163L597.207 411.837L654.238 442.721Z" fill="#E8E3DD"/>
<path d="M1047.42 577.782L1096.67 585.5L1133.47 550.887L1082.6 527.558L1047.42 577.782Z" fill="#E8E3DD"/>
<path d="M661.168 458.628L652.522 484.697L660.014 491.767L677.108 467.618L661.168 458.628Z" fill="#E8E3DD"/>
<path d="M1096.18 592L995.347 579L967.893 600L1115.15 600L1096.18 592Z" fill="#E8E3DD"/>
<path d="M690.895 373.791L664.807 449.509L693.449 465.088L668.143 499.542L748.552 567.988L776.979 548.104L769.296 361.198L690.895 373.791Z" fill="#E8E3DD"/>
<path d="M770.722 552L760.24 531L738.776 532.5L728.405 550.378L748.759 568L770.722 552Z" fill="#C0BBB5"/>
<path d="M640.957 488.878L539.976 485.139L524.981 492.629L591.359 506.171L628.858 534.186L654.056 499.813L640.957 488.878Z" fill="#E8E3DD"/>
<path d="M995.463 566.36L1000.34 471.5L991.354 461L975.418 522.556L942.943 555.675L982.788 577.93L995.463 566.36Z" fill="#E8E3DD"/>
<path d="M638.689 540.705L644.925 546.5L680.178 519.551L663.593 505.023L638.689 540.705Z" fill="#E8E3DD"/>
<path d="M910.526 547L885.531 600L957.046 600L973.385 585.864L910.526 547Z" fill="#E8E3DD"/>
<path d="M623.316 541.646L591.559 516.954L586.438 555.385L610.179 559.372L623.316 541.646Z" fill="#E8E3DD"/>
<path d="M935.189 550.093L962.918 522.697L919.761 518.279L915.283 538.76L935.189 550.093Z" fill="#E8E3DD"/>
<path d="M575.713 552.881L583.373 512.828L510.118 497.07L439.27 540L485.692 579L534.618 545.965L575.713 552.881Z" fill="#E8E3DD"/>
<path d="M922.304 508.876L967.984 515.628L985.957 451.059L940.115 391.023L892.224 434.105L930.192 472.654L922.304 508.876Z" fill="#E8E3DD"/>
<path d="M537.272 556.721L496.671 585.5L481.696 600H706.322L630.448 546.5L611.48 568.5L537.272 556.721Z" fill="#E8E3DD"/>
<path d="M922.969 474.11L880.832 433.442L853.821 456.527L885.027 507.529L914.361 511.651L922.969 474.11Z" fill="#E8E3DD"/>
<path d="M843.252 399.152L858.445 381.789L836.138 356.558L783.893 356.558L783.893 395L846.894 450.674L872.248 428.378L843.252 399.152Z" fill="#E8E3DD"/>
<path d="M477.353 589.914L466.889 580.582L441.271 600H469.724L477.353 589.914Z" fill="#E8E3DD"/>
<path d="M880.366 422.837L890.692 413.435L866.781 389.698L858.424 399.694L880.366 422.837Z" fill="#E8E3DD"/>
<path d="M400.138 575.34L431.717 596.488L459.734 571.645L391.348 515L366.711 539.411L370.391 558.421L367.924 571.645L400.138 575.34Z" fill="#E8E3DD"/>
<path d="M896.345 354.906L872.252 382.149L898.484 406.93L959.839 344.335L937.276 326.07L915.619 329.245L900.555 327.116L896.345 354.906Z" fill="#E8E3DD"/>
<path d="M395.933 585.309L366.563 581.907L362.1 600H424.791L395.933 585.309Z" fill="#E8E3DD"/>
<path d="M885.216 350.684L889.16 324.714L861.165 320.767L849.208 361.52L863.606 375.116L885.216 350.684Z" fill="#E8E3DD"/>
<path d="M272.043 532.861L254.534 553.133L301.317 564.186L329.828 567.326L311.477 532.861L264.555 522L272.043 532.861Z" fill="#E8E3DD"/>
<path d="M961.9 233L944.478 240.5L921.881 222.802L909.562 263.983L906.063 289.081L941.435 277.752L961.9 233Z" fill="#E8E3DD"/>
<path d="M298.834 574.416L298.447 574.323L247.243 562.023L226.616 600H351.338L357.897 579L298.834 574.416Z" fill="#E8E3DD"/>
<path d="M898.267 265.643L898.372 265.304L912.198 220.594L887.54 201.465L863.027 305.845L891.637 311.489L898.267 265.643Z" fill="#E8E3DD"/>
<path d="M359.903 557L356.409 543.5L324.462 536L339.936 566L356.409 569L359.903 557Z" fill="#E8E3DD"/>
<path d="M904.494 311L919.969 313.022L931.949 313.022L940.934 288.5L906.245 300.216L904.494 311Z" fill="#E8E3DD"/>
<path d="M167.979 532.829L205.363 542.139L158.016 461.015L177.475 422.501L143.421 373.791L72.875 418.5L86.8517 469.5L128.045 458.558L167.979 532.829Z" fill="#E8E3DD"/>
<path d="M945.878 151.232L935.255 184.233L1027.81 142.438L1071.75 159.615L1127.33 129.554L1065.34 67.5815L1015.39 77.9245L1030.62 115.982L945.878 151.232Z" fill="#E8E3DD"/>
<path d="M240.806 548.767L257.605 531.92L186.045 432.116L171.555 460.085L221.894 544.179L240.806 548.767Z" fill="#E8E3DD"/>
<path d="M927.577 213.485L946.884 227.977L1061.26 166.244L1029.21 153.744L932.835 197.17L927.577 213.485Z" fill="#E8E3DD"/>
<path d="M161.2 539.984L123.425 470.558L88.5918 481.223L122.778 600H209.657L231.496 557.269L161.2 539.984Z" fill="#E8E3DD"/>
<path d="M937.17 144.821L1016.7 111.533L1004.48 80.8374L902.064 102.165L887.626 184.258L917.369 206.768L937.17 144.821Z" fill="#E8E3DD"/>
<path d="M33.4442 485L75.8735 472.932L60.8985 420H0V481.275L33.4442 485Z" fill="#E8E3DD"/>
<path d="M998.332 29.633L1010.76 68L1061.58 52.9532L1070.21 0L1001.39 -2.64129e-06L998.332 29.633Z" fill="#E8E3DD"/>
<path d="M33.521 495.622L0 492.753V600H113.311L78.3693 484.5L33.521 495.622Z" fill="#E8E3DD"/>
<path d="M988.067 29.4231L991.34 -3.8319e-07L897.497 -2.02674e-07L937.703 85L1001.32 67.4702L988.067 29.4231Z" fill="#E8E3DD"/>
<path d="M138.269 359.5V327.589L118.303 313.5L64.3926 356L0 327.589V409.183L59.5133 412L138.269 359.5Z" fill="#E8E3DD"/>
<path d="M1141.98 123L1200 123L1200 0L1084.38 -9.77793e-08L1075.21 55.3848L1141.98 123Z" fill="#E8E3DD"/>
<path d="M137.402 315.233V247.416L132.93 241L92.8408 280.588L137.402 315.233Z" fill="#E8E3DD"/>
<path d="M60.8305 344.628L109.901 305.292L75.2985 279.414L127 230.292L62.9713 141.92L0 119V315L60.8305 344.628Z" fill="#E8E3DD"/>
<path d="M164.613 193.511L172.394 186.147L209.972 177.156L198.618 146.035L176.52 133.86L136.215 165.681L164.613 193.511Z" fill="#E8E3DD"/>
<path d="M139.762 101.094L175.839 122L211.642 92.2756V0H170.349L139.762 101.094Z" fill="#E8E3DD"/>
<path d="M146.311 241.233L236.101 233.085L213.953 186.884L178.538 195.16L139.295 231.497L146.311 241.233Z" fill="#E8E3DD"/>
<path d="M157.226 200.37L121.029 164.928L166.944 128.707L126.501 106.438L161.723 0H113.303L73.2109 136.799L133.669 222.674L157.226 200.37Z" fill="#E8E3DD"/>
<path d="M222.629 91.609L271.393 126L305.08 116.167L253.93 63.3481L313.477 0H222.629V91.609Z" fill="#E8E3DD"/>
<path d="M324.462 118.882L396.345 175L436.276 161.018L393.627 101L324.462 118.882Z" fill="#E8E3DD"/>
<path d="M359.406 99.3872L400.627 87.5597L445.733 158L465.921 152.456L501.17 0H411.514L359.406 99.3872Z" fill="#E8E3DD"/>
<path d="M348.419 102.5L398.336 0H328.62L269.551 64.4142L316.972 110.5L348.419 102.5Z" fill="#E8E3DD"/>
<path d="M474.272 218.646L441.666 170.976L406.661 181.941L455.24 221.5L474.272 218.646Z" fill="#E8E3DD"/>
<path d="M509.214 221.349L463.731 230.221L493.182 253L532.668 230.221L509.214 221.349Z" fill="#E8E3DD"/>
<path d="M581.057 238.092L614.456 250.512L634.075 220.236L528.258 143.14L506.537 150.101L581.057 238.092Z" fill="#E8E3DD"/>
<path d="M713.987 127.895L672.499 91.4417L652.523 98.0696L587.985 174.953L647.145 218.697L766.231 220.686L764.695 133.86L713.987 127.895Z" fill="#BDE051"/>
<path d="M722.208 153.372C720.727 150.726 718.433 148.665 716.789 146.149C716.789 146.149 707.27 133.617 685.921 135.126C675.865 135.84 667.794 135.467 660.081 142.431C654.06 147.869 655.492 158.534 658.551 165.352C660.732 170.19 663.628 174.362 665.971 178.94C668.103 183.112 670.072 187.641 672.464 191.796C676.841 199.377 684.782 204.539 693.683 203.955C702.665 203.371 714.218 198.371 719.491 190.254C724.486 182.56 724.795 174.2 724.795 165.174C724.812 160.06 724.665 157.723 722.208 153.372Z" fill="#C2E9F2"/>
<path d="M741.992 0L732.773 57.5217L745.834 54.0978L779.637 126L929.446 86.2826L884.887 0H741.992Z" fill="#BDE051"/>
<path d="M501.662 261.199L522.627 275.5L596.504 270.5L609.982 261.199L544.932 235L501.662 261.199Z" fill="#E8E3DD"/>
<path d="M452.755 167.522L485.708 216.339L510.662 211.754L561.854 230.628L496.154 153.744L452.755 167.522Z" fill="#E8E3DD"/>
<path d="M939.934 457.751C942.082 456.677 943.424 454.395 943.424 451.979V451.443C943.424 447.953 940.605 445 936.98 445C934.161 445 931.744 446.745 930.939 449.429C930.267 451.443 929.999 453.322 927.717 453.322H904.223C901.807 453.322 901.538 451.174 901.001 449.429C900.195 446.879 897.645 445 894.96 445C891.469 445 888.516 447.819 888.516 451.443V452.114C888.516 454.53 889.858 456.811 892.006 457.885C892.812 458.288 892.812 459.496 892.006 459.898C889.858 460.972 888.516 463.254 888.516 465.67V466.341C888.516 469.831 891.335 472.784 894.96 472.784C897.779 472.784 900.195 471.039 901.001 468.354C901.672 466.341 901.941 464.462 904.223 464.462H927.717C930.133 464.462 930.402 466.609 930.939 468.354C931.744 470.904 934.295 472.784 936.98 472.784C940.47 472.784 943.424 469.965 943.424 466.341V465.67C943.424 463.254 942.082 460.972 939.934 459.898C939.128 459.362 939.128 458.154 939.934 457.751Z" fill="#00A5BB"/>
<path d="M530.621 151.751C532.769 150.677 534.112 148.395 534.112 145.979V145.443C534.112 141.953 531.292 139 527.667 139C524.848 139 522.432 140.745 521.626 143.429C520.955 145.443 520.687 147.322 518.404 147.322H494.911C492.494 147.322 492.225 145.174 491.688 143.429C490.883 140.879 488.332 139 485.647 139C482.157 139 479.203 141.819 479.203 145.443V146.114C479.203 148.53 480.546 150.811 482.694 151.885C483.499 152.288 483.499 153.496 482.694 153.898C480.546 154.972 479.203 157.254 479.203 159.67V160.341C479.203 163.831 482.022 166.784 485.647 166.784C488.466 166.784 490.883 165.039 491.688 162.354C492.36 160.341 492.628 158.462 494.911 158.462H518.404C520.821 158.462 521.089 160.609 521.626 162.354C522.432 164.904 524.982 166.784 527.667 166.784C531.158 166.784 534.112 163.965 534.112 160.341V159.67C534.112 157.254 532.769 154.972 530.621 153.898C529.816 153.362 529.816 152.154 530.621 151.751Z" fill="#00A5BB"/>
<path d="M719.306 450.751C721.454 449.677 722.796 447.395 722.796 444.979V444.443C722.796 440.953 719.977 438 716.352 438C713.533 438 711.116 439.745 710.311 442.429C709.639 444.443 709.371 446.322 707.089 446.322H683.595C681.179 446.322 680.91 444.174 680.373 442.429C679.568 439.879 677.017 438 674.332 438C670.841 438 667.888 440.819 667.888 444.443V445.114C667.888 447.53 669.23 449.811 671.378 450.885C672.184 451.288 672.184 452.496 671.378 452.898C669.23 453.972 667.888 456.254 667.888 458.67V459.341C667.888 462.831 670.707 465.783 674.332 465.783C677.151 465.783 679.568 464.039 680.373 461.354C681.044 459.341 681.313 457.462 683.595 457.462H707.089C709.505 457.462 709.774 459.609 710.311 461.354C711.116 463.904 713.667 465.783 716.352 465.783C719.843 465.783 722.796 462.965 722.796 459.341V458.67C722.796 456.254 721.454 453.972 719.306 452.898C718.5 452.361 718.5 451.154 719.306 450.751Z" fill="#00A5BB"/>
<path d="M1004.84 337.751C1006.98 336.677 1008.33 334.395 1008.33 331.979V331.443C1008.33 327.953 1005.51 325 1001.88 325C999.064 325 996.648 326.745 995.842 329.429C995.171 331.443 994.902 333.322 992.62 333.322H969.126C966.71 333.322 966.441 331.174 965.904 329.429C965.099 326.879 962.548 325 959.863 325C956.373 325 953.419 327.819 953.419 331.443V332.114C953.419 334.53 954.761 336.811 956.909 337.885C957.715 338.288 957.715 339.496 956.909 339.898C954.761 340.972 953.419 343.254 953.419 345.67V346.341C953.419 349.831 956.238 352.784 959.863 352.784C962.682 352.784 965.099 351.039 965.904 348.354C966.576 346.341 966.844 344.462 969.126 344.462H992.62C995.037 344.462 995.305 346.609 995.842 348.354C996.648 350.904 999.198 352.784 1001.88 352.784C1005.37 352.784 1008.33 349.965 1008.33 346.341V345.67C1008.33 343.254 1006.98 340.972 1004.84 339.898C1004.03 339.362 1004.03 338.154 1004.84 337.751Z" fill="#00A5BB"/>
<path d="M800.171 226.751C802.319 225.677 803.661 223.395 803.661 220.979V220.443C803.661 216.953 800.842 214 797.217 214C794.398 214 791.982 215.745 791.176 218.429C790.505 220.443 790.236 222.322 787.954 222.322H764.46C762.044 222.322 761.775 220.174 761.238 218.429C760.433 215.879 757.882 214 755.197 214C751.707 214 748.753 216.819 748.753 220.443V221.114C748.753 223.53 750.095 225.811 752.243 226.885C753.049 227.288 753.049 228.496 752.243 228.898C750.095 229.972 748.753 232.254 748.753 234.67V235.341C748.753 238.831 751.572 241.784 755.197 241.784C758.016 241.784 760.433 240.039 761.238 237.354C761.91 235.341 762.178 233.462 764.46 233.462H787.954C790.371 233.462 790.639 235.609 791.176 237.354C791.982 239.904 794.532 241.784 797.217 241.784C800.708 241.784 803.661 238.965 803.661 235.341V234.67C803.661 232.254 802.319 229.972 800.171 228.898C799.365 228.362 799.365 227.154 800.171 226.751Z" fill="#00A5BB"/>
<path d="M430.778 113.5L419.858 117.574L445.753 158.5L457.733 154.5L430.778 113.5Z" fill="#C0BBB5"/>
<path d="M328.956 139L321.968 154.901L365.895 185L374.88 175L328.956 139Z" fill="#C0BBB5"/>
<path d="M383.866 464L369.39 450.5L346.429 464L372.385 485L383.866 464Z" fill="#C0BBB5"/>
<path d="M373.374 330.438H413.807L403.823 303H378.125L369.381 320.669L373.374 330.438Z" fill="#C0BBB5"/>
<path d="M123.8 369L137.777 359.636V342H123.8V369Z" fill="#C0BBB5"/>
<path d="M75.8771 397.827V376H61.9004V404.789V410H62.0384L75.8771 400.534V397.827Z" fill="#C0BBB5"/>
<path d="M116.807 354H101.832V383.051V384L116.807 374.346V354Z" fill="#C0BBB5"/>
<path d="M95.8455 386.569V364H82.8672V393.782V397L95.8455 387.107V386.569Z" fill="#C0BBB5"/>
<path d="M960.893 501L953.293 491H926.451L921.459 510.378L953.293 513.5L960.893 501Z" fill="#C0BBB5"/>
<path opacity="0.5" d="M703.363 235.678C689.585 214.781 661.705 208.885 641.092 222.509C620.478 236.133 614.936 264.117 628.713 285.014C642.491 305.912 670.371 311.808 690.985 298.184C711.599 284.56 717.141 256.575 703.363 235.678Z" fill="#FF8226"/>
<path d="M667.153 274.533C679.066 274.533 688.723 264.995 688.723 253.229C688.723 241.463 679.066 231.926 667.153 231.926C655.24 231.926 645.583 241.463 645.583 253.229C645.583 264.995 655.24 274.533 667.153 274.533Z" fill="#FA1F6F"/>
<path d="M667.153 290.878L649.989 266.105H684.302L667.153 290.878Z" fill="#FA1F6F"/>
<path d="M680.865 253.224C680.865 260.707 674.732 266.764 667.155 266.764C659.577 266.764 653.444 260.707 653.444 253.224C653.444 245.74 659.577 239.683 667.155 239.683C674.717 239.698 680.865 245.755 680.865 253.224Z" fill="white"/>
</svg>
