<svg width="320" height="580" viewBox="0 0 320 580" fill="none" xmlns="http://www.w3.org/2000/svg">
<g clip-path="url(#clip0)">
<rect width="320" height="580" fill="white"/>
<path d="M42.833 0L25.5287 66.4023L0 52.6626V0H42.833Z" fill="#E8E3DD"/>
<path d="M245 3.05176e-05L221.72 72.5018L287.871 48.4621V3.05176e-05H245Z" fill="#E8E3DD"/>
<path d="M302.569 46.5544L254.795 68.1149L274.718 84.7168L302.569 46.5544Z" fill="#E8E3DD"/>
<path d="M292.509 3.05176e-05V46.554L320 37V3.05176e-05H292.509Z" fill="#E8E3DD"/>
<path d="M51.1973 312.133L67 361.893L88 368L148.5 395.5L109.676 322.089L51.1973 312.133Z" fill="#E8E3DD"/>
<path d="M0 366V414.76H87.9791L95.1903 394.608L87.9791 373.5L61.5 366H0Z" fill="#E8E3DD"/>
<path d="M101.95 396.5L94 420.275H137.965L151 404L94 376L101.95 396.5Z" fill="#E8E3DD"/>
<path d="M172 389.5L143.5 424L198.479 444H225L211.5 394.5L172 389.5Z" fill="#E8E3DD"/>
<path d="M141 367L154.5 394.5L172 384L211.5 389.5L205 367H177H141Z" fill="#E8E3DD"/>
<path d="M211 365L225.515 414.76L315 445V414.76L307.5 401.5L211 365Z" fill="#E8E3DD"/>
<path d="M227 422L242.515 474.76H286.479L307 462.5L320 458.554V451L227 422Z" fill="#E8E3DD"/>
<path d="M242.515 480L258.029 532.76H301.994L320 520.5V462.5L307 468L286.479 480H242.515Z" fill="#E8E3DD"/>
<path d="M140 430L174.5 503L246 512.5L228 450.956H197L140 430Z" fill="#E8E3DD"/>
<path d="M0 418V503H85L78.1903 462.608L38.5 418H0Z" fill="#E8E3DD"/>
<path d="M0 509.5V580H85L78.1903 539.608L85 509.5H0Z" fill="#E8E3DD"/>
<path d="M91 509.5L85 539.608L91 580H176L184.5 539.608L171 505.5L150 519.5L91 509.5Z" fill="#E8E3DD"/>
<path d="M176 507L189 539.608L181.5 580H280L288.5 539.608H255.5L246.5 518L176 507Z" fill="#E8E3DD"/>
<path d="M302 539.608H293L285.5 580H320V527L302 539.608Z" fill="#E8E3DD"/>
<path d="M116.888 321.22L138.001 361.894H177.433L180.17 332.902L116.888 321.22Z" fill="#E8E3DD"/>
<path d="M320 282.5L307.734 294.609L320 306.5V282.5Z" fill="#E8E3DD"/>
<path d="M270.259 317.041L241.69 333.364L216 360L308.5 396L270.259 317.041Z" fill="#E8E3DD"/>
<path d="M91.5893 198.612L65.7119 176.422V188.605L83.4241 216.837L91.5893 198.612Z" fill="#E8E3DD"/>
<path d="M117.289 172.563L65.7119 135.309V169.539L97.9715 197.206L86.7797 222.193L94.6225 234.687L123.842 219.799L117.289 172.563Z" fill="#E8E3DD"/>
<path d="M156.129 243.085L171.992 232.61L182.078 224.225L123.843 173.407L129.692 218.156L156.129 243.085Z" fill="#E8E3DD"/>
<path d="M228.325 264.579L186.058 227.696L175.037 236.84L160.029 246.757L199.862 284.316L228.325 264.579Z" fill="#E8E3DD"/>
<path d="M194.467 180.428L157.023 178.468L145.187 183.68L187.546 219.681L202.58 207.187L194.467 180.428Z" fill="#E8E3DD"/>
<path d="M208.613 208.964L191.572 223.113L232.839 258.186L244.959 255.194L221.239 198.269L204.731 196.172L208.613 208.964Z" fill="#E8E3DD"/>
<path d="M218.937 192.746L214.239 181.46L200.047 180.713L203.08 190.728L218.937 192.746Z" fill="#E8E3DD"/>
<path d="M149.983 175.151L135.021 142.745L115.46 141.376L109.848 127.604L69.377 130.583L140.509 178.467L149.983 175.151Z" fill="#E8E3DD"/>
<path d="M132.541 137.362L127.436 126.303L115.355 127.192L119.119 136.428L132.541 137.362Z" fill="#E8E3DD"/>
<path d="M189.625 120.174L203.574 117.241L151.694 69.8363L131.58 120.966L139.133 137.827L176.084 140.411L189.625 120.174Z" fill="#E8E3DD"/>
<path d="M238.351 149.016L228.272 139.806L194.314 161.808L198.295 174.944L205.079 175.152L238.351 149.016Z" fill="#E8E3DD"/>
<path d="M178.781 145.803L141.541 143.201L155.18 173.627L192.75 174.776L188.144 159.589L224.299 136.172L208.297 121.556L192.835 124.814L178.781 145.803Z" fill="#E8E3DD"/>
<path d="M317.5 143.5L305.227 169.758L320 188.5V119.154H302.569L295.397 133.873L317.5 143.5Z" fill="#E8E3DD"/>
<path d="M293.114 138.559L287.87 149.333L301.562 165.442L311.51 146.335L293.114 138.559Z" fill="#E8E3DD"/>
<path d="M278.68 147.418L243.769 143.102L291.911 183.977L298.728 170.88L278.68 147.418Z" fill="#E8E3DD"/>
<path d="M296.009 187.465L315.142 203.704L319.202 194.838L302.404 175.186L296.009 187.465Z" fill="#E8E3DD"/>
<path d="M177.433 270.596L154.74 250.249L141.18 259.212L148.792 279.909L164.892 284.316L177.433 270.596Z" fill="#E8E3DD"/>
<path d="M142.568 278.202L134.824 257.161L150.726 246.653L126.283 224.736L98.5703 239.877L114.795 270.595L142.568 278.202Z" fill="#E8E3DD"/>
<path d="M288.259 190.987L240.991 152.208L219.134 170.887L228.293 193.933L283.1 200.891L288.259 190.987Z" fill="#E8E3DD"/>
<path d="M307.097 235.781L315.144 213.039L292.405 194.387L279.66 218.861L307.097 235.781Z" fill="#E8E3DD"/>
<path d="M310.821 244.199L306.485 258.484L310.242 262.359L318.815 249.125L310.821 244.199Z" fill="#E8E3DD"/>
<path d="M320 254.5L312.5 265.5L320 272V254.5Z" fill="#E8E3DD"/>
<path d="M320 213.5L312.5 237.5L320 244V213.5Z" fill="#E8E3DD"/>
<path d="M301.346 260.244L252.249 258.187L244.959 262.308L277.232 269.759L295.464 285.173L307.715 266.261L301.346 260.244Z" fill="#E8E3DD"/>
<path d="M299.496 288.587L303.668 292.111L319.643 277.521L311.589 269.921L299.496 288.587Z" fill="#E8E3DD"/>
<path d="M292.824 289.248L277.81 275.904L275.389 296.673L286.613 298.827L292.824 289.248Z" fill="#E8E3DD"/>
<path d="M269.901 295.615L273.586 273.627L238.352 264.975L205.593 287.042L229.102 310.095L250.136 291.819L269.901 295.615Z" fill="#E8E3DD"/>
<path d="M251.669 297.4L232.845 313.762L243.53 324.25L267.137 312.133L269.045 300.743L251.669 297.4Z" fill="#E8E3DD"/>
<path d="M210.431 333.245L200.897 325.937L183.981 341.559L181.948 357.732H205.595L234.354 327.209L226.479 319.297L210.431 333.245Z" fill="#E8E3DD"/>
<path d="M222.786 315.587L217.68 310.447L204.791 322.35L210.219 326.51L222.786 315.587Z" fill="#E8E3DD"/>
<path d="M186.02 307.966L201.094 319.519L214.805 306.941L180.171 277.521L170.064 288.34L171.821 298.724L170.643 305.948L186.02 307.966Z" fill="#E8E3DD"/>
<path d="M183.915 312.93L169.802 311.074L167.657 324.249L189.804 329.876L197.193 323.1L183.915 312.93Z" fill="#E8E3DD"/>
<path d="M126.284 284.315L116.651 295.588L138.535 301.734L151.872 303.48L145.851 287.125L141.239 284.315H126.284Z" fill="#E8E3DD"/>
<path d="M137.462 306.83L137.277 306.778L112.933 299.944L102.518 312.132L159.352 324.249L162.424 310.107L137.462 306.83Z" fill="#E8E3DD"/>
<path d="M163.529 305.011L164.891 298.722L153.067 291.518L157.752 304.251L163.529 305.011Z" fill="#E8E3DD"/>
<path d="M75.5289 284.043L93.4779 289.086L70.7455 245.147L80.0885 224.288L63.7383 197.905L30.0312 227.332L35.6568 251.047L56.3561 243.817L75.5289 284.043Z" fill="#E8E3DD"/>
<path d="M109.341 293.539L117.289 284.317L83.4311 229.682L76.5752 244.993L100.393 291.028L109.341 293.539Z" fill="#E8E3DD"/>
<path d="M71.7849 288.392L53.6187 250.282L36.8672 256.136L48.5064 305.215L93.3066 312.134L105.591 297.881L71.7849 288.392Z" fill="#E8E3DD"/>
<path d="M13.1262 259.036L30.1212 253.104L23.4561 228.857L0 224.736V257.576L13.1262 259.036Z" fill="#E8E3DD"/>
<path d="M13.7381 264.332L0 262.801V305.642L39.6879 287.905L31.5029 258.128L13.7381 264.332Z" fill="#E8E3DD"/>
<path d="M60.7293 191.181V171.86L51.5903 164.02L25.2918 188.196L0 174.086V218.271L25.1405 219.796L60.7293 191.181Z" fill="#E8E3DD"/>
<path d="M60.3958 164.979V128.213L58.1982 124.734L38.499 146.197L60.3958 164.979Z" fill="#E8E3DD"/>
<path d="M24.522 181.806L47.5965 160.596L31.3253 146.642L55.6367 120.155L25.5287 72.5042L0 60.2961V168.124L24.522 181.806Z" fill="#E8E3DD"/>
<path d="M73.6929 100.118L77.3906 96.0939L95.2475 91.1808L89.8523 74.1765L79.3513 67.524L60.1982 84.9113L73.6929 100.118Z" fill="#E8E3DD"/>
<path d="M57.5 44.0001L81.5 58.5001L95.9383 45.4202V28.2406L72.5 6.10352e-05L57.5 44.0001Z" fill="#E8E3DD"/>
<path d="M100.5 26.0001L118 33.0001L147.5 6.10352e-05L78.5 7.43866e-05L100.5 26.0001Z" fill="#E8E3DD"/>
<path d="M65.0407 126.307L107.479 121.777L97.0108 96.0885L80.2724 100.69L61.7246 120.894L65.0407 126.307Z" fill="#E8E3DD"/>
<path d="M68.2309 102.631L54.5 83.5L77.5 62L53.1524 46.3306L68.2309 3.05176e-05H48.5L29 68.5L56.67 116L68.2309 102.631Z" fill="#E8E3DD"/>
<path d="M101.202 45.2764L124.356 62.7545L140.351 57.757L118.427 36.6314L101.202 30.2061V45.2764Z" fill="#E8E3DD"/>
<path d="M152.772 59.3258L184.966 89.6739L202.849 82.1128L183.749 49.6554L152.772 59.3258Z" fill="#E8E3DD"/>
<path d="M166.496 49.5969L186.182 43.4507L207.724 80.0553L212.04 78.2251L238.5 6.10352e-05H186.182L166.496 49.5969Z" fill="#E8E3DD"/>
<path d="M160.011 51.623L181.5 3.05176e-05H152.082L123 34.5L144.5 55.5L160.011 51.623Z" fill="#E8E3DD"/>
<path d="M221.325 113.501L206.027 87.5143L189.604 93.4918L214.33 114.974L221.325 113.501Z" fill="#E8E3DD"/>
<path d="M238.084 115.284L219.247 119.249L232.564 130.815L249.256 120.009L238.084 115.284Z" fill="#E8E3DD"/>
<path d="M272.533 124.203L288.528 130.966L297.924 114.48L247.248 72.5019L236.846 76.2922L272.533 124.203Z" fill="#E8E3DD"/>
<path d="M236.656 134.381L238.354 135.848L284.003 138.905L285.931 135.517L255.059 122.465L236.656 134.381Z" fill="#E8E3DD"/>
<path d="M211.041 85.6914L226.733 112.366L238.616 109.861L262.993 120.174L231.707 78.1628L211.041 85.6914Z" fill="#E8E3DD"/>
<path d="M91.0001 425L83.5001 461.5L91.0001 505L149 514.5L168.5 500L132.5 425H91.0001Z" fill="#BDE051"/>
<path d="M46.5 418L78 452L87 421L46.5 418Z" fill="#BDE051"/>
<path d="M309.833 44.5L278.92 89.6763L306.383 112.574H320V41L309.833 44.5Z" fill="#BDE051"/>
<path d="M39.6879 295.258L0 314.729V360.595H58.9857L39.6879 295.258Z" fill="#BDE051"/>
<path d="M300.209 255.251L305.295 240.862L272.739 220.794L280.516 205.86L230.459 199.5L252.619 255.251H300.209Z" fill="#BDE051"/>
<path d="M297.119 292.773L289.454 304.598L275.124 301.846L273.92 312.165L320 407.5V314L297.119 292.773Z" fill="#BDE051"/>
<path d="M98.6972 49.9998L83.334 63.9472L94.2758 70.8852L101.026 92.147L112.883 121.256L125.752 119.88L148.504 65.693L144.596 61.9287L123.305 68.5747L98.6972 49.9998Z" fill="#BDE051"/>
<path d="M132.061 81.3937C131.462 80.3358 130.534 79.5115 129.87 78.5055C129.87 78.5055 126.021 73.4951 117.388 74.0987C113.322 74.3842 110.059 74.235 106.94 77.0193C104.506 79.1935 105.085 83.4575 106.321 86.1834C107.203 88.1175 108.374 89.7855 109.322 91.6157C110.184 93.2837 110.98 95.0944 111.947 96.7559C113.717 99.7869 116.928 101.851 120.527 101.617C124.159 101.383 128.83 99.3845 130.962 96.1394C132.982 93.063 133.107 89.7206 133.107 86.112C133.113 84.0676 133.054 83.133 132.061 81.3937Z" fill="#C2E9F2"/>
<path d="M164.754 81.7622L161.089 87.5125L173.794 97.9552L177.807 93.6977L164.754 81.7622Z" fill="#C0BBB5"/>
<path d="M84.1718 149.181L80.8623 156.028L100.509 167.866L104.371 163.77L84.1718 149.181Z" fill="#C0BBB5"/>
<path d="M109.253 199.675H102.087V208.477H109.253V199.675Z" fill="#C0BBB5"/>
<path d="M303.465 137.279L314.058 141.757L319.183 129.134L308.485 124.909L303.465 137.279Z" fill="#C0BBB5"/>
<path d="M154.75 173.856L163.198 174.116L166.732 165.412L156.04 161.187L152.724 169.345L154.75 173.856Z" fill="#C0BBB5"/>
<path d="M260.862 276.532H253.696V285.334H260.862V276.532Z" fill="#C0BBB5"/>
<path d="M248.539 276.532H241.373V285.334H248.539V276.532Z" fill="#C0BBB5"/>
<path d="M192.278 238.166L187.454 243.697L191.959 247.52L196.783 241.989L192.278 238.166Z" fill="#C0BBB5"/>
<path d="M198.256 243.243L193.432 248.774L197.936 252.597L202.76 247.066L198.256 243.243Z" fill="#C0BBB5"/>
<path d="M204.232 248.309L199.408 253.84L203.913 257.663L208.737 252.132L204.232 248.309Z" fill="#C0BBB5"/>
<path d="M70.0675 315.347L61.9812 313.971L59.0928 326.394L67.0804 328.204L70.0675 315.347Z" fill="#C0BBB5"/>
<path d="M75.2923 322.286L70.6268 321.487L68.9619 328.66L73.5682 329.698L75.2923 322.286Z" fill="#C0BBB5"/>
<path d="M81.6279 322.286L76.9559 321.487L75.291 328.66L79.9039 329.698L81.6279 322.286Z" fill="#C0BBB5"/>
<path d="M87.9583 322.286L83.2928 321.487L81.6279 328.66L86.2342 329.698L87.9583 322.286Z" fill="#C0BBB5"/>
<path d="M52.2998 197.578L57.6292 193.294V185.227H52.2998V197.578Z" fill="#C0BBB5"/>
<path d="M34.2523 210.875V201.088H28.9229V213.997V216.333H28.9755L34.2523 212.089V210.875Z" fill="#C0BBB5"/>
<path d="M49.839 190.518H44.5029V203.427V203.848L49.839 199.558V190.518Z" fill="#C0BBB5"/>
<path d="M42.0479 205.587V195.8H36.7119V208.716V210.111L42.0479 205.821V205.587Z" fill="#C0BBB5"/>
<path d="M114.795 270.593L123.177 272.89L123.842 257.664L114.545 247.916L104.399 250.908L114.795 270.593Z" fill="#C0BBB5"/>
<path d="M253.736 51.0317H249.255L239.03 55.2373L239.675 65.9786L261.822 57.9243L253.736 51.0317Z" fill="#C0BBB5"/>
<path d="M277.521 52.2273L283.358 50.105V36.7417H277.521V52.2273Z" fill="#C0BBB5"/>
<rect x="225.121" y="170.361" width="34.0986" height="13.8525" rx="3" fill="#049DBF"/>
<path d="M234.006 175.372C234.426 175.372 234.8 175.469 235.126 175.662C235.453 175.849 235.706 176.115 235.886 176.462C236.073 176.802 236.166 177.192 236.166 177.632C236.166 178.085 236.063 178.492 235.856 178.852C235.656 179.205 235.376 179.482 235.016 179.682C234.663 179.882 234.26 179.982 233.806 179.982C232.913 179.982 232.223 179.682 231.736 179.082C231.256 178.475 231.016 177.612 231.016 176.492C231.016 175.725 231.13 175.062 231.356 174.502C231.583 173.935 231.906 173.502 232.326 173.202C232.753 172.902 233.253 172.752 233.826 172.752C234.206 172.752 234.586 172.822 234.966 172.962C235.353 173.095 235.68 173.279 235.946 173.512C236.033 173.585 236.093 173.659 236.126 173.732C236.166 173.799 236.186 173.882 236.186 173.982C236.186 174.129 236.143 174.255 236.056 174.362C235.976 174.462 235.88 174.512 235.766 174.512C235.7 174.512 235.636 174.502 235.576 174.482C235.516 174.455 235.443 174.415 235.356 174.362C234.803 173.975 234.31 173.782 233.876 173.782C233.39 173.782 233.006 174.009 232.726 174.462C232.446 174.909 232.3 175.539 232.286 176.352C232.44 176.052 232.67 175.815 232.976 175.642C233.283 175.462 233.626 175.372 234.006 175.372ZM233.736 178.962C234.103 178.962 234.396 178.845 234.616 178.612C234.836 178.372 234.946 178.059 234.946 177.672C234.946 177.285 234.836 176.975 234.616 176.742C234.396 176.509 234.103 176.392 233.736 176.392C233.363 176.392 233.06 176.512 232.826 176.752C232.6 176.985 232.486 177.292 232.486 177.672C232.486 178.059 232.6 178.372 232.826 178.612C233.06 178.845 233.363 178.962 233.736 178.962Z" fill="white"/>
<path d="M244.039 178.651C244.146 178.752 244.199 178.867 244.199 178.995C244.199 179.117 244.154 179.227 244.063 179.323C243.978 179.419 243.876 179.467 243.759 179.467C243.642 179.467 243.532 179.419 243.431 179.323L241.559 177.627V178.995C241.559 179.149 241.511 179.267 241.415 179.347C241.319 179.427 241.199 179.467 241.055 179.467C240.911 179.467 240.791 179.427 240.695 179.347C240.604 179.267 240.559 179.149 240.559 178.995V174.219C240.559 174.064 240.604 173.947 240.695 173.867C240.791 173.787 240.911 173.747 241.055 173.747C241.199 173.747 241.319 173.787 241.415 173.867C241.511 173.947 241.559 174.064 241.559 174.219V177.227L243.271 175.587C243.367 175.491 243.476 175.443 243.599 175.443C243.722 175.443 243.828 175.488 243.919 175.579C244.01 175.669 244.055 175.776 244.055 175.899C244.055 176.021 244.004 176.133 243.903 176.235L242.647 177.403L244.039 178.651ZM249.496 175.419C249.923 175.419 250.248 175.547 250.472 175.803C250.701 176.053 250.816 176.461 250.816 177.027V178.995C250.816 179.149 250.768 179.269 250.672 179.355C250.581 179.435 250.461 179.475 250.312 179.475C250.168 179.475 250.048 179.435 249.952 179.355C249.861 179.269 249.816 179.149 249.816 178.995V177.027C249.816 176.733 249.763 176.525 249.656 176.403C249.555 176.275 249.397 176.211 249.184 176.211C248.923 176.211 248.715 176.301 248.56 176.483C248.405 176.659 248.328 176.901 248.328 177.211V178.995C248.328 179.149 248.28 179.269 248.184 179.355C248.093 179.435 247.976 179.475 247.832 179.475C247.688 179.475 247.568 179.435 247.472 179.355C247.376 179.269 247.328 179.149 247.328 178.995V177.027C247.328 176.733 247.275 176.525 247.168 176.403C247.067 176.275 246.909 176.211 246.696 176.211C246.435 176.211 246.227 176.301 246.072 176.483C245.923 176.659 245.848 176.901 245.848 177.211V178.995C245.848 179.149 245.8 179.269 245.704 179.355C245.608 179.435 245.488 179.475 245.344 179.475C245.2 179.475 245.08 179.435 244.984 179.355C244.893 179.269 244.848 179.149 244.848 178.995V175.899C244.848 175.749 244.896 175.635 244.992 175.555C245.088 175.475 245.208 175.435 245.352 175.435C245.491 175.435 245.603 175.475 245.688 175.555C245.779 175.629 245.824 175.739 245.824 175.883V176.075C245.947 175.861 246.109 175.699 246.312 175.587C246.52 175.475 246.757 175.419 247.024 175.419C247.611 175.419 248.003 175.664 248.2 176.155C248.317 175.931 248.491 175.752 248.72 175.619C248.949 175.485 249.208 175.419 249.496 175.419Z" fill="white" fill-opacity="0.7"/>
<path d="M287 189.5L281.5 203.5L219 193L214 182L207.5 181L206.5 177L153 174.5L139.5 180.5L59.9268 124" stroke="#00A5BB" stroke-width="5"/>
<path d="M115.628 145.533C117.132 144.781 118.071 143.183 118.071 141.492V141.116C118.071 138.672 116.098 136.604 113.56 136.604C111.587 136.604 109.895 137.826 109.331 139.706C108.861 141.116 108.673 142.431 107.076 142.431H90.6288C88.9371 142.431 88.7491 140.928 88.3732 139.706C87.8093 137.92 86.0236 136.604 84.144 136.604C81.7005 136.604 79.6328 138.578 79.6328 141.116V141.586C79.6328 143.277 80.5726 144.875 82.0763 145.627C82.6402 145.909 82.6402 146.755 82.0763 147.036C80.5726 147.788 79.6328 149.386 79.6328 151.078V151.548C79.6328 153.991 81.6065 156.059 84.144 156.059C86.1176 156.059 87.8093 154.837 88.3732 152.957C88.8431 151.548 89.0311 150.232 90.6288 150.232H107.076C108.767 150.232 108.955 151.736 109.331 152.957C109.895 154.743 111.681 156.059 113.56 156.059C116.004 156.059 118.071 154.085 118.071 151.548V151.078C118.071 149.386 117.132 147.788 115.628 147.036C115.064 146.661 115.064 145.815 115.628 145.533Z" fill="#00A5BB"/>
<path d="M301.472 189.599C302.975 188.847 303.915 187.249 303.915 185.557V185.181C303.915 182.738 301.942 180.67 299.404 180.67C297.43 180.67 295.739 181.892 295.175 183.772C294.705 185.181 294.517 186.497 292.919 186.497H276.473C274.781 186.497 274.593 184.993 274.217 183.772C273.653 181.986 271.867 180.67 269.988 180.67C267.544 180.67 265.477 182.644 265.477 185.181V185.651C265.477 187.343 266.416 188.941 267.92 189.693C268.484 189.974 268.484 190.82 267.92 191.102C266.416 191.854 265.477 193.452 265.477 195.144V195.613C265.477 198.057 267.45 200.125 269.988 200.125C271.961 200.125 273.653 198.903 274.217 197.023C274.687 195.613 274.875 194.298 276.473 194.298H292.919C294.611 194.298 294.799 195.801 295.175 197.023C295.739 198.809 297.524 200.125 299.404 200.125C301.848 200.125 303.915 198.151 303.915 195.613V195.144C303.915 193.452 302.975 191.854 301.472 191.102C300.908 190.726 300.908 189.881 301.472 189.599Z" fill="#FA1F6F"/>
<path d="M250.995 133.022C252.499 132.27 253.439 130.673 253.439 128.981V128.511C253.439 126.068 251.465 124 248.927 124C246.954 124 245.262 125.222 244.698 127.101C244.228 128.511 244.04 129.827 242.443 129.827H225.996C224.304 129.827 224.116 128.323 223.74 127.101C223.176 125.316 221.391 124 219.511 124C217.068 124 215 125.974 215 128.511V128.981C215 130.673 215.94 132.27 217.444 133.022C218.007 133.304 218.007 134.15 217.444 134.432C215.94 135.184 215 136.782 215 138.473V138.943C215 141.387 216.974 143.454 219.511 143.454C221.485 143.454 223.176 142.233 223.74 140.353C224.21 138.943 224.398 137.627 225.996 137.627H242.443C244.134 137.627 244.322 139.131 244.698 140.353C245.262 142.139 247.048 143.454 248.927 143.454C251.371 143.454 253.439 141.481 253.439 138.943V138.473C253.439 136.782 252.499 135.184 250.995 134.432C250.431 134.15 250.431 133.304 250.995 133.022Z" fill="#00A5BB"/>
<path d="M139.995 298.928C141.499 298.176 142.439 296.579 142.439 294.887V294.511C142.439 292.068 140.465 290 137.927 290C135.954 290 134.262 291.222 133.698 293.101C133.228 294.511 133.04 295.827 131.443 295.827H114.996C113.304 295.827 113.116 294.323 112.74 293.101C112.176 291.316 110.391 290 108.511 290C106.068 290 104 291.974 104 294.511V294.981C104 296.673 104.94 298.27 106.444 299.022C107.007 299.304 107.007 300.15 106.444 300.432C104.94 301.184 104 302.782 104 304.473V304.943C104 307.387 105.974 309.454 108.511 309.454C110.485 309.454 112.176 308.232 112.74 306.353C113.21 304.943 113.398 303.627 114.996 303.627H131.443C133.134 303.627 133.322 305.131 133.698 306.353C134.262 308.139 136.048 309.454 137.927 309.454C140.371 309.454 142.439 307.481 142.439 304.943V304.473C142.439 302.782 141.499 301.184 139.995 300.432C139.431 300.056 139.431 299.21 139.995 298.928Z" fill="#00A5BB"/>
<path d="M231.995 365.928C233.499 365.176 234.439 363.579 234.439 361.887V361.511C234.439 359.068 232.465 357 229.927 357C227.954 357 226.262 358.222 225.698 360.101C225.228 361.511 225.04 362.827 223.443 362.827H206.996C205.304 362.827 205.116 361.323 204.74 360.101C204.176 358.316 202.391 357 200.511 357C198.068 357 196 358.974 196 361.511V361.981C196 363.673 196.94 365.27 198.444 366.022C199.007 366.304 199.007 367.15 198.444 367.432C196.94 368.184 196 369.782 196 371.473V371.943C196 374.387 197.974 376.454 200.511 376.454C202.485 376.454 204.176 375.232 204.74 373.353C205.21 371.943 205.398 370.627 206.996 370.627H223.443C225.134 370.627 225.322 372.131 225.698 373.353C226.262 375.139 228.048 376.454 229.927 376.454C232.371 376.454 234.439 374.481 234.439 371.943V371.473C234.439 369.782 233.499 368.184 231.995 367.432C231.431 367.056 231.431 366.21 231.995 365.928Z" fill="#00A5BB"/>
<path opacity="0.5" d="M58.4226 138.399C67.4925 138.399 74.8451 131.146 74.8451 122.2C74.8451 113.253 67.4925 106 58.4226 106C49.3526 106 42 113.253 42 122.2C42 131.146 49.3526 138.399 58.4226 138.399Z" fill="#FF8226"/>
<path d="M58.5338 127.809C63.7991 127.809 68.0676 123.598 68.0676 118.404C68.0676 113.21 63.7991 109 58.5338 109C53.2684 109 49 113.21 49 118.404C49 123.598 53.2684 127.809 58.5338 127.809Z" fill="#FA1F6F"/>
<path d="M58.5345 135.024L50.9482 124.088H66.1141L58.5345 135.024Z" fill="#FA1F6F"/>
<path d="M64.5942 118.402C64.5942 121.705 61.8834 124.379 58.5344 124.379C55.1854 124.379 52.4746 121.705 52.4746 118.402C52.4746 115.098 55.1854 112.424 58.5344 112.424C61.8768 112.431 64.5942 115.105 64.5942 118.402Z" fill="white"/>
</g>
<defs>
<clipPath id="clip0">
<rect width="320" height="580" fill="white"/>
</clipPath>
</defs>
</svg>
