<svg width="1201" height="600" viewBox="0 0 1201 600" fill="none" xmlns="http://www.w3.org/2000/svg">
<rect width="1200.46" height="600" fill="white"/>
<path d="M101.331 0L63.1624 131.209L0 105V0H101.331Z" fill="#E8E3DD"/>
<path d="M515.396 0L476.206 149L613.976 96.6119L618.968 0H515.396Z" fill="#E8E3DD"/>
<path d="M640.227 100.721L538.811 139.664L581.103 169.651L640.227 100.721Z" fill="#E8E3DD"/>
<path d="M629.123 0L622.962 95L722.874 62.4088L730.782 0H629.123Z" fill="#E8E3DD"/>
<path d="M740.573 70L687.854 86.6782L723.494 118.241L764.725 122L740.573 70Z" fill="#E8E3DD"/>
<path d="M887.62 107.349L778.521 133.709L778.521 255.814L865.792 213.555L887.62 107.349Z" fill="#E8E3DD"/>
<path d="M867.644 226.651L778.52 265.571L780.825 346.616L842.046 343.302L867.644 226.651Z" fill="#E8E3DD"/>
<path d="M685.674 526.233L654.056 551.472L720.798 600H818.635L778.702 556.5L747.789 577.274L685.674 526.233Z" fill="#E8E3DD"/>
<path d="M909.484 518L881.53 515L786.688 554L827.62 600H876.539L909.484 518Z" fill="#E8E3DD"/>
<path d="M876.863 509.495L842.753 456.939L783.13 408.256L783.13 547.442L876.863 509.495Z" fill="#E8E3DD"/>
<path d="M202.293 374.781L153.244 337.5V364.5L185.323 408.256L202.293 374.781Z" fill="#E8E3DD"/>
<path d="M1125.49 180.256L1171.89 132.535L1146.42 132.535L1087.38 165.198L1125.49 180.256Z" fill="#E8E3DD"/>
<path d="M256.496 326.601L153.744 258V321.032L218.011 371.981L195.715 417.994L211.34 441L269.551 413.583L256.496 326.601Z" fill="#E8E3DD"/>
<path d="M1189.9 230.127L1200 216.176L1200 133L1186.8 133L1128.39 192.38L1075.63 171.779L1049.25 186.215L1080.69 240L1189.9 230.127Z" fill="#E8E3DD"/>
<path d="M338.056 455.977L371.541 436.846L392.833 421.532L269.904 328.721L282.251 410.449L338.056 455.977Z" fill="#E8E3DD"/>
<path d="M1032.06 299.434L1054.01 328.682L1071.57 347.279L1178.04 239.907L1084.29 250.691L1032.06 299.434Z" fill="#E8E3DD"/>
<path d="M1046.76 310L1035.77 296L1032.28 299.378L1042.26 313L1046.76 310Z" fill="#C0BBB5"/>
<path d="M1053.24 304.5L1042.26 290.5L1038.77 293.878L1048.75 307.5L1053.24 304.5Z" fill="#C0BBB5"/>
<path d="M1058.74 298.5L1047.75 284.5L1044.26 287.878L1054.24 301.5L1058.74 298.5Z" fill="#C0BBB5"/>
<path d="M1064.23 293.878L1053.24 279.878L1049.75 283.256L1059.73 296.878L1064.23 293.878Z" fill="#C0BBB5"/>
<path d="M489.639 496.357L401.198 428.139L378.138 445.053L346.734 463.395L430.081 532.86L489.639 496.357Z" fill="#E8E3DD"/>
<path d="M986.254 433.442L1064.33 355.506L1044.97 335.185L1023.98 307.512L944.475 380.959L986.254 433.442Z" fill="#E8E3DD"/>
<path d="M418.699 340.331L339.501 336.675L314.466 346.397L404.059 413.558L435.858 390.251L418.699 340.331Z" fill="#E8E3DD"/>
<path d="M1163.19 370.731L1167.28 301.545L1156.4 279.675L1081.23 357.942L1107.32 385.721L1163.19 370.731Z" fill="#E8E3DD"/>
<path d="M447.568 394.655L411.272 420.665L499.168 485.14L524.981 479.64L474.461 374.993L439.3 371.14L447.568 394.655Z" fill="#E8E3DD"/>
<path d="M1103.46 396.246L1073.66 364.512L993.344 444.5L1006.09 463.93L1125.99 419.759L1130.4 389.017L1103.46 396.246Z" fill="#E8E3DD"/>
<path d="M1110.43 529.546L1124.26 429.465L1009.01 472.546L1005.17 572.628L1038.21 577.267L1078.93 514.302L1110.43 529.546Z" fill="#BDE051"/>
<path d="M578.762 416.872L595.664 388.372L492.712 375.116L538.81 475.198L644.068 478.512L651.751 453.988L578.762 416.872Z" fill="#BDE051"/>
<path d="M469.664 364.512L459.728 343.375L429.712 341.977L436.127 360.732L469.664 364.512Z" fill="#E8E3DD"/>
<path d="M1136.55 416.209L1171.12 404.279L1164.98 393.675L1162.67 380.419L1140.93 386.166L1136.55 416.209Z" fill="#E8E3DD"/>
<path d="M325.222 330.624L293.848 271.507L252.829 269.008L241.06 243.884L156.195 249.318L305.354 336.674L325.222 330.624Z" fill="#E8E3DD"/>
<path d="M288.343 262.442L277.387 241.232L251.465 242.938L259.541 260.649L288.343 262.442Z" fill="#E8E3DD"/>
<path d="M408.219 230.875L437.395 225.53L328.879 139.163L286.808 232.317L302.607 263.038L379.896 267.744L408.219 230.875Z" fill="#E8E3DD"/>
<path d="M269.135 134.523L218.427 100.721L184.622 126.57L203.83 137.837L247.623 233.942L275.282 231.291L321.38 131.872L311.392 121.267L269.135 134.523Z" fill="#BDE051"/>
<path d="M509.615 283.343L488.512 266.419L417.419 306.851L425.753 330.991H451.747L509.615 283.343Z" fill="#E8E3DD"/>
<path d="M1200 415L1200 236L1165.06 273.5L1177.24 301.5L1171.41 368L1171.41 390.765L1177.24 403L1200 415Z" fill="#E8E3DD"/>
<path d="M384.918 277.971L306.783 273.174L335.4 329.254L414.226 331.372L404.562 303.379L480.42 260.218L446.846 233.279L414.405 239.284L384.918 277.971Z" fill="#E8E3DD"/>
<path d="M678.607 273.366L650.137 321.329L690.684 363.186L769.301 349.92L765.22 227.977H644.548L629.47 255.131L678.607 273.366Z" fill="#E8E3DD"/>
<path d="M621.464 262L609.484 276L642.583 314.14L663.275 279.279L621.464 262Z" fill="#E8E3DD"/>
<path d="M594.554 280.885L528.619 283.5L622.669 347.279L637.153 323.494L594.554 280.885Z" fill="#E8E3DD"/>
<path d="M629.47 353.632L673.877 388L680.178 366.998L643.452 331.372L629.47 353.632Z" fill="#E8E3DD"/>
<path d="M1106.16 587.994L1129.62 600L1200 600L1200 497L1106.16 587.994Z" fill="#E8E3DD"/>
<path d="M382.077 507.235L334.947 469.233L306.783 485.973L322.594 524.63L356.032 532.861L382.077 507.235Z" fill="#E8E3DD"/>
<path d="M974.18 339.326L1018.23 297.009L998.826 271.721L954.015 285.917L944.474 315.94L974.18 339.326Z" fill="#E8E3DD"/>
<path d="M309.693 520.93L293.494 482.326L326.759 463.048L275.63 422.837L217.66 450.617L251.6 506.975L309.693 520.93Z" fill="#E8E3DD"/>
<path d="M958.304 274.024L1002.45 259.853L1024.49 288.954L1070.48 244.225L1038.71 193.512L974.263 223.203L958.304 274.024Z" fill="#E8E3DD"/>
<path d="M611.481 359L516.92 289L469.218 329.67L487.687 365.5L599.553 379L611.481 359Z" fill="#E8E3DD"/>
<path d="M1141.48 543L1200 485.279L1200 425.52L1178.87 411L1135.8 425.52L1120.13 533.544L1141.48 543Z" fill="#E8E3DD"/>
<path d="M654.232 442.721L670.958 401.21L623.692 367.163L597.201 411.837L654.232 442.721Z" fill="#E8E3DD"/>
<path d="M1047.43 577.782L1096.67 585.5L1133.48 550.887L1082.6 527.558L1047.43 577.782Z" fill="#E8E3DD"/>
<path d="M661.165 458.628L652.52 484.697L660.011 491.767L677.105 467.618L661.165 458.628Z" fill="#E8E3DD"/>
<path d="M1096.17 592L995.341 579L967.887 600L1115.14 600L1096.17 592Z" fill="#E8E3DD"/>
<path d="M690.9 373.791L664.812 449.509L693.454 465.088L668.148 499.542L748.557 567.988L776.984 548.104L769.301 361.198L690.9 373.791Z" fill="#E8E3DD"/>
<path d="M770.715 552L760.233 531L738.769 532.5L728.398 550.378L748.752 568L770.715 552Z" fill="#C0BBB5"/>
<path d="M640.957 488.879L539.976 485.139L524.981 492.63L591.359 506.171L628.858 534.186L654.056 499.813L640.957 488.879Z" fill="#E8E3DD"/>
<path d="M995.457 566.36L1000.33 471.5L991.348 461L975.412 522.556L942.938 555.675L982.782 577.93L995.457 566.36Z" fill="#E8E3DD"/>
<path d="M638.689 540.705L644.925 546.5L680.178 519.551L663.593 505.023L638.689 540.705Z" fill="#E8E3DD"/>
<path d="M910.519 547L885.524 600L957.039 600L973.378 585.864L910.519 547Z" fill="#E8E3DD"/>
<path d="M623.324 541.646L591.567 516.954L586.445 555.385L610.187 559.372L623.324 541.646Z" fill="#E8E3DD"/>
<path d="M935.185 550.093L962.913 522.697L919.756 518.279L915.278 538.76L935.185 550.093Z" fill="#E8E3DD"/>
<path d="M575.711 552.881L583.371 512.828L510.116 497.07L439.268 540L485.69 579L534.616 545.965L575.711 552.881Z" fill="#E8E3DD"/>
<path d="M922.31 508.876L967.99 515.628L985.963 451.059L940.121 391.023L892.23 434.105L930.198 472.654L922.31 508.876Z" fill="#E8E3DD"/>
<path d="M537.273 556.721L496.672 585.5L481.697 600H706.323L630.449 546.5L611.481 568.5L537.273 556.721Z" fill="#E8E3DD"/>
<path d="M922.962 474.11L880.825 433.442L853.815 456.527L885.02 507.529L914.354 511.651L922.962 474.11Z" fill="#E8E3DD"/>
<path d="M843.258 399.152L858.451 381.789L836.144 356.558L783.899 356.558L783.899 395L846.9 450.674L872.254 428.378L843.258 399.152Z" fill="#E8E3DD"/>
<path d="M477.346 589.913L466.883 580.581L441.265 600H469.717L477.346 589.913Z" fill="#E8E3DD"/>
<path d="M880.366 422.837L890.692 413.435L866.781 389.698L858.424 399.694L880.366 422.837Z" fill="#E8E3DD"/>
<path d="M400.138 575.34L431.717 596.488L459.734 571.645L391.348 515L366.711 539.411L370.391 558.421L367.924 571.645L400.138 575.34Z" fill="#E8E3DD"/>
<path d="M896.346 354.906L872.253 382.149L898.485 406.93L959.84 344.335L937.277 326.07L915.62 329.245L900.556 327.116L896.346 354.906Z" fill="#E8E3DD"/>
<path d="M395.934 585.309L366.564 581.907L362.101 600H424.792L395.934 585.309Z" fill="#E8E3DD"/>
<path d="M885.212 350.684L889.156 324.715L861.161 320.768L849.205 361.52L863.602 375.116L885.212 350.684Z" fill="#E8E3DD"/>
<path d="M272.047 532.861L254.538 553.134L301.321 564.186L329.832 567.326L311.481 532.861L264.559 522L272.047 532.861Z" fill="#E8E3DD"/>
<path d="M961.896 233L944.474 240.5L921.877 222.802L909.558 263.983L906.059 289.081L941.431 277.752L961.896 233Z" fill="#E8E3DD"/>
<path d="M298.84 574.416L298.452 574.323L247.249 562.023L226.622 600H351.344L357.903 579L298.84 574.416Z" fill="#E8E3DD"/>
<path d="M898.274 265.643L898.379 265.304L912.205 220.594L887.547 201.465L863.034 305.845L891.644 311.489L898.274 265.643Z" fill="#E8E3DD"/>
<path d="M359.9 557L356.406 543.5L324.459 536L339.933 566L356.406 569L359.9 557Z" fill="#E8E3DD"/>
<path d="M904.492 311L919.967 313.022L931.947 313.022L940.932 288.5L906.243 300.216L904.492 311Z" fill="#E8E3DD"/>
<path d="M167.983 532.829L205.367 542.139L158.02 461.015L177.48 422.501L143.425 373.791L72.8789 418.5L86.8556 469.5L128.049 458.558L167.983 532.829Z" fill="#E8E3DD"/>
<path d="M945.877 151.232L935.254 184.233L1027.81 142.438L1071.75 159.615L1127.33 129.554L1065.34 67.5815L1015.39 77.9245L1030.62 115.982L945.877 151.232Z" fill="#E8E3DD"/>
<path d="M240.813 548.767L257.611 531.92L186.051 432.116L171.562 460.085L221.901 544.179L240.813 548.767Z" fill="#E8E3DD"/>
<path d="M927.571 213.485L946.879 227.977L1061.26 166.244L1029.2 153.744L932.829 197.17L927.571 213.485Z" fill="#E8E3DD"/>
<path d="M161.193 539.984L123.418 470.558L88.585 481.223L122.771 600H209.651L231.489 557.269L161.193 539.984Z" fill="#E8E3DD"/>
<path d="M937.164 144.821L1016.69 111.533L1004.48 80.8374L902.057 102.165L887.619 184.258L917.362 206.768L937.164 144.821Z" fill="#E8E3DD"/>
<path d="M33.4443 485L75.8735 472.932L60.8985 420H0V481.275L33.4443 485Z" fill="#E8E3DD"/>
<path d="M998.337 29.633L1010.77 68L1061.58 52.9533L1070.22 0L1001.4 -2.64129e-06L998.337 29.633Z" fill="#E8E3DD"/>
<path d="M33.5211 495.622L0 492.753V600H113.311L78.3694 484.5L33.5211 495.622Z" fill="#E8E3DD"/>
<path d="M988.074 29.4231L991.347 -3.8319e-07L897.504 -2.02676e-07L937.71 85L1001.33 67.4702L988.074 29.4231Z" fill="#E8E3DD"/>
<path d="M138.27 359.5V327.589L118.303 313.5L64.3927 356L0 327.589V409.183L59.5134 412L138.27 359.5Z" fill="#E8E3DD"/>
<path d="M1141.98 123L1200 123L1200 0L1084.38 -9.77798e-08L1075.21 55.3848L1141.98 123Z" fill="#E8E3DD"/>
<path d="M137.407 315.233V247.416L132.935 241L92.8457 280.588L137.407 315.233Z" fill="#E8E3DD"/>
<path d="M60.8305 344.628L109.901 305.292L75.2985 279.414L127 230.292L62.9713 141.92L0 119V315L60.8305 344.628Z" fill="#E8E3DD"/>
<path d="M164.618 193.512L172.399 186.147L209.977 177.156L198.623 146.035L176.525 133.86L136.22 165.681L164.618 193.512Z" fill="#E8E3DD"/>
<path d="M139.767 101.094L175.844 122L211.647 92.2756V0H170.354L139.767 101.094Z" fill="#E8E3DD"/>
<path d="M146.309 241.233L236.099 233.085L213.951 186.884L178.536 195.16L139.293 231.497L146.309 241.233Z" fill="#E8E3DD"/>
<path d="M157.234 200.37L121.036 164.928L166.952 128.707L126.509 106.438L161.73 0H113.311L73.2188 136.799L133.676 222.674L157.234 200.37Z" fill="#E8E3DD"/>
<path d="M222.629 91.609L271.393 126L305.08 116.167L253.93 63.3481L313.477 0H222.629V91.609Z" fill="#E8E3DD"/>
<path d="M324.459 118.882L396.342 175L436.273 161.018L393.624 101L324.459 118.882Z" fill="#E8E3DD"/>
<path d="M359.401 99.3872L400.622 87.5597L445.728 158L465.916 152.456L501.165 0H411.509L359.401 99.3872Z" fill="#E8E3DD"/>
<path d="M348.419 102.5L398.336 0H328.62L269.551 64.4142L316.972 110.5L348.419 102.5Z" fill="#E8E3DD"/>
<path d="M474.273 218.646L441.667 170.977L406.662 181.942L455.241 221.5L474.273 218.646Z" fill="#E8E3DD"/>
<path d="M509.21 221.349L463.728 230.221L493.178 253L532.664 230.221L509.21 221.349Z" fill="#E8E3DD"/>
<path d="M581.061 238.092L614.46 250.512L634.079 220.236L528.262 143.14L506.541 150.101L581.061 238.092Z" fill="#E8E3DD"/>
<path d="M713.984 127.895L672.496 91.4417L652.52 98.0696L587.982 174.953L647.142 218.697L766.229 220.686L764.692 133.86L713.984 127.895Z" fill="#BDE051"/>
<path d="M722.204 153.372C720.723 150.726 718.429 148.665 716.785 146.149C716.785 146.149 707.266 133.617 685.917 135.126C675.861 135.84 667.79 135.467 660.077 142.431C654.056 147.869 655.488 158.534 658.547 165.352C660.728 170.19 663.624 174.362 665.968 178.94C668.099 183.112 670.068 187.641 672.46 191.796C676.837 199.377 684.778 204.539 693.679 203.955C702.661 203.371 714.214 198.371 719.487 190.254C724.482 182.56 724.791 174.2 724.791 165.174C724.808 160.06 724.661 157.723 722.204 153.372Z" fill="#C2E9F2"/>
<path d="M741.997 0L732.778 57.5217L745.839 54.0978L779.642 126L929.451 86.2826L884.892 0H741.997Z" fill="#BDE051"/>
<path d="M501.664 261.199L522.629 275.5L596.506 270.5L609.984 261.199L544.934 235L501.664 261.199Z" fill="#E8E3DD"/>
<path d="M452.761 167.522L485.714 216.339L510.668 211.754L561.86 230.628L496.16 153.744L452.761 167.522Z" fill="#E8E3DD"/>
<path d="M662.895 279.5L636.439 324L680.366 369L689.85 374L769.717 362L786.19 357H834.609L858 383L844 398L873 427L880.533 433.5L897.005 453.5" stroke="#00A5BB" stroke-width="5"/>
<path d="M939.938 457.751C942.086 456.677 943.428 454.395 943.428 451.979V451.443C943.428 447.953 940.609 445 936.984 445C934.165 445 931.748 446.745 930.943 449.429C930.271 451.443 930.003 453.322 927.721 453.322H904.227C901.81 453.322 901.542 451.174 901.005 449.429C900.199 446.879 897.649 445 894.964 445C891.473 445 888.52 447.819 888.52 451.443V452.114C888.52 454.53 889.862 456.811 892.01 457.885C892.816 458.288 892.816 459.496 892.01 459.898C889.862 460.972 888.52 463.254 888.52 465.67V466.341C888.52 469.831 891.339 472.784 894.964 472.784C897.783 472.784 900.199 471.039 901.005 468.354C901.676 466.341 901.945 464.462 904.227 464.462H927.721C930.137 464.462 930.406 466.609 930.943 468.354C931.748 470.904 934.299 472.784 936.984 472.784C940.474 472.784 943.428 469.965 943.428 466.341V465.67C943.428 463.254 942.086 460.972 939.938 459.898C939.132 459.362 939.132 458.154 939.938 457.751Z" fill="#FA1F6F"/>
<path d="M530.619 151.751C532.767 150.677 534.11 148.395 534.11 145.979V145.443C534.11 141.953 531.29 139 527.666 139C524.846 139 522.43 140.745 521.624 143.429C520.953 145.443 520.685 147.322 518.402 147.322H494.909C492.492 147.322 492.224 145.174 491.687 143.429C490.881 140.879 488.33 139 485.645 139C482.155 139 479.201 141.819 479.201 145.443V146.114C479.201 148.53 480.544 150.811 482.692 151.885C483.497 152.288 483.497 153.496 482.692 153.898C480.544 154.972 479.201 157.254 479.201 159.67V160.341C479.201 163.831 482.02 166.784 485.645 166.784C488.465 166.784 490.881 165.039 491.687 162.354C492.358 160.341 492.626 158.462 494.909 158.462H518.402C520.819 158.462 521.087 160.609 521.624 162.354C522.43 164.904 524.981 166.784 527.666 166.784C531.156 166.784 534.11 163.965 534.11 160.341V159.67C534.11 157.254 532.767 154.972 530.619 153.898C529.814 153.362 529.814 152.154 530.619 151.751Z" fill="#00A5BB"/>
<path d="M719.305 450.751C721.453 449.677 722.795 447.395 722.795 444.979V444.443C722.795 440.953 719.976 438 716.351 438C713.532 438 711.115 439.745 710.31 442.429C709.639 444.443 709.37 446.322 707.088 446.322H683.594C681.178 446.322 680.909 444.174 680.372 442.429C679.567 439.879 677.016 438 674.331 438C670.84 438 667.887 440.819 667.887 444.443V445.114C667.887 447.53 669.229 449.811 671.377 450.885C672.183 451.288 672.183 452.496 671.377 452.898C669.229 453.972 667.887 456.254 667.887 458.67V459.341C667.887 462.831 670.706 465.784 674.331 465.784C677.15 465.784 679.567 464.039 680.372 461.354C681.043 459.341 681.312 457.462 683.594 457.462H707.088C709.504 457.462 709.773 459.609 710.31 461.354C711.115 463.904 713.666 465.784 716.351 465.784C719.842 465.784 722.795 462.965 722.795 459.341V458.67C722.795 456.254 721.453 453.972 719.305 452.898C718.499 452.362 718.499 451.154 719.305 450.751Z" fill="#00A5BB"/>
<path d="M1004.83 337.751C1006.98 336.677 1008.32 334.395 1008.32 331.979V331.443C1008.32 327.953 1005.5 325 1001.88 325C999.056 325 996.64 326.745 995.834 329.429C995.163 331.443 994.895 333.322 992.612 333.322H969.119C966.702 333.322 966.433 331.174 965.896 329.429C965.091 326.879 962.54 325 959.855 325C956.365 325 953.411 327.819 953.411 331.443V332.114C953.411 334.53 954.754 336.811 956.902 337.885C957.707 338.288 957.707 339.496 956.902 339.898C954.754 340.972 953.411 343.254 953.411 345.67V346.341C953.411 349.831 956.23 352.784 959.855 352.784C962.674 352.784 965.091 351.039 965.896 348.354C966.568 346.341 966.836 344.462 969.119 344.462H992.612C995.029 344.462 995.297 346.609 995.834 348.354C996.64 350.904 999.191 352.784 1001.88 352.784C1005.37 352.784 1008.32 349.965 1008.32 346.341V345.67C1008.32 343.254 1006.98 340.972 1004.83 339.898C1004.02 339.362 1004.02 338.154 1004.83 337.751Z" fill="#00A5BB"/>
<path d="M800.17 226.751C802.318 225.677 803.66 223.395 803.66 220.979V220.443C803.66 216.953 800.841 214 797.216 214C794.397 214 791.981 215.745 791.175 218.429C790.504 220.443 790.235 222.322 787.953 222.322H764.459C762.043 222.322 761.774 220.174 761.237 218.429C760.432 215.879 757.881 214 755.196 214C751.706 214 748.752 216.819 748.752 220.443V221.114C748.752 223.53 750.094 225.811 752.242 226.885C753.048 227.288 753.048 228.496 752.242 228.898C750.094 229.972 748.752 232.254 748.752 234.67V235.341C748.752 238.831 751.571 241.784 755.196 241.784C758.015 241.784 760.432 240.039 761.237 237.354C761.909 235.341 762.177 233.462 764.459 233.462H787.953C790.37 233.462 790.638 235.609 791.175 237.354C791.981 239.904 794.531 241.784 797.216 241.784C800.707 241.784 803.66 238.965 803.66 235.341V234.67C803.66 232.254 802.318 229.972 800.17 228.898C799.364 228.362 799.364 227.154 800.17 226.751Z" fill="#00A5BB"/>
<path d="M430.782 113.5L419.862 117.574L445.757 158.5L457.737 154.5L430.782 113.5Z" fill="#C0BBB5"/>
<path d="M328.952 139L321.964 154.901L365.891 185L374.876 175L328.952 139Z" fill="#C0BBB5"/>
<path d="M383.86 464L369.385 450.5L346.423 464L372.38 485L383.86 464Z" fill="#C0BBB5"/>
<path d="M373.378 330.438H413.811L403.827 303H378.129L369.385 320.669L373.378 330.438Z" fill="#C0BBB5"/>
<path d="M123.794 369L137.771 359.636V342H123.794V369Z" fill="#C0BBB5"/>
<path d="M75.8732 397.827V376H61.8965V404.789V410H62.0345L75.8732 400.534V397.827Z" fill="#C0BBB5"/>
<path d="M116.805 354H101.83V383.051V384L116.805 374.346V354Z" fill="#C0BBB5"/>
<path d="M95.8407 386.569V364H82.8623V393.782V397L95.8407 387.107V386.569Z" fill="#C0BBB5"/>
<path d="M960.898 501L953.298 491H926.456L921.464 510.378L953.298 513.5L960.898 501Z" fill="#C0BBB5"/>
<rect x="822.629" y="231.99" width="84.9571" height="30.1804" rx="7.45946" fill="#049DBF"/>
<path d="M850.421 244.761C851.466 244.761 852.394 245.001 853.206 245.482C854.018 245.946 854.648 246.609 855.096 247.471C855.56 248.317 855.792 249.286 855.792 250.381C855.792 251.508 855.535 252.519 855.021 253.414C854.524 254.293 853.828 254.981 852.933 255.478C852.054 255.975 851.051 256.224 849.924 256.224C847.703 256.224 845.987 255.478 844.777 253.986C843.583 252.477 842.987 250.331 842.987 247.546C842.987 245.64 843.268 243.99 843.832 242.598C844.396 241.189 845.2 240.111 846.244 239.365C847.305 238.619 848.548 238.246 849.974 238.246C850.919 238.246 851.863 238.421 852.808 238.769C853.77 239.1 854.582 239.556 855.245 240.136C855.461 240.319 855.61 240.501 855.693 240.683C855.792 240.849 855.842 241.056 855.842 241.305C855.842 241.67 855.734 241.985 855.519 242.25C855.32 242.498 855.079 242.623 854.797 242.623C854.632 242.623 854.474 242.598 854.325 242.548C854.176 242.482 853.993 242.382 853.778 242.25C852.402 241.288 851.175 240.808 850.098 240.808C848.888 240.808 847.935 241.371 847.239 242.498C846.542 243.609 846.178 245.175 846.144 247.198C846.526 246.452 847.098 245.863 847.86 245.432C848.623 244.985 849.476 244.761 850.421 244.761ZM849.75 253.688C850.662 253.688 851.391 253.397 851.938 252.817C852.485 252.221 852.759 251.441 852.759 250.48C852.759 249.519 852.485 248.748 851.938 248.168C851.391 247.587 850.662 247.297 849.75 247.297C848.822 247.297 848.067 247.596 847.487 248.192C846.924 248.773 846.642 249.535 846.642 250.48C846.642 251.441 846.924 252.221 847.487 252.817C848.067 253.397 848.822 253.688 849.75 253.688Z" fill="white"/>
<path d="M873.572 254.094C873.837 254.346 873.97 254.631 873.97 254.95C873.97 255.255 873.857 255.526 873.632 255.765C873.419 256.004 873.167 256.123 872.876 256.123C872.584 256.123 872.312 256.004 872.06 255.765L867.405 251.548V254.95C867.405 255.334 867.286 255.626 867.047 255.825C866.809 256.024 866.51 256.123 866.152 256.123C865.794 256.123 865.496 256.024 865.257 255.825C865.032 255.626 864.919 255.334 864.919 254.95V243.074C864.919 242.689 865.032 242.398 865.257 242.199C865.496 242 865.794 241.9 866.152 241.9C866.51 241.9 866.809 242 867.047 242.199C867.286 242.398 867.405 242.689 867.405 243.074V250.553L871.662 246.476C871.901 246.237 872.173 246.118 872.478 246.118C872.783 246.118 873.048 246.23 873.274 246.456C873.499 246.681 873.612 246.946 873.612 247.251C873.612 247.556 873.486 247.835 873.234 248.087L870.111 250.991L873.572 254.094ZM887.141 246.058C888.202 246.058 889.011 246.376 889.568 247.013C890.138 247.636 890.423 248.65 890.423 250.056V254.95C890.423 255.334 890.304 255.632 890.065 255.845C889.84 256.044 889.541 256.143 889.17 256.143C888.812 256.143 888.513 256.044 888.275 255.845C888.049 255.632 887.937 255.334 887.937 254.95V250.056C887.937 249.327 887.804 248.81 887.539 248.505C887.287 248.186 886.896 248.027 886.365 248.027C885.715 248.027 885.198 248.253 884.813 248.703C884.429 249.141 884.237 249.744 884.237 250.514V254.95C884.237 255.334 884.117 255.632 883.879 255.845C883.653 256.044 883.361 256.143 883.003 256.143C882.645 256.143 882.347 256.044 882.108 255.845C881.869 255.632 881.75 255.334 881.75 254.95V250.056C881.75 249.327 881.618 248.81 881.352 248.505C881.1 248.186 880.709 248.027 880.179 248.027C879.529 248.027 879.012 248.253 878.627 248.703C878.256 249.141 878.07 249.744 878.07 250.514V254.95C878.07 255.334 877.951 255.632 877.712 255.845C877.473 256.044 877.175 256.143 876.817 256.143C876.459 256.143 876.161 256.044 875.922 255.845C875.696 255.632 875.584 255.334 875.584 254.95V247.251C875.584 246.88 875.703 246.595 875.942 246.396C876.18 246.197 876.479 246.098 876.837 246.098C877.182 246.098 877.46 246.197 877.672 246.396C877.898 246.582 878.01 246.854 878.01 247.212V247.689C878.315 247.159 878.72 246.754 879.224 246.476C879.741 246.197 880.331 246.058 880.994 246.058C882.453 246.058 883.428 246.668 883.918 247.888C884.21 247.331 884.641 246.887 885.211 246.555C885.782 246.224 886.425 246.058 887.141 246.058Z" fill="white" fill-opacity="0.7"/>
<path opacity="0.5" d="M703.637 235.866C689.855 214.953 661.964 209.054 641.341 222.691C620.718 236.327 615.172 264.334 628.953 285.247C642.735 306.159 670.626 312.058 691.249 298.422C711.872 284.786 717.418 256.778 703.637 235.866Z" fill="#FF8226"/>
<path d="M667.409 274.754C679.327 274.754 688.988 265.208 688.988 253.433C688.988 241.658 679.327 232.112 667.409 232.112C655.492 232.112 645.831 241.658 645.831 253.433C645.831 265.208 655.492 274.754 667.409 274.754Z" fill="#FA1F6F"/>
<path d="M667.41 291.112L650.239 266.319H684.565L667.41 291.112Z" fill="#FA1F6F"/>
<path d="M681.126 253.428C681.126 260.917 674.991 266.979 667.411 266.979C659.831 266.979 653.695 260.917 653.695 253.428C653.695 245.938 659.831 239.876 667.411 239.876C674.976 239.891 681.126 245.953 681.126 253.428Z" fill="white"/>
</svg>
