<?xml version="1.0" encoding="utf-8"?>
<!-- Generator: Adobe Illustrator 21.0.0, SVG Export Plug-In . SVG Version: 6.00 Build 0)  -->
<svg version="1.1" id="Capa_1" xmlns="http://www.w3.org/2000/svg" xmlns:xlink="http://www.w3.org/1999/xlink" x="0px" y="0px"
	 viewBox="0 0 60 60" style="enable-background:new 0 0 60 60;" xml:space="preserve">
<style type="text/css">
	.st0{fill:#993E00;}
</style>
<path class="st0" d="M40.6,19.4c-5.9-5.9-15.4-5.9-21.2,0c-5.9,5.9-5.9,15.4,0,21.2C22.3,43.5,26.2,45,30,45s7.7-1.5,10.6-4.4
	C46.5,34.8,46.5,25.2,40.6,19.4z M36.2,34.4c0.5,0.5,0.5,1.3,0,1.8c-0.2,0.2-0.6,0.4-0.9,0.4c-0.3,0-0.6-0.1-0.9-0.4L30,31.8
	l-4.4,4.4c-0.2,0.2-0.6,0.4-0.9,0.4s-0.6-0.1-0.9-0.4c-0.5-0.5-0.5-1.3,0-1.8l4.4-4.4l-4.4-4.4c-0.5-0.5-0.5-1.3,0-1.8
	s1.3-0.5,1.8,0l4.4,4.4l4.4-4.4c0.5-0.5,1.3-0.5,1.8,0s0.5,1.3,0,1.8L31.8,30L36.2,34.4z"/>
</svg>
