<?xml version="1.0" encoding="utf-8"?>
<!-- Generator: Adobe Illustrator 21.0.0, SVG Export Plug-In . SVG Version: 6.00 Build 0)  -->
<svg version="1.1" id="Capa_1" xmlns="http://www.w3.org/2000/svg" xmlns:xlink="http://www.w3.org/1999/xlink" x="0px" y="0px"
	 viewBox="0 0 60 60" style="enable-background:new 0 0 60 60;" xml:space="preserve">
<style type="text/css">
	.st0{fill:#007F89;}
</style>
<path class="st0" d="M50.1,16.9c-1.6,0.7-3.1,1.1-4.9,1.4c1.7-1.1,3.1-2.7,3.6-4.8c-1.6,1.1-3.5,1.8-5.4,2.1
	C42,14.1,39.9,13,37.5,13c-4.7,0-8.3,3.9-8.3,8.6c0,0.7,0,1.3,0.2,2c-6.9-0.4-13.2-3.8-17.4-9.1c-0.7,1.3-1.2,2.7-1.2,4.3
	c0,3,1.6,5.7,3.8,7.2c-1.4,0-2.6-0.4-3.8-1.1V25c0,4.1,3,7.7,6.8,8.4c-0.7,0.2-1.4,0.4-2.3,0.4c-0.5,0-1,0-1.6-0.2
	c1,3.4,4.2,5.9,7.8,6.1c-3,2.3-6.4,3.8-10.4,3.8c-0.7,0-1.4,0-2.1-0.2c3.6,2.5,8.2,3.9,12.8,3.9c15.4,0,24-13.2,24-24.7v-1.1
	C47.5,20.2,48.9,18.7,50.1,16.9z"/>
</svg>
