<?xml version="1.0" encoding="utf-8"?>
<!-- Generator: Adobe Illustrator 21.0.0, SVG Export Plug-In . SVG Version: 6.00 Build 0)  -->
<svg version="1.1" id="Capa_1" xmlns="http://www.w3.org/2000/svg" xmlns:xlink="http://www.w3.org/1999/xlink" x="0px" y="0px"
	 viewBox="0 0 60 60" style="enable-background:new 0 0 60 60;" xml:space="preserve">
<style type="text/css">
	.st0{fill:#FA1F6F;}
</style>
<path class="st0" d="M18.3,50c0.5,0,1,0.1,1.4,0.4s0.7,0.6,0.9,1.1c0.2,0.5,0.3,1,0.3,1.6s-0.1,1.1-0.3,1.6c-0.2,0.4-0.5,0.8-0.9,1
	s-0.8,0.4-1.4,0.4c-0.5,0-0.9-0.1-1.2-0.3c-0.3-0.2-0.6-0.5-0.8-0.9v2.8c0,0.1,0,0.3-0.1,0.3c-0.1,0.1-0.2,0.1-0.3,0.1
	c-0.2,0-0.3,0-0.4-0.1c-0.1-0.1-0.1-0.2-0.1-0.3v-7.2c0-0.1,0-0.3,0.1-0.3c0.1-0.1,0.2-0.1,0.4-0.1s0.3,0,0.3,0.1
	c0.1,0.1,0.1,0.2,0.1,0.3v0.6c0.2-0.4,0.4-0.7,0.8-0.9C17.4,50.1,17.8,50,18.3,50z M18.1,55.3c0.6,0,1-0.2,1.3-0.6
	c0.3-0.4,0.5-0.9,0.5-1.6c0-0.7-0.2-1.3-0.5-1.6c-0.3-0.4-0.8-0.6-1.3-0.6c-0.6,0-1,0.2-1.3,0.6c-0.3,0.4-0.5,0.9-0.5,1.6
	c0,0.7,0.2,1.3,0.5,1.7C17.1,55.1,17.5,55.3,18.1,55.3z M24.7,50c1.5,0,2.2,0.8,2.2,2.3v3.3c0,0.1,0,0.3-0.1,0.3
	C26.7,56,26.6,56,26.5,56s-0.3,0-0.3-0.1C26,55.8,26,55.7,26,55.6V55c-0.2,0.3-0.4,0.6-0.7,0.8c-0.3,0.2-0.7,0.3-1.1,0.3
	s-0.7-0.1-1-0.2c-0.3-0.2-0.6-0.4-0.7-0.6s-0.3-0.6-0.3-0.9c0-0.4,0.1-0.8,0.3-1c0.2-0.2,0.6-0.4,1.1-0.5s1.2-0.2,2.1-0.2H26v-0.4
	c0-0.5-0.1-0.8-0.3-1.1c-0.2-0.2-0.5-0.3-0.9-0.3c-0.5,0-1.1,0.1-1.7,0.4c-0.2,0.1-0.4,0.2-0.5,0.2s-0.2,0-0.2-0.1
	c-0.1-0.1-0.1-0.2-0.1-0.3s0-0.2,0.1-0.3s0.2-0.2,0.3-0.3c0.3-0.2,0.6-0.3,0.9-0.4C24,50.1,24.4,50,24.7,50z M24.3,55.3
	c0.5,0,0.9-0.2,1.2-0.5c0.3-0.3,0.5-0.7,0.5-1.3v-0.3h-0.2c-0.7,0-1.2,0-1.6,0.1s-0.6,0.2-0.8,0.3c-0.2,0.1-0.2,0.3-0.2,0.6
	s0.1,0.6,0.3,0.8C23.7,55.2,24,55.3,24.3,55.3z M30.7,56.1c-0.4,0-0.7,0-1.1-0.1c-0.3-0.1-0.6-0.2-0.9-0.4c-0.1-0.1-0.2-0.2-0.3-0.3
	c-0.1-0.1-0.1-0.2-0.1-0.3s0-0.2,0.1-0.3s0.1-0.1,0.2-0.1s0.2,0.1,0.4,0.2c0.2,0.1,0.5,0.3,0.7,0.3c0.2,0.1,0.5,0.1,0.9,0.1
	s0.8-0.1,1-0.2s0.4-0.4,0.4-0.7c0-0.2,0-0.3-0.1-0.4c-0.1-0.1-0.2-0.2-0.5-0.3c-0.2-0.1-0.5-0.2-0.9-0.3c-0.7-0.2-1.2-0.4-1.5-0.6
	c-0.3-0.3-0.5-0.6-0.5-1c0-0.3,0.1-0.6,0.3-0.9c0.2-0.3,0.5-0.5,0.8-0.6c0.3-0.2,0.7-0.2,1.2-0.2c0.3,0,0.6,0,0.9,0.1
	c0.3,0.1,0.6,0.2,0.8,0.3c0.3,0.2,0.4,0.4,0.4,0.6c0,0.1,0,0.2-0.1,0.3s-0.1,0.1-0.2,0.1c-0.1,0-0.2-0.1-0.4-0.2
	c-0.2-0.1-0.4-0.3-0.6-0.3c-0.2-0.1-0.4-0.1-0.7-0.1c-0.4,0-0.7,0.1-0.9,0.3c-0.2,0.2-0.3,0.4-0.3,0.7c0,0.2,0,0.3,0.1,0.4
	c0.1,0.1,0.2,0.2,0.4,0.3c0.2,0.1,0.5,0.2,0.9,0.2c0.5,0.1,1,0.3,1.3,0.4c0.3,0.1,0.5,0.3,0.6,0.5s0.2,0.5,0.2,0.8
	c0,0.5-0.2,0.9-0.6,1.2C31.9,55.9,31.4,56.1,30.7,56.1z M39,54.6c0.1,0,0.2,0,0.2,0.1c0.1,0.1,0.1,0.2,0.1,0.3
	c0,0.2-0.1,0.4-0.4,0.6c-0.3,0.2-0.6,0.3-0.9,0.4c-0.3,0.1-0.6,0.1-0.9,0.1c-0.9,0-1.6-0.3-2.1-0.8s-0.8-1.3-0.8-2.2
	c0-0.6,0.1-1.1,0.3-1.6s0.6-0.8,1-1.1s0.9-0.4,1.4-0.4c0.8,0,1.4,0.2,1.8,0.7c0.4,0.5,0.7,1.2,0.7,2c0,0.2,0,0.3-0.1,0.3
	c-0.1,0.1-0.2,0.1-0.3,0.1h-3.9c0.1,1.4,0.7,2.1,2,2.1c0.3,0,0.6,0,0.8-0.1s0.5-0.2,0.7-0.3C38.8,54.7,38.9,54.6,39,54.6z
	 M36.9,50.8c-0.5,0-0.9,0.2-1.2,0.5s-0.5,0.8-0.5,1.4h3.4c0-0.6-0.2-1-0.4-1.4C37.8,50.9,37.4,50.8,36.9,50.8z M43.2,56.1
	c-0.6,0-1-0.1-1.5-0.4c-0.4-0.2-0.7-0.6-1-1.1c-0.2-0.5-0.3-1-0.3-1.6s0.1-1.1,0.3-1.6s0.6-0.8,1-1.1c0.4-0.2,0.9-0.4,1.5-0.4
	s1,0.1,1.5,0.4c0.4,0.2,0.7,0.6,1,1.1c0.2,0.5,0.3,1,0.3,1.6s-0.1,1.1-0.3,1.6s-0.5,0.8-1,1.1C44.3,56,43.8,56.1,43.2,56.1z
	 M43.2,55.3c0.6,0,1-0.2,1.3-0.6c0.3-0.4,0.5-0.9,0.5-1.7c0-0.7-0.2-1.3-0.5-1.6c-0.3-0.4-0.8-0.6-1.3-0.6c-0.6,0-1,0.2-1.3,0.6
	c-0.3,0.4-0.5,0.9-0.5,1.6c0,0.7,0.2,1.3,0.5,1.7C42.2,55.1,42.6,55.3,43.2,55.3z"/>
<path class="st0" d="M30.4,21.4c1.8,0,3.3-1.5,3.3-3.4c0-1.9-1.5-3.4-3.3-3.4c-1.8,0-3.3,1.5-3.3,3.4C27.1,19.9,28.5,21.4,30.4,21.4
	z M26.9,26.2v19.7c0,1,0.7,1.8,1.6,1.8s1.6-0.7,1.6-1.8V34.8H31v11.2c0,1,0.7,1.8,1.6,1.8c1,0,1.6-0.7,1.6-1.8V26.5H35
	c0.5,0,0.8,0.7,0.8,0.8v6.4c0,0.7,0.5,1.2,1.1,1.2c0.7,0,1.2-0.5,1.2-1.2v-6.4c0-0.4-0.3-2-1.1-3.5c-0.7-1.1-1.9-1.4-2.9-1.5h-0.3
	c-0.4,0-0.8,0-0.8,0H27l-2.5-2c-0.4-0.3-0.7-1-0.7-1.4L23.3,13c0-0.4-0.4-0.7-0.7-0.7h-0.3c-0.4,0-0.5,0.4-0.5,0.7l0.3,7.8
	c0,0.4,0.4,1.1,0.5,1.4L26.9,26.2z"/>
</svg>
