<?xml version="1.0" encoding="utf-8"?>
<!-- Generator: Adobe Illustrator 21.0.0, SVG Export Plug-In . SVG Version: 6.00 Build 0)  -->
<svg version="1.1" id="Capa_1" xmlns="http://www.w3.org/2000/svg" xmlns:xlink="http://www.w3.org/1999/xlink" x="0px" y="0px"
	 viewBox="0 0 60 60" style="enable-background:new 0 0 60 60;" xml:space="preserve">
<style type="text/css">
	.st0{fill:#89003E;}
</style>
<path class="st0" d="M39.6,23c-1.6,0-3-1.4-3-3c0-1.6,1.4-3,3-3c1.6,0,3,1.4,3,3C42.3,21.8,41.1,23,39.6,23z M29.7,39.1
	c-4.9,0-8.9-4.1-8.9-9.1c0-5,4-9.1,8.9-9.1s8.9,4.1,8.9,9.1C38.5,35.2,34.5,39.1,29.7,39.1z M41.5,13H17.9c-2.8,0-4.9,2.3-4.9,5
	v24.3c0,2.9,2.3,5,4.9,5h23.6c2.6,0,4.9-2.3,4.9-5V18C46.3,15.3,44.1,13,41.5,13z"/>
<path class="st0" d="M39.6,20.9c0.4,0,0.7-0.3,0.7-0.7s-0.3-0.7-0.7-0.7s-0.7,0.3-0.7,0.7S39.2,20.9,39.6,20.9z"/>
<path class="st0" d="M29.7,37.3c3.8,0,6.9-3.2,6.9-7.2S33.5,23,29.7,23s-6.9,3.2-6.9,7.2S25.8,37.3,29.7,37.3z"/>
</svg>
