<?xml version="1.0" encoding="utf-8"?>
<!-- Generator: Adobe Illustrator 21.0.0, SVG Export Plug-In . SVG Version: 6.00 Build 0)  -->
<svg version="1.1" id="Capa_1" xmlns="http://www.w3.org/2000/svg" xmlns:xlink="http://www.w3.org/1999/xlink" x="0px" y="0px"
	 viewBox="0 0 60 60" style="enable-background:new 0 0 60 60;" xml:space="preserve">
<style type="text/css">
	.st0{fill:#1D3556;}
</style>
<path class="st0" d="M38.4,13H34c-4.9,0-8,3.2-8,8.4v3.9h-4.3c-0.3,0-0.7,0.4-0.7,0.7v5.5c0,0.4,0.3,0.7,0.7,0.7H26v14.1
	c0,0.4,0.3,0.7,0.7,0.7h5.6c0.3,0,0.7-0.4,0.7-0.7v-14h5c0.3,0,0.7-0.4,0.7-0.7v-5.5c0-0.2,0-0.4-0.2-0.5c-0.2-0.2-0.3-0.2-0.5-0.2
	h-5V22c0-1.6,0.3-2.3,2.4-2.3h3c0.3,0,0.7-0.4,0.7-0.7v-5.2C39.1,13.4,38.7,13,38.4,13z"/>
</svg>
