<?xml version="1.0" encoding="utf-8"?>
<!-- Generator: Adobe Illustrator 21.0.0, SVG Export Plug-In . SVG Version: 6.00 Build 0)  -->
<svg version="1.1" id="Capa_1" xmlns="http://www.w3.org/2000/svg" xmlns:xlink="http://www.w3.org/1999/xlink" x="0px" y="0px"
	 viewBox="0 0 60 60" style="enable-background:new 0 0 60 60;" xml:space="preserve">
<style type="text/css">
	.st0{fill:#FA1F6F;}
</style>
<path class="st0" d="M13.7,55.3c0.3,0,0.4,0.2,0.4,0.4c0,0.1-0.1,0.2-0.2,0.3c-0.1,0.1-0.2,0.1-0.4,0.1h-0.3c-0.6,0-1.1-0.2-1.4-0.6
	c-0.3-0.3-0.5-0.8-0.5-1.5v-3h-0.8c-0.1,0-0.2,0-0.3-0.1s-0.1-0.2-0.1-0.3s0-0.2,0.1-0.3s0.2-0.1,0.3-0.1h0.8v-1.4
	c0-0.2,0-0.3,0.1-0.3c0.1-0.1,0.2-0.1,0.4-0.1c0.1,0,0.3,0,0.3,0.1c0.1,0.1,0.1,0.2,0.1,0.3v1.4h1.3c0.1,0,0.2,0,0.3,0.1
	s0.1,0.2,0.1,0.3s0,0.2-0.1,0.3S13.6,51,13.5,51h-1.3v3c0,0.4,0.1,0.8,0.3,1s0.5,0.3,0.8,0.3H13.7z M18,50c0.3,0,0.5,0.1,0.5,0.4
	c0,0.1,0,0.2-0.1,0.3s-0.2,0.1-0.4,0.1h-0.4c-0.5,0-0.9,0.2-1.2,0.6c-0.3,0.3-0.4,0.7-0.4,1.2v2.9c0,0.2,0,0.3-0.1,0.4
	C15.8,56,15.7,56,15.6,56s-0.3,0-0.4-0.1c-0.1-0.1-0.1-0.2-0.1-0.4v-5.1c0-0.2,0-0.3,0.1-0.3c0.1-0.1,0.2-0.1,0.3-0.1s0.2,0,0.3,0.1
	s0.1,0.2,0.1,0.3v0.7c0.2-0.4,0.4-0.6,0.7-0.8s0.7-0.3,1.1-0.3L18,50z M21.6,50c1.5,0,2.2,0.8,2.2,2.3v3.3c0,0.1,0,0.3-0.1,0.3
	C23.6,56,23.5,56,23.4,56s-0.3,0-0.3-0.1C23,55.8,23,55.7,23,55.6V55c-0.2,0.3-0.4,0.6-0.7,0.8c-0.3,0.2-0.7,0.3-1.1,0.3
	s-0.7-0.1-1-0.2c-0.3-0.2-0.6-0.4-0.7-0.6s-0.5-0.7-0.5-1c0-0.4,0.1-0.8,0.3-1c0.2-0.2,0.6-0.4,1.1-0.5s1.2-0.2,2.1-0.2h0.3v-0.4
	c0-0.5-0.1-0.8-0.3-1.1c-0.2-0.2-0.5-0.3-0.9-0.3c-0.5,0-1.1,0.1-1.7,0.4c-0.2,0.1-0.4,0.2-0.5,0.2s-0.2,0-0.2-0.1
	c-0.1-0.1-0.1-0.2-0.1-0.3s0-0.2,0.1-0.3s0.2-0.2,0.3-0.3c0.3-0.2,0.6-0.3,0.9-0.4C20.9,50.1,21.3,50,21.6,50z M21.2,55.3
	c0.5,0,0.9-0.2,1.2-0.5c0.3-0.3,0.5-0.7,0.5-1.3v-0.3h-0.2c-0.7,0-1.2,0-1.6,0.1s-0.6,0.2-0.8,0.3C20.1,53.8,20,54,20,54.2
	c0,0.3,0.1,0.6,0.3,0.8C20.6,55.2,20.9,55.3,21.2,55.3z M21.9,49.4c-0.1,0-0.1,0.1-0.2,0.1s-0.1,0-0.2-0.1s-0.1-0.1-0.1-0.2
	c0-0.1,0-0.1,0.1-0.2l1.4-1.8c0.1-0.2,0.3-0.3,0.5-0.3c0.1,0,0.2,0,0.3,0.1c0.1,0.1,0.1,0.2,0.1,0.3c0,0.2-0.1,0.3-0.2,0.5
	L21.9,49.4z M28.6,50c1.4,0,2.1,0.8,2.1,2.3v3.3c0,0.2,0,0.3-0.1,0.4c-0.1,0.1-0.2,0.1-0.3,0.1s-0.3,0-0.4-0.1s-0.1-0.2-0.1-0.4
	v-3.2c0-0.5-0.1-0.9-0.3-1.2c-0.2-0.2-0.5-0.4-1-0.4s-1,0.2-1.3,0.5s-0.5,0.8-0.5,1.3v2.9c0,0.2,0,0.3-0.1,0.4
	C26.5,56,26.4,56,26.3,56s-0.3,0-0.4-0.1s-0.1-0.2-0.1-0.4v-5.1c0-0.1,0-0.3,0.1-0.3C26,50,26.1,50,26.3,50c0.1,0,0.3,0,0.3,0.1
	c0.1,0.1,0.1,0.2,0.1,0.3V51c0.2-0.4,0.5-0.6,0.8-0.8C27.7,50.1,28.1,50,28.6,50z M34.4,56.1c-0.4,0-0.7,0-1.1-0.1
	c-0.3-0.1-0.6-0.2-0.9-0.4c-0.1-0.1-0.2-0.2-0.3-0.3S32,55.1,32,55s0-0.2,0.1-0.3s0.1-0.1,0.2-0.1c0.1,0,0.2,0.1,0.4,0.2
	c0.2,0.1,0.5,0.3,0.7,0.3c0.2,0.1,0.5,0.1,0.9,0.1s0.8-0.1,1-0.2s0.4-0.4,0.4-0.7c0-0.2,0-0.3-0.1-0.4c-0.1-0.1-0.2-0.2-0.5-0.3
	c-0.2-0.1-0.5-0.2-0.9-0.3c-0.7-0.2-1.2-0.4-1.5-0.6s-0.5-0.6-0.5-1c0-0.3,0.1-0.6,0.3-0.9c0.2-0.3,0.5-0.5,0.8-0.6
	C33.6,50,34,50,34.5,50c0.3,0,0.6,0,0.9,0.1c0.3,0.1,0.6,0.2,0.8,0.3c0.3,0.2,0.4,0.4,0.4,0.6c0,0.1,0,0.2-0.1,0.3s-0.1,0.1-0.2,0.1
	c-0.1,0-0.2-0.1-0.4-0.2c-0.2-0.1-0.4-0.3-0.6-0.3c-0.2-0.1-0.4-0.1-0.7-0.1c-0.4,0-0.7,0.1-0.9,0.3s-0.3,0.4-0.3,0.7
	c0,0.2,0,0.3,0.1,0.4c0.1,0.1,0.2,0.2,0.4,0.3s0.5,0.2,0.9,0.2c0.5,0.1,1,0.3,1.3,0.4c0.3,0.1,0.5,0.3,0.6,0.5s0.2,0.5,0.2,0.8
	c0,0.5-0.2,0.9-0.6,1.2C35.7,55.9,35.1,56.1,34.4,56.1z M38.7,56.1c-0.1,0-0.3,0-0.4-0.1c-0.1-0.1-0.1-0.2-0.1-0.4v-5.1
	c0-0.2,0-0.3,0.1-0.3c0.1-0.1,0.2-0.1,0.4-0.1s0.3,0,0.3,0.1c0.1,0.1,0.1,0.2,0.1,0.3v5.1c0,0.2,0,0.3-0.1,0.4
	C38.9,56,38.8,56.1,38.7,56.1z M38.7,48.8c-0.2,0-0.3-0.1-0.5-0.2c-0.1-0.1-0.2-0.3-0.2-0.4c0-0.2,0.1-0.3,0.2-0.4
	c0.1-0.1,0.3-0.2,0.5-0.2s0.3,0.1,0.5,0.2c0.1,0.1,0.2,0.3,0.2,0.4c0,0.2-0.1,0.3-0.2,0.4C39,48.7,38.9,48.8,38.7,48.8z M43.8,55.3
	c0.3,0,0.4,0.2,0.4,0.4c0,0.1-0.1,0.2-0.2,0.3c-0.1,0.1-0.2,0.1-0.4,0.1h-0.3c-0.6,0-1.1-0.2-1.4-0.6c-0.3-0.3-0.5-0.8-0.5-1.5v-3
	h-0.8c-0.1,0-0.2,0-0.3-0.1s-0.1-0.2-0.1-0.3s0-0.2,0.1-0.3s0.2-0.1,0.3-0.1h0.8v-1.4c0-0.2,0-0.3,0.1-0.3c0.1-0.1,0.2-0.1,0.4-0.1
	c0.1,0,0.3,0,0.3,0.1c0.1,0.1,0.1,0.2,0.1,0.3v1.4h1.3c0.1,0,0.2,0,0.3,0.1s0.1,0.2,0.1,0.3s0,0.2-0.1,0.3S43.7,51,43.6,51h-1.3v3
	c0,0.4,0.1,0.8,0.3,1s0.5,0.3,0.8,0.3H43.8z M47.6,56.1c-0.6,0-1-0.1-1.5-0.4c-0.4-0.2-0.7-0.6-1-1.1c-0.2-0.5-0.3-1-0.3-1.6
	s0.1-1.1,0.3-1.6s0.6-0.8,1-1.1c0.4-0.2,0.9-0.4,1.5-0.4s1,0.1,1.5,0.4c0.4,0.2,0.7,0.6,1,1.1c0.2,0.5,0.3,1,0.3,1.6
	s-0.1,1.1-0.3,1.6s-0.5,0.8-1,1.1C48.6,56,48.1,56.1,47.6,56.1z M47.6,55.3c0.6,0,1-0.2,1.3-0.6c0.3-0.4,0.5-0.9,0.5-1.7
	c0-0.7-0.2-1.3-0.5-1.6c-0.3-0.4-0.8-0.6-1.3-0.6c-0.6,0-1,0.2-1.3,0.6c-0.3,0.4-0.5,0.9-0.5,1.6c0,0.7,0.2,1.3,0.5,1.7
	C46.6,55.1,47,55.3,47.6,55.3z"/>
<g>
	<rect x="17.8" y="43.2" class="st0" width="4.9" height="1.8"/>
	<rect x="17.8" y="43.2" class="st0" width="4.9" height="1.8"/>
</g>
<g>
	<rect x="37.3" y="43.2" class="st0" width="4.9" height="1.8"/>
	<rect x="37.3" y="43.2" class="st0" width="4.9" height="1.8"/>
</g>
<g>
	<path class="st0" d="M39,15.1H21c-1.9,0-3.3,1.5-3.3,3.3v20.8c0,1.8,1.5,3.3,3.3,3.3H39c1.8,0,3.3-1.5,3.3-3.3V18.3
		C42.2,16.6,40.7,15.1,39,15.1z M21.9,39.1c-1,0-1.6-0.8-1.6-1.8c0-1,0.7-1.8,1.6-1.8s1.6,0.8,1.6,1.8
		C23.5,38.3,22.8,39.1,21.9,39.1z M29.2,33.3H21c-1,0-1.6-0.8-1.6-1.6v-8.4c0-1.4,1.1-2.4,2.4-2.4h7.3
		C29.2,20.8,29.2,33.3,29.2,33.3z M38.1,39.1c-1,0-1.6-0.8-1.6-1.8c0-1,0.7-1.8,1.6-1.8c1,0,1.6,0.8,1.6,1.8
		C39.8,38.3,39.1,39.1,38.1,39.1z M40.6,31.8c0,1-0.7,1.6-1.6,1.6h-8.1V20.9h7.3c1.4,0,2.4,1.1,2.4,2.4V31.8z M40.7,19.1H19.4v-1.2
		c0-0.7,0.5-1.2,1.2-1.2h18.7c0.7,0,1.2,0.5,1.2,1.2L40.7,19.1L40.7,19.1z"/>
	<g>
		<path class="st0" d="M39,15.1H21c-1.9,0-3.3,1.5-3.3,3.3v20.8c0,1.8,1.5,3.3,3.3,3.3H39c1.8,0,3.3-1.5,3.3-3.3V18.3
			C42.2,16.6,40.7,15.1,39,15.1z M21.9,39.1c-1,0-1.6-0.8-1.6-1.8c0-1,0.7-1.8,1.6-1.8s1.6,0.8,1.6,1.8
			C23.5,38.3,22.8,39.1,21.9,39.1z M29.2,33.3H21c-1,0-1.6-0.8-1.6-1.6v-8.4c0-1.4,1.1-2.4,2.4-2.4h7.3
			C29.2,20.8,29.2,33.3,29.2,33.3z M38.1,39.1c-1,0-1.6-0.8-1.6-1.8c0-1,0.7-1.8,1.6-1.8c1,0,1.6,0.8,1.6,1.8
			C39.8,38.3,39.1,39.1,38.1,39.1z M40.6,31.8c0,1-0.7,1.6-1.6,1.6h-8.1V20.9h7.3c1.4,0,2.4,1.1,2.4,2.4V31.8z M40.7,19.1H19.4v-1.2
			c0-0.7,0.5-1.2,1.2-1.2h18.7c0.7,0,1.2,0.5,1.2,1.2L40.7,19.1L40.7,19.1z"/>
	</g>
</g>
</svg>
