<?xml version="1.0" encoding="utf-8"?>
<!-- Generator: Adobe Illustrator 21.0.0, SVG Export Plug-In . SVG Version: 6.00 Build 0)  -->
<svg version="1.1" id="Capa_1" xmlns="http://www.w3.org/2000/svg" xmlns:xlink="http://www.w3.org/1999/xlink" x="0px" y="0px"
	 viewBox="0 0 18 11" style="enable-background:new 0 0 18 11;" xml:space="preserve">
<style type="text/css">
	.st0{fill:#2B294E;}
</style>
<g>
	<path class="st0" d="M17.7,5.1c-2.3-3-5.4-4.8-8.7-4.8S2.6,2.1,0.3,5.1c-0.2,0.3-0.2,0.6,0,0.8c2.3,3,5.3,4.8,8.7,4.8
		c3.3,0,6.4-1.8,8.7-4.8C17.9,5.6,17.9,5.3,17.7,5.1z M9.3,9.2c-2.2,0.2-4-1.7-4-4c0.1-1.8,1.6-3.3,3.4-3.4c2.2-0.2,4,1.7,4,4
		C12.6,7.6,11.1,9.1,9.3,9.2z"/>
</g>
<path class="st0" d="M9.1,7.2C7.8,7.3,6.9,6.3,7,5.1c0.1-1,0.9-1.8,1.8-1.8C10,3.2,11,4.1,10.9,5.4C10.8,6.3,10,7.2,9.1,7.2z"/>
</svg>
