<?xml version="1.0" encoding="utf-8"?>
<!-- Generator: Adobe Illustrator 21.0.0, SVG Export Plug-In . SVG Version: 6.00 Build 0)  -->
<svg version="1.1" id="Capa_1" xmlns="http://www.w3.org/2000/svg" xmlns:xlink="http://www.w3.org/1999/xlink" x="0px" y="0px"
	 viewBox="0 0 60 60" style="enable-background:new 0 0 60 60;" xml:space="preserve">
<style type="text/css">
	.st0{fill:#2B294E;}
</style>
<path class="st0" d="M13.7,55.3c0.3,0,0.4,0.2,0.4,0.4c0,0.1-0.1,0.2-0.2,0.3c-0.1,0.1-0.2,0.1-0.4,0.1l-0.3,0
	c-0.6,0-1.1-0.2-1.4-0.6c-0.3-0.3-0.5-0.8-0.5-1.5v-3h-0.8c-0.1,0-0.2,0-0.3-0.1c-0.1-0.1-0.1-0.2-0.1-0.3c0-0.1,0-0.2,0.1-0.3
	c0.1-0.1,0.2-0.1,0.3-0.1h0.8v-1.4c0-0.2,0-0.3,0.1-0.3c0.1-0.1,0.2-0.1,0.4-0.1c0.1,0,0.3,0,0.3,0.1c0.1,0.1,0.1,0.2,0.1,0.3v1.4
	h1.3c0.1,0,0.2,0,0.3,0.1c0.1,0.1,0.1,0.2,0.1,0.3c0,0.1,0,0.2-0.1,0.3c-0.1,0.1-0.2,0.1-0.3,0.1h-1.3V54c0,0.4,0.1,0.8,0.3,1
	c0.2,0.2,0.5,0.3,0.8,0.3L13.7,55.3z M18,50c0.3,0,0.5,0.1,0.5,0.4c0,0.1,0,0.2-0.1,0.3c-0.1,0.1-0.2,0.1-0.4,0.1l-0.4,0
	c-0.5,0-0.9,0.2-1.2,0.6c-0.3,0.3-0.4,0.7-0.4,1.2v2.9c0,0.2,0,0.3-0.1,0.4c-0.1,0.1-0.2,0.1-0.3,0.1s-0.3,0-0.4-0.1
	c-0.1-0.1-0.1-0.2-0.1-0.4v-5.1c0-0.2,0-0.3,0.1-0.3c0.1-0.1,0.2-0.1,0.3-0.1c0.1,0,0.2,0,0.3,0.1c0.1,0.1,0.1,0.2,0.1,0.3v0.7
	c0.2-0.4,0.4-0.6,0.7-0.8c0.3-0.2,0.7-0.3,1.1-0.3L18,50z M21.6,50c1.5,0,2.2,0.8,2.2,2.3v3.3c0,0.1,0,0.3-0.1,0.3
	c-0.1,0.1-0.2,0.1-0.3,0.1c-0.1,0-0.3,0-0.3-0.1c-0.1-0.1-0.1-0.2-0.1-0.3V55c-0.2,0.3-0.4,0.6-0.7,0.8c-0.3,0.2-0.7,0.3-1.1,0.3
	c-0.4,0-0.7-0.1-1-0.2c-0.3-0.2-0.6-0.4-0.7-0.6S19,54.6,19,54.3c0-0.4,0.1-0.8,0.3-1c0.2-0.2,0.6-0.4,1.1-0.5
	c0.5-0.1,1.2-0.2,2.1-0.2h0.3v-0.4c0-0.5-0.1-0.8-0.3-1.1c-0.2-0.2-0.5-0.3-0.9-0.3c-0.5,0-1.1,0.1-1.7,0.4
	c-0.2,0.1-0.4,0.2-0.5,0.2c-0.1,0-0.2,0-0.2-0.1c-0.1-0.1-0.1-0.2-0.1-0.3c0-0.1,0-0.2,0.1-0.3c0.1-0.1,0.2-0.2,0.3-0.3
	c0.3-0.2,0.6-0.3,0.9-0.4C20.9,50.1,21.3,50,21.6,50z M21.2,55.3c0.5,0,0.9-0.2,1.2-0.5c0.3-0.3,0.5-0.7,0.5-1.3v-0.3h-0.2
	c-0.7,0-1.2,0-1.6,0.1c-0.4,0.1-0.6,0.2-0.8,0.3C20.1,53.8,20,54,20,54.2c0,0.3,0.1,0.6,0.3,0.8C20.6,55.2,20.9,55.3,21.2,55.3z
	 M21.9,49.4c-0.1,0-0.1,0.1-0.2,0.1c-0.1,0-0.1,0-0.2-0.1c-0.1-0.1-0.1-0.1-0.1-0.2c0-0.1,0-0.1,0.1-0.2l1.4-1.8
	c0.1-0.2,0.3-0.3,0.5-0.3c0.1,0,0.2,0,0.3,0.1c0.1,0.1,0.1,0.2,0.1,0.3c0,0.2-0.1,0.3-0.2,0.5L21.9,49.4z M28.6,50
	c1.4,0,2.1,0.8,2.1,2.3v3.3c0,0.2,0,0.3-0.1,0.4c-0.1,0.1-0.2,0.1-0.3,0.1s-0.3,0-0.4-0.1c-0.1-0.1-0.1-0.2-0.1-0.4v-3.2
	c0-0.5-0.1-0.9-0.3-1.2c-0.2-0.2-0.5-0.4-1-0.4c-0.5,0-1,0.2-1.3,0.5s-0.5,0.8-0.5,1.3v2.9c0,0.2,0,0.3-0.1,0.4
	c-0.1,0.1-0.2,0.1-0.3,0.1s-0.3,0-0.4-0.1c-0.1-0.1-0.1-0.2-0.1-0.4v-5.1c0-0.1,0-0.3,0.1-0.3c0.1-0.1,0.2-0.1,0.4-0.1
	c0.1,0,0.3,0,0.3,0.1c0.1,0.1,0.1,0.2,0.1,0.3v0.6c0.2-0.4,0.5-0.6,0.8-0.8C27.7,50.1,28.1,50,28.6,50z M34.4,56.1
	c-0.4,0-0.7,0-1.1-0.1c-0.3-0.1-0.6-0.2-0.9-0.4c-0.1-0.1-0.2-0.2-0.3-0.3c-0.1-0.1-0.1-0.2-0.1-0.3c0-0.1,0-0.2,0.1-0.3
	c0.1-0.1,0.1-0.1,0.2-0.1c0.1,0,0.2,0.1,0.4,0.2c0.2,0.1,0.5,0.3,0.7,0.3c0.2,0.1,0.5,0.1,0.9,0.1c0.4,0,0.8-0.1,1-0.2
	s0.4-0.4,0.4-0.7c0-0.2,0-0.3-0.1-0.4c-0.1-0.1-0.2-0.2-0.5-0.3c-0.2-0.1-0.5-0.2-0.9-0.3c-0.7-0.2-1.2-0.4-1.5-0.6s-0.5-0.6-0.5-1
	c0-0.3,0.1-0.6,0.3-0.9c0.2-0.3,0.5-0.5,0.8-0.6c0.3-0.2,0.7-0.2,1.2-0.2c0.3,0,0.6,0,0.9,0.1c0.3,0.1,0.6,0.2,0.8,0.3
	c0.3,0.2,0.4,0.4,0.4,0.6c0,0.1,0,0.2-0.1,0.3c-0.1,0.1-0.1,0.1-0.2,0.1c-0.1,0-0.2-0.1-0.4-0.2c-0.2-0.1-0.4-0.3-0.6-0.3
	c-0.2-0.1-0.4-0.1-0.7-0.1c-0.4,0-0.7,0.1-0.9,0.3c-0.2,0.2-0.3,0.4-0.3,0.7c0,0.2,0,0.3,0.1,0.4c0.1,0.1,0.2,0.2,0.4,0.3
	c0.2,0.1,0.5,0.2,0.9,0.2c0.5,0.1,1,0.3,1.3,0.4c0.3,0.1,0.5,0.3,0.6,0.5s0.2,0.5,0.2,0.8c0,0.5-0.2,0.9-0.6,1.2
	C35.7,55.9,35.1,56.1,34.4,56.1z M38.7,56.1c-0.1,0-0.3,0-0.4-0.1c-0.1-0.1-0.1-0.2-0.1-0.4v-5.1c0-0.2,0-0.3,0.1-0.3
	c0.1-0.1,0.2-0.1,0.4-0.1s0.3,0,0.3,0.1c0.1,0.1,0.1,0.2,0.1,0.3v5.1c0,0.2,0,0.3-0.1,0.4C38.9,56,38.8,56.1,38.7,56.1z M38.7,48.8
	c-0.2,0-0.3-0.1-0.5-0.2c-0.1-0.1-0.2-0.3-0.2-0.4c0-0.2,0.1-0.3,0.2-0.4c0.1-0.1,0.3-0.2,0.5-0.2s0.3,0.1,0.5,0.2
	c0.1,0.1,0.2,0.3,0.2,0.4c0,0.2-0.1,0.3-0.2,0.4C39,48.7,38.9,48.8,38.7,48.8z M43.8,55.3c0.3,0,0.4,0.2,0.4,0.4
	c0,0.1-0.1,0.2-0.2,0.3c-0.1,0.1-0.2,0.1-0.4,0.1l-0.3,0c-0.6,0-1.1-0.2-1.4-0.6c-0.3-0.3-0.5-0.8-0.5-1.5v-3h-0.8
	c-0.1,0-0.2,0-0.3-0.1c-0.1-0.1-0.1-0.2-0.1-0.3c0-0.1,0-0.2,0.1-0.3c0.1-0.1,0.2-0.1,0.3-0.1h0.8v-1.4c0-0.2,0-0.3,0.1-0.3
	c0.1-0.1,0.2-0.1,0.4-0.1c0.1,0,0.3,0,0.3,0.1c0.1,0.1,0.1,0.2,0.1,0.3v1.4h1.3c0.1,0,0.2,0,0.3,0.1c0.1,0.1,0.1,0.2,0.1,0.3
	c0,0.1,0,0.2-0.1,0.3c-0.1,0.1-0.2,0.1-0.3,0.1h-1.3V54c0,0.4,0.1,0.8,0.3,1c0.2,0.2,0.5,0.3,0.8,0.3L43.8,55.3z M47.6,56.1
	c-0.6,0-1-0.1-1.5-0.4c-0.4-0.2-0.7-0.6-1-1.1c-0.2-0.5-0.3-1-0.3-1.6c0-0.6,0.1-1.1,0.3-1.6c0.2-0.5,0.6-0.8,1-1.1
	c0.4-0.2,0.9-0.4,1.5-0.4c0.6,0,1,0.1,1.5,0.4c0.4,0.2,0.7,0.6,1,1.1c0.2,0.5,0.3,1,0.3,1.6c0,0.6-0.1,1.1-0.3,1.6
	c-0.2,0.5-0.5,0.8-1,1.1C48.6,56,48.1,56.1,47.6,56.1z M47.6,55.3c0.6,0,1-0.2,1.3-0.6c0.3-0.4,0.5-0.9,0.5-1.7
	c0-0.7-0.2-1.3-0.5-1.6c-0.3-0.4-0.8-0.6-1.3-0.6c-0.6,0-1,0.2-1.3,0.6c-0.3,0.4-0.5,0.9-0.5,1.6c0,0.7,0.2,1.3,0.5,1.7
	C46.6,55.1,47,55.3,47.6,55.3z"/>
<g>
	<rect x="21" y="39.7" class="st0" width="3.6" height="1.3"/>
	<rect x="21" y="39.7" class="st0" width="3.6" height="1.3"/>
</g>
<g>
	<rect x="35.4" y="39.7" class="st0" width="3.6" height="1.3"/>
	<rect x="35.4" y="39.7" class="st0" width="3.6" height="1.3"/>
</g>
<g>
	<path class="st0" d="M36.6,19H23.4C22,19,21,20.1,21,21.4v15.3c0,1.3,1.1,2.4,2.4,2.4h13.2c1.3,0,2.4-1.1,2.4-2.4V21.4
		C39,20.1,37.9,19,36.6,19z M24,36.7c-0.7,0-1.2-0.6-1.2-1.3c0-0.7,0.5-1.3,1.2-1.3c0.7,0,1.2,0.6,1.2,1.3
		C25.2,36.1,24.7,36.7,24,36.7z M29.4,32.4h-6c-0.7,0-1.2-0.6-1.2-1.2V25c0-1,0.8-1.8,1.8-1.8h5.4V32.4z M36,36.7
		c-0.7,0-1.2-0.6-1.2-1.3c0-0.7,0.5-1.3,1.2-1.3c0.7,0,1.2,0.6,1.2,1.3C37.2,36.1,36.7,36.7,36,36.7z M37.8,31.3
		c0,0.7-0.5,1.2-1.2,1.2h-6v-9.2H36c1,0,1.8,0.8,1.8,1.8V31.3z M37.9,22H22.2v-0.9c0-0.5,0.4-0.9,0.9-0.9h13.8
		c0.5,0,0.9,0.4,0.9,0.9V22z"/>
	<g>
		<path class="st0" d="M36.6,19H23.4C22,19,21,20.1,21,21.4v15.3c0,1.3,1.1,2.4,2.4,2.4h13.2c1.3,0,2.4-1.1,2.4-2.4V21.4
			C39,20.1,37.9,19,36.6,19z M24,36.7c-0.7,0-1.2-0.6-1.2-1.3c0-0.7,0.5-1.3,1.2-1.3c0.7,0,1.2,0.6,1.2,1.3
			C25.2,36.1,24.7,36.7,24,36.7z M29.4,32.4h-6c-0.7,0-1.2-0.6-1.2-1.2V25c0-1,0.8-1.8,1.8-1.8h5.4V32.4z M36,36.7
			c-0.7,0-1.2-0.6-1.2-1.3c0-0.7,0.5-1.3,1.2-1.3c0.7,0,1.2,0.6,1.2,1.3C37.2,36.1,36.7,36.7,36,36.7z M37.8,31.3
			c0,0.7-0.5,1.2-1.2,1.2h-6v-9.2H36c1,0,1.8,0.8,1.8,1.8V31.3z M37.9,22H22.2v-0.9c0-0.5,0.4-0.9,0.9-0.9h13.8
			c0.5,0,0.9,0.4,0.9,0.9V22z"/>
	</g>
</g>
</svg>
