<?xml version="1.0" encoding="utf-8"?>
<!-- Generator: Adobe Illustrator 21.0.0, SVG Export Plug-In . SVG Version: 6.00 Build 0)  -->
<svg version="1.1" id="Capa_1" xmlns="http://www.w3.org/2000/svg" xmlns:xlink="http://www.w3.org/1999/xlink" x="0px" y="0px"
	 viewBox="0 0 60 60" style="enable-background:new 0 0 60 60;" xml:space="preserve">
<style type="text/css">
	.st0{fill:#FA1F6F;}
</style>
<path class="st0" d="M3.9,56.1c-0.5,0-1-0.1-1.5-0.4c-0.4-0.2-0.7-0.6-1-1.1c-0.2-0.5-0.3-1-0.3-1.6s0.1-1.1,0.3-1.6s0.6-0.8,1-1.1
	S3.4,50,4,50c0.3,0,0.6,0,0.9,0.1s0.6,0.2,0.8,0.4c0.1,0.1,0.2,0.2,0.3,0.3c0,0.1,0.1,0.2,0.1,0.3s0,0.2-0.1,0.3s-0.1,0.1-0.2,0.1
	s-0.1,0-0.2,0s-0.1-0.1-0.2-0.1l-0.1-0.1c-0.2-0.1-0.4-0.2-0.6-0.3S4.3,50.9,4,50.9c-0.6,0-1,0.2-1.4,0.6c-0.3,0.4-0.5,0.9-0.5,1.6
	c0,0.7,0.2,1.2,0.5,1.6C3,55.1,3.4,55.3,4,55.3c0.3,0,0.5,0,0.7-0.1s0.4-0.2,0.6-0.3c0.1-0.1,0.2-0.1,0.3-0.1c0.1,0,0.1-0.1,0.2-0.1
	s0.2,0,0.2,0.1c0.1,0.1,0.1,0.2,0.1,0.3s0,0.2-0.1,0.3s-0.2,0.2-0.3,0.3c-0.2,0.2-0.5,0.3-0.8,0.4C4.6,56,4.3,56.1,3.9,56.1z
	 M9.7,50c1.5,0,2.2,0.8,2.2,2.3v3.3c0,0.1,0,0.3-0.1,0.3C11.7,56,11.6,56,11.5,56s-0.3,0-0.3-0.1c-0.1-0.1-0.1-0.2-0.1-0.3V55
	c-0.2,0.3-0.4,0.6-0.7,0.8s-0.7,0.3-1.1,0.3c-0.4,0-0.7-0.1-1-0.2c-0.3-0.2-0.6-0.4-0.7-0.6s-0.3-0.6-0.3-0.9c0-0.4,0.1-0.8,0.3-1
	c0.2-0.2,0.6-0.4,1.1-0.5s1.2-0.2,2.1-0.2h0.3v-0.4c0-0.5-0.1-0.8-0.3-1.1c-0.2-0.2-0.5-0.3-0.9-0.3c-0.5,0-1.1,0.1-1.7,0.4
	c-0.2,0.1-0.4,0.2-0.5,0.2s-0.2,0-0.2-0.1c-0.1-0.1-0.1-0.2-0.1-0.3s0-0.2,0.1-0.3s0.2-0.2,0.3-0.3c0.3-0.2,0.6-0.3,0.9-0.4
	C8.9,50.1,9.3,50,9.7,50z M9.3,55.3c0.5,0,0.9-0.2,1.2-0.5s0.5-0.7,0.5-1.3v-0.3h-0.2c-0.7,0-1.2,0-1.6,0.1
	c-0.4,0.1-0.6,0.2-0.8,0.3s-0.2,0.3-0.2,0.6s0.1,0.6,0.3,0.8C8.6,55.2,8.9,55.3,9.3,55.3z M20.1,50c1.3,0,1.9,0.8,1.9,2.3v3.3
	c0,0.2,0,0.3-0.1,0.4c-0.1,0.1-0.2,0.1-0.3,0.1c-0.1,0-0.3,0-0.4-0.1s-0.1-0.2-0.1-0.4v-3.2c0-0.5-0.1-0.9-0.3-1.2
	c-0.2-0.2-0.5-0.4-0.9-0.4c-0.5,0-0.9,0.2-1.2,0.5s-0.4,0.8-0.4,1.3v2.9c0,0.2,0,0.3-0.1,0.4S18,56,17.9,56s-0.3,0-0.3-0.1
	c-0.1-0.1-0.1-0.2-0.1-0.4v-3.2c0-0.5-0.1-0.9-0.3-1.2c-0.2-0.2-0.5-0.4-0.9-0.4c-0.5,0-0.9,0.2-1.2,0.5s-0.4,0.8-0.4,1.3v2.9
	c0,0.2,0,0.3-0.1,0.4c-0.1,0.1-0.2,0.1-0.3,0.1s-0.3,0-0.4-0.1c-0.1-0.1-0.1-0.2-0.1-0.4v-5.1c0-0.1,0-0.3,0.1-0.3
	c0.1-0.1,0.2-0.1,0.4-0.1c0.1,0,0.2,0,0.3,0.1s0.1,0.2,0.1,0.3v0.6c0.2-0.3,0.4-0.6,0.7-0.8s0.7-0.3,1.1-0.3c0.9,0,1.5,0.4,1.8,1.2
	c0.2-0.4,0.4-0.6,0.8-0.8S19.7,50,20.1,50z M24.3,56.1c-0.1,0-0.3,0-0.4-0.1s-0.1-0.2-0.1-0.4v-5.1c0-0.2,0-0.3,0.1-0.3
	c0.1-0.1,0.2-0.1,0.4-0.1c0.1,0,0.3,0,0.3,0.1c0.1,0.1,0.1,0.2,0.1,0.3v5.1c0,0.2,0,0.3-0.1,0.4C24.6,56,24.5,56.1,24.3,56.1z
	 M24.3,48.8c-0.2,0-0.3-0.1-0.5-0.2c-0.1-0.1-0.2-0.3-0.2-0.4c0-0.2,0.1-0.3,0.2-0.4c0.1-0.1,0.3-0.2,0.5-0.2s0.3,0.1,0.5,0.2
	c0.1,0.1,0.2,0.3,0.2,0.4c0,0.2-0.1,0.3-0.2,0.4C24.7,48.7,24.5,48.8,24.3,48.8z M29.6,50c1.4,0,2.1,0.8,2.1,2.3v3.3
	c0,0.2,0,0.3-0.1,0.4c-0.1,0.1-0.2,0.1-0.3,0.1c-0.2,0-0.3,0-0.4-0.1s-0.1-0.2-0.1-0.4v-3.2c0-0.5-0.1-0.9-0.3-1.2
	c-0.2-0.2-0.5-0.4-1-0.4s-1,0.2-1.3,0.5s-0.5,0.8-0.5,1.3v2.9c0,0.2,0,0.3-0.1,0.4C27.5,56,27.4,56,27.3,56s-0.3,0-0.4-0.1
	s-0.1-0.2-0.1-0.4v-5.1c0-0.1,0-0.3,0.1-0.3C27,50,27.1,50,27.3,50c0.1,0,0.3,0,0.3,0.1c0.1,0.1,0.1,0.2,0.1,0.3V51
	c0.2-0.4,0.5-0.6,0.8-0.8C28.7,50.1,29.1,50,29.6,50z M35.8,50c1.5,0,2.2,0.8,2.2,2.3v3.3c0,0.1,0,0.3-0.1,0.3
	C37.8,56,37.7,56,37.6,56s-0.3,0-0.3-0.1c-0.1-0.1-0.1-0.2-0.1-0.3V55c-0.2,0.3-0.4,0.6-0.7,0.8s-0.7,0.3-1.1,0.3
	c-0.4,0-0.7-0.1-1-0.2c-0.3-0.2-0.6-0.4-0.7-0.6c-0.2-0.3-0.3-0.6-0.3-0.9c0-0.4,0.1-0.8,0.3-1s0.6-0.4,1.1-0.5s1.2-0.2,2.1-0.2h0.3
	v-0.4c0-0.5-0.1-0.8-0.3-1.1c-0.2-0.2-0.5-0.3-0.9-0.3c-0.5,0-1.1,0.1-1.7,0.4c-0.2,0.1-0.4,0.2-0.5,0.2s-0.2,0-0.2-0.1
	c-0.1-0.1-0.1-0.2-0.1-0.3s0-0.2,0.1-0.3s0.2-0.2,0.3-0.3c0.3-0.2,0.6-0.3,0.9-0.4C35.1,50.1,35.5,50,35.8,50z M35.4,55.3
	c0.5,0,0.9-0.2,1.2-0.5s0.5-0.7,0.5-1.3v-0.3h-0.2c-0.7,0-1.2,0-1.6,0.1c-0.4,0.1-0.6,0.2-0.8,0.3s-0.2,0.3-0.2,0.6s0.1,0.6,0.3,0.8
	C34.8,55.2,35.1,55.3,35.4,55.3z M42.8,50c1.4,0,2.1,0.8,2.1,2.3v3.3c0,0.2,0,0.3-0.1,0.4c-0.1,0.1-0.2,0.1-0.3,0.1
	c-0.2,0-0.3,0-0.4-0.1C44,55.9,44,55.8,44,55.6v-3.2c0-0.5-0.1-0.9-0.3-1.2c-0.2-0.2-0.5-0.4-1-0.4s-1,0.2-1.3,0.5s-0.5,0.8-0.5,1.3
	v2.9c0,0.2,0,0.3-0.1,0.4C40.7,56,40.6,56,40.5,56S40,56,40,55.9c-0.1-0.1-0.1-0.2-0.1-0.4v-5.1c0-0.1,0-0.3,0.1-0.3
	c0.1-0.1,0.2-0.1,0.4-0.1c0.1,0,0.3,0,0.3,0.1c0.1,0.1,0.1,0.2,0.1,0.3V51c0.2-0.4,0.5-0.6,0.8-0.8C41.9,50.1,42.3,50,42.8,50z
	 M51.3,47.5c0.2,0,0.3,0,0.4,0.1s0.1,0.2,0.1,0.3v7.6c0,0.1,0,0.3-0.1,0.3c-0.1,0.1-0.2,0.1-0.4,0.1s-0.3,0-0.4-0.1
	c-0.1-0.1-0.1-0.2-0.1-0.3v-0.6c-0.2,0.4-0.4,0.7-0.8,0.9c-0.3,0.2-0.7,0.3-1.2,0.3s-1-0.1-1.4-0.4c-0.4-0.3-0.7-0.6-0.9-1.1
	s-0.3-1-0.3-1.6s0.1-1.1,0.3-1.6s0.5-0.8,0.9-1.1c0.4-0.2,0.8-0.4,1.4-0.4c0.5,0,0.9,0.1,1.2,0.3s0.6,0.5,0.8,0.9v-3.2
	c0-0.1,0-0.3,0.1-0.3C51.1,47.5,51.2,47.5,51.3,47.5z M49.1,55.3c0.6,0,1-0.2,1.3-0.6c0.3-0.4,0.5-0.9,0.5-1.7
	c0-0.7-0.2-1.3-0.5-1.6c-0.3-0.4-0.7-0.6-1.3-0.6s-1,0.2-1.3,0.6c-0.3,0.4-0.5,0.9-0.5,1.6c0,0.7,0.2,1.3,0.5,1.7
	C48.1,55.1,48.5,55.3,49.1,55.3z M56,56.1c-0.6,0-1-0.1-1.5-0.4c-0.4-0.2-0.7-0.6-1-1.1c-0.2-0.5-0.3-1-0.3-1.6s0.1-1.1,0.3-1.6
	s0.6-0.8,1-1.1c0.5-0.2,1-0.3,1.5-0.3c0.6,0,1,0.1,1.5,0.4c0.4,0.2,0.7,0.6,1,1.1c0.2,0.5,0.3,1,0.3,1.6s-0.1,1.1-0.3,1.6
	s-0.5,0.8-1,1.1C57.1,56,56.6,56.1,56,56.1z M56,55.3c0.6,0,1-0.2,1.3-0.6c0.3-0.4,0.5-0.9,0.5-1.7c0-0.7-0.2-1.3-0.5-1.6
	C57,51,56.5,50.8,56,50.8s-1,0.2-1.3,0.6c-0.3,0.4-0.5,0.9-0.5,1.6c0,0.7,0.2,1.3,0.5,1.7S55.5,55.3,56,55.3z"/>
<path class="st0" d="M25.9,37.6c0,0.1,0,0.6-0.1,0.6L20.9,42c-0.9,0.7-0.9,1.6-0.3,2.3c0.6,0.9,1.8,1,2.6,0.3l5.4-4.5
	c0.4-0.3,0.7-0.9,0.7-1.5l0.1-2.5l-3.2-3.8L25.9,37.6z M40,27.9l-5.6-5.6l-0.1,3.5l3.8,3.8C39.3,31.2,41,29.2,40,27.9z M36.6,37.9
	c-0.1-0.4-0.3-1-0.6-1.3l-3.8-5.1V21c0-0.3,0.3-0.4,0-0.6l-3.7-1c-0.3-0.1-1-0.1-1.5,0l-5.9,3.8c-1.2,0.7-1.6,1.3-1.6,2.6v4
	c0,0.9,0.3,1.5,1,1.5c0.9,0,1-0.6,1-1.5v-3.4c0-0.6,1.3-1.2,1.8-1.6l2.5-1.8L25.8,29c0,0.6,0.1,1,0.4,1.6l6,7.2
	c0.1,0.3,0.3,0.4,0.3,0.9l1.8,7.8c0.1,0.7,0.9,1.3,1.6,1.3c1,0,1.8-1,1.6-1.9L36.6,37.9z M31.5,18c1.6,0.1,2.9-1,2.9-2.6
	c0.1-1.6-1-2.9-2.6-2.9c-1.6-0.1-2.9,1-2.9,2.6C28.7,16.5,30,17.8,31.5,18z"/>
</svg>
