<?xml version="1.0" encoding="utf-8"?>
<!-- Generator: Adobe Illustrator 21.0.0, SVG Export Plug-In . SVG Version: 6.00 Build 0)  -->
<svg version="1.1" id="Capa_1" xmlns="http://www.w3.org/2000/svg" xmlns:xlink="http://www.w3.org/1999/xlink" x="0px" y="0px"
	 viewBox="0 0 60 60" style="enable-background:new 0 0 60 60;" xml:space="preserve">
<style type="text/css">
	.st0{fill:#2B294E;}
</style>
<path class="st0" d="M3.9,56.1c-0.5,0-1-0.1-1.5-0.4c-0.4-0.2-0.7-0.6-1-1.1c-0.2-0.5-0.3-1-0.3-1.6c0-0.6,0.1-1.1,0.3-1.6
	c0.2-0.5,0.6-0.8,1-1.1S3.4,50,4,50c0.3,0,0.6,0,0.9,0.1c0.3,0.1,0.6,0.2,0.8,0.4c0.1,0.1,0.2,0.2,0.3,0.3C6,50.9,6.1,51,6.1,51.1
	s0,0.2-0.1,0.3c-0.1,0.1-0.1,0.1-0.2,0.1c-0.1,0-0.1,0-0.2,0c-0.1,0-0.1-0.1-0.2-0.1c0,0-0.1-0.1-0.1-0.1c-0.2-0.1-0.4-0.2-0.6-0.3
	c-0.2-0.1-0.4-0.1-0.7-0.1c-0.6,0-1,0.2-1.4,0.6c-0.3,0.4-0.5,0.9-0.5,1.6c0,0.7,0.2,1.2,0.5,1.6C3,55.1,3.4,55.3,4,55.3
	c0.3,0,0.5,0,0.7-0.1c0.2-0.1,0.4-0.2,0.6-0.3c0.1-0.1,0.2-0.1,0.3-0.1c0.1,0,0.1-0.1,0.2-0.1c0.1,0,0.2,0,0.2,0.1
	c0.1,0.1,0.1,0.2,0.1,0.3c0,0.1,0,0.2-0.1,0.3c-0.1,0.1-0.2,0.2-0.3,0.3c-0.2,0.2-0.5,0.3-0.8,0.4C4.6,56,4.3,56.1,3.9,56.1z
	 M9.7,50c1.5,0,2.2,0.8,2.2,2.3v3.3c0,0.1,0,0.3-0.1,0.3c-0.1,0.1-0.2,0.1-0.3,0.1s-0.3,0-0.3-0.1c-0.1-0.1-0.1-0.2-0.1-0.3V55
	c-0.2,0.3-0.4,0.6-0.7,0.8c-0.3,0.2-0.7,0.3-1.1,0.3c-0.4,0-0.7-0.1-1-0.2c-0.3-0.2-0.6-0.4-0.7-0.6s-0.3-0.6-0.3-0.9
	c0-0.4,0.1-0.8,0.3-1c0.2-0.2,0.6-0.4,1.1-0.5c0.5-0.1,1.2-0.2,2.1-0.2h0.3v-0.4c0-0.5-0.1-0.8-0.3-1.1c-0.2-0.2-0.5-0.3-0.9-0.3
	c-0.5,0-1.1,0.1-1.7,0.4c-0.2,0.1-0.4,0.2-0.5,0.2c-0.1,0-0.2,0-0.2-0.1c-0.1-0.1-0.1-0.2-0.1-0.3c0-0.1,0-0.2,0.1-0.3
	c0.1-0.1,0.2-0.2,0.3-0.3c0.3-0.2,0.6-0.3,0.9-0.4C8.9,50.1,9.3,50,9.7,50z M9.3,55.3c0.5,0,0.9-0.2,1.2-0.5
	c0.3-0.3,0.5-0.7,0.5-1.3v-0.3h-0.2c-0.7,0-1.2,0-1.6,0.1c-0.4,0.1-0.6,0.2-0.8,0.3c-0.2,0.1-0.2,0.3-0.2,0.6c0,0.3,0.1,0.6,0.3,0.8
	C8.6,55.2,8.9,55.3,9.3,55.3z M20.1,50c1.3,0,1.9,0.8,1.9,2.3v3.3c0,0.2,0,0.3-0.1,0.4c-0.1,0.1-0.2,0.1-0.3,0.1
	c-0.1,0-0.3,0-0.4-0.1c-0.1-0.1-0.1-0.2-0.1-0.4v-3.2c0-0.5-0.1-0.9-0.3-1.2c-0.2-0.2-0.5-0.4-0.9-0.4c-0.5,0-0.9,0.2-1.2,0.5
	s-0.4,0.8-0.4,1.3v2.9c0,0.2,0,0.3-0.1,0.4c-0.1,0.1-0.2,0.1-0.3,0.1c-0.1,0-0.3,0-0.3-0.1c-0.1-0.1-0.1-0.2-0.1-0.4v-3.2
	c0-0.5-0.1-0.9-0.3-1.2c-0.2-0.2-0.5-0.4-0.9-0.4c-0.5,0-0.9,0.2-1.2,0.5c-0.3,0.3-0.4,0.8-0.4,1.3v2.9c0,0.2,0,0.3-0.1,0.4
	c-0.1,0.1-0.2,0.1-0.3,0.1s-0.3,0-0.4-0.1c-0.1-0.1-0.1-0.2-0.1-0.4v-5.1c0-0.1,0-0.3,0.1-0.3c0.1-0.1,0.2-0.1,0.4-0.1
	c0.1,0,0.2,0,0.3,0.1c0.1,0.1,0.1,0.2,0.1,0.3v0.6c0.2-0.3,0.4-0.6,0.7-0.8c0.3-0.2,0.7-0.3,1.1-0.3c0.9,0,1.5,0.4,1.8,1.2
	c0.2-0.4,0.4-0.6,0.8-0.8S19.7,50,20.1,50z M24.3,56.1c-0.1,0-0.3,0-0.4-0.1c-0.1-0.1-0.1-0.2-0.1-0.4v-5.1c0-0.2,0-0.3,0.1-0.3
	c0.1-0.1,0.2-0.1,0.4-0.1c0.1,0,0.3,0,0.3,0.1c0.1,0.1,0.1,0.2,0.1,0.3v5.1c0,0.2,0,0.3-0.1,0.4C24.6,56,24.5,56.1,24.3,56.1z
	 M24.3,48.8c-0.2,0-0.3-0.1-0.5-0.2c-0.1-0.1-0.2-0.3-0.2-0.4c0-0.2,0.1-0.3,0.2-0.4c0.1-0.1,0.3-0.2,0.5-0.2c0.2,0,0.3,0.1,0.5,0.2
	c0.1,0.1,0.2,0.3,0.2,0.4c0,0.2-0.1,0.3-0.2,0.4C24.7,48.7,24.5,48.8,24.3,48.8z M29.6,50c1.4,0,2.1,0.8,2.1,2.3v3.3
	c0,0.2,0,0.3-0.1,0.4c-0.1,0.1-0.2,0.1-0.3,0.1c-0.2,0-0.3,0-0.4-0.1c-0.1-0.1-0.1-0.2-0.1-0.4v-3.2c0-0.5-0.1-0.9-0.3-1.2
	c-0.2-0.2-0.5-0.4-1-0.4c-0.5,0-1,0.2-1.3,0.5c-0.3,0.3-0.5,0.8-0.5,1.3v2.9c0,0.2,0,0.3-0.1,0.4c-0.1,0.1-0.2,0.1-0.3,0.1
	s-0.3,0-0.4-0.1c-0.1-0.1-0.1-0.2-0.1-0.4v-5.1c0-0.1,0-0.3,0.1-0.3c0.1-0.1,0.2-0.1,0.4-0.1c0.1,0,0.3,0,0.3,0.1
	c0.1,0.1,0.1,0.2,0.1,0.3v0.6c0.2-0.4,0.5-0.6,0.8-0.8C28.7,50.1,29.1,50,29.6,50z M35.8,50c1.5,0,2.2,0.8,2.2,2.3v3.3
	c0,0.1,0,0.3-0.1,0.3c-0.1,0.1-0.2,0.1-0.3,0.1c-0.1,0-0.3,0-0.3-0.1c-0.1-0.1-0.1-0.2-0.1-0.3V55c-0.2,0.3-0.4,0.6-0.7,0.8
	c-0.3,0.2-0.7,0.3-1.1,0.3c-0.4,0-0.7-0.1-1-0.2c-0.3-0.2-0.6-0.4-0.7-0.6c-0.2-0.3-0.3-0.6-0.3-0.9c0-0.4,0.1-0.8,0.3-1
	c0.2-0.2,0.6-0.4,1.1-0.5c0.5-0.1,1.2-0.2,2.1-0.2h0.3v-0.4c0-0.5-0.1-0.8-0.3-1.1c-0.2-0.2-0.5-0.3-0.9-0.3c-0.5,0-1.1,0.1-1.7,0.4
	c-0.2,0.1-0.4,0.2-0.5,0.2c-0.1,0-0.2,0-0.2-0.1c-0.1-0.1-0.1-0.2-0.1-0.3c0-0.1,0-0.2,0.1-0.3c0.1-0.1,0.2-0.2,0.3-0.3
	c0.3-0.2,0.6-0.3,0.9-0.4C35.1,50.1,35.5,50,35.8,50z M35.4,55.3c0.5,0,0.9-0.2,1.2-0.5c0.3-0.3,0.5-0.7,0.5-1.3v-0.3h-0.2
	c-0.7,0-1.2,0-1.6,0.1c-0.4,0.1-0.6,0.2-0.8,0.3c-0.2,0.1-0.2,0.3-0.2,0.6c0,0.3,0.1,0.6,0.3,0.8C34.8,55.2,35.1,55.3,35.4,55.3z
	 M42.8,50c1.4,0,2.1,0.8,2.1,2.3v3.3c0,0.2,0,0.3-0.1,0.4c-0.1,0.1-0.2,0.1-0.3,0.1c-0.2,0-0.3,0-0.4-0.1c-0.1-0.1-0.1-0.2-0.1-0.4
	v-3.2c0-0.5-0.1-0.9-0.3-1.2c-0.2-0.2-0.5-0.4-1-0.4c-0.5,0-1,0.2-1.3,0.5s-0.5,0.8-0.5,1.3v2.9c0,0.2,0,0.3-0.1,0.4
	c-0.1,0.1-0.2,0.1-0.3,0.1S40,56,40,55.9c-0.1-0.1-0.1-0.2-0.1-0.4v-5.1c0-0.1,0-0.3,0.1-0.3c0.1-0.1,0.2-0.1,0.4-0.1
	c0.1,0,0.3,0,0.3,0.1c0.1,0.1,0.1,0.2,0.1,0.3v0.6c0.2-0.4,0.5-0.6,0.8-0.8C41.9,50.1,42.3,50,42.8,50z M51.3,47.5
	c0.2,0,0.3,0,0.4,0.1s0.1,0.2,0.1,0.3v7.6c0,0.1,0,0.3-0.1,0.3c-0.1,0.1-0.2,0.1-0.4,0.1s-0.3,0-0.4-0.1c-0.1-0.1-0.1-0.2-0.1-0.3
	v-0.6c-0.2,0.4-0.4,0.7-0.8,0.9c-0.3,0.2-0.7,0.3-1.2,0.3c-0.5,0-1-0.1-1.4-0.4c-0.4-0.3-0.7-0.6-0.9-1.1c-0.2-0.5-0.3-1-0.3-1.6
	c0-0.6,0.1-1.1,0.3-1.6c0.2-0.5,0.5-0.8,0.9-1.1c0.4-0.2,0.8-0.4,1.4-0.4c0.5,0,0.9,0.1,1.2,0.3c0.3,0.2,0.6,0.5,0.8,0.9v-3.2
	c0-0.1,0-0.3,0.1-0.3C51.1,47.5,51.2,47.5,51.3,47.5z M49.1,55.3c0.6,0,1-0.2,1.3-0.6c0.3-0.4,0.5-0.9,0.5-1.7
	c0-0.7-0.2-1.3-0.5-1.6c-0.3-0.4-0.7-0.6-1.3-0.6c-0.6,0-1,0.2-1.3,0.6c-0.3,0.4-0.5,0.9-0.5,1.6c0,0.7,0.2,1.3,0.5,1.7
	C48.1,55.1,48.5,55.3,49.1,55.3z M56,56.1c-0.6,0-1-0.1-1.5-0.4c-0.4-0.2-0.7-0.6-1-1.1c-0.2-0.5-0.3-1-0.3-1.6
	c0-0.6,0.1-1.1,0.3-1.6c0.2-0.5,0.6-0.8,1-1.1C55,50.1,55.5,50,56,50c0.6,0,1,0.1,1.5,0.4c0.4,0.2,0.7,0.6,1,1.1
	c0.2,0.5,0.3,1,0.3,1.6c0,0.6-0.1,1.1-0.3,1.6c-0.2,0.5-0.5,0.8-1,1.1C57.1,56,56.6,56.1,56,56.1z M56,55.3c0.6,0,1-0.2,1.3-0.6
	c0.3-0.4,0.5-0.9,0.5-1.7c0-0.7-0.2-1.3-0.5-1.6c-0.3-0.4-0.8-0.6-1.3-0.6s-1,0.2-1.3,0.6c-0.3,0.4-0.5,0.9-0.5,1.6
	c0,0.7,0.2,1.3,0.5,1.7C55,55.1,55.5,55.3,56,55.3z"/>
<path class="st0" d="M27.2,35.2c0,0.1,0,0.4-0.1,0.4l-3.3,2.6c-0.6,0.5-0.6,1.1-0.2,1.6c0.4,0.6,1.2,0.7,1.8,0.2l3.7-3.1
	c0.3-0.2,0.5-0.6,0.5-1l0.1-1.7l-2.2-2.6L27.2,35.2z M36.8,28.6L33,24.8l-0.1,2.4l2.6,2.6C36.3,30.8,37.5,29.5,36.8,28.6z
	 M34.5,35.4c-0.1-0.3-0.2-0.7-0.4-0.9L31.5,31v-7.1c0-0.2,0.2-0.3,0-0.4l-2.5-0.7c-0.2-0.1-0.7-0.1-1,0l-4,2.6
	c-0.8,0.5-1.1,0.9-1.1,1.8v2.7c0,0.6,0.2,1,0.7,1c0.6,0,0.7-0.4,0.7-1v-2.3c0-0.4,0.9-0.8,1.2-1.1l1.7-1.2l-0.1,4
	c0,0.4,0.1,0.7,0.3,1.1l4.1,4.9c0.1,0.2,0.2,0.3,0.2,0.6l1.2,5.3c0.1,0.5,0.6,0.9,1.1,0.9c0.7,0,1.2-0.7,1.1-1.3L34.5,35.4z
	 M31,21.8c1.1,0.1,2-0.7,2-1.8c0.1-1.1-0.7-2-1.8-2c-1.1-0.1-2,0.7-2,1.8C29.1,20.8,30,21.7,31,21.8z"/>
</svg>
