<svg width="252" height="254" viewBox="0 0 252 254" fill="none" xmlns="http://www.w3.org/2000/svg">
<ellipse cx="101.23" cy="73.231" rx="14.7102" ry="14.7102" fill="#2B294E"/>
<path d="M10.4405 101.686L0.216798 83.2767C-0.0738856 82.764 -0.0596419 82.2343 0.259529 81.6874C0.5787 81.1406 1.04327 80.8662 1.65323 80.8641L3.96468 80.8564C4.79936 80.8537 5.57061 81.0758 6.27842 81.5229C6.98623 81.97 7.51796 82.5621 7.87362 83.2993L14.179 96.5211C14.1791 96.5532 14.1952 96.5692 14.2273 96.5691C14.2594 96.569 14.2754 96.5529 14.2753 96.5208L20.4902 83.2573C20.8409 82.5177 21.3685 81.922 22.0733 81.4702C22.778 81.0184 23.5477 80.7912 24.3824 80.7884L26.5012 80.7813C27.1112 80.7793 27.5776 81.0506 27.9005 81.5953C28.2234 82.14 28.2413 82.6696 27.9541 83.1842L17.8563 101.661C17.6967 101.919 17.6173 102.176 17.6182 102.433L17.655 113.22C17.6575 113.958 17.3869 114.601 16.843 115.148C16.3312 115.696 15.7061 115.971 14.9677 115.973L13.4267 115.978C12.6884 115.981 12.0454 115.71 11.4977 115.166C10.9822 114.622 10.7232 113.981 10.7207 113.243L10.6839 102.456C10.683 102.199 10.6019 101.943 10.4405 101.686Z" fill="#FA1F6F"/>
<path d="M35.8683 116.385C33.0432 116.395 30.9859 115.631 29.6965 114.094C28.407 112.526 27.7559 109.879 27.7432 106.155L27.7005 93.6348C27.698 92.8965 27.9686 92.2535 28.5125 91.7059C29.0564 91.1583 29.6976 90.8833 30.436 90.8809L31.2064 90.8783C31.9448 90.8758 32.5878 91.1466 33.1354 91.6905C33.683 92.2344 33.9581 92.8756 33.9606 93.614L34.0011 105.46C34.0087 107.707 34.319 109.263 34.932 110.128C35.5449 110.993 36.5737 111.423 38.0183 111.418C39.3346 111.414 40.5526 110.848 41.6724 109.72C42.8242 108.593 43.398 107.387 43.3936 106.103L43.3509 93.5827C43.3484 92.8443 43.619 92.2013 44.1629 91.6537C44.7068 91.1062 45.348 90.8311 46.0863 90.8287L47.0494 90.8255C47.7878 90.823 48.4148 91.0938 48.9303 91.6379C49.4779 92.1818 49.753 92.8229 49.7555 93.5613L49.8222 113.112C49.8248 113.851 49.5541 114.494 49.0102 115.041C48.4984 115.589 47.8733 115.864 47.1349 115.866L46.5089 115.868C45.7384 115.871 45.0794 115.616 44.5319 115.104C44.0164 114.56 43.7413 113.903 43.7065 113.133L43.6572 112.796C43.6571 112.764 43.641 112.748 43.6089 112.748C43.5768 112.748 43.5448 112.764 43.5128 112.796C41.3378 115.179 38.7897 116.375 35.8683 116.385Z" fill="#FA1F6F"/>
<path d="M59.165 115.826C58.4267 115.828 57.7837 115.558 57.236 115.014C56.7205 114.47 56.4615 113.829 56.459 113.09L56.3922 93.5392C56.3897 92.8008 56.6444 92.1579 57.1562 91.6104C57.7001 91.0629 58.3412 90.7878 59.0796 90.7854L59.7537 90.7831C60.4921 90.7807 61.119 91.0354 61.6344 91.5473C62.1819 92.0592 62.473 92.6842 62.5076 93.4225L62.5088 93.7596C62.5089 93.7917 62.525 93.8077 62.5571 93.8076C62.6213 93.8074 62.6533 93.7912 62.6532 93.7591C64.5394 91.4413 66.6704 90.2785 69.046 90.2706C70.4907 90.2658 71.6473 90.5348 72.516 91.0777C73.4167 91.6204 74.2066 92.5809 74.8854 93.9591C74.8855 93.9912 74.9177 94.0072 74.9819 94.0069C75.014 94.0068 75.0461 93.9907 75.0781 93.9585C77.0921 91.4798 79.3673 90.2362 81.9034 90.2277C84.568 90.2188 86.4806 90.9348 87.6413 92.3756C88.834 93.8163 89.4364 96.3023 89.4485 99.8337L89.4934 112.98C89.4959 113.718 89.2252 114.361 88.6813 114.909C88.1695 115.456 87.5444 115.731 86.806 115.734L85.9874 115.737C85.249 115.739 84.606 115.468 84.0584 114.924C83.5108 114.38 83.2357 113.739 83.2332 113.001L83.1916 100.818C83.1836 98.4741 82.9536 96.9339 82.5017 96.197C82.0497 95.4601 81.1816 95.0938 79.8975 95.0981C79.0628 95.1009 78.2294 95.4889 77.3974 96.2622C76.5653 97.0355 76.1506 97.8073 76.1532 98.5778L76.2026 113.024C76.2051 113.763 75.9344 114.406 75.3905 114.953C74.8466 115.501 74.2055 115.776 73.4671 115.778L72.6485 115.781C71.9101 115.784 71.2671 115.513 70.7195 114.969C70.2039 114.425 69.9449 113.784 69.9424 113.045L69.9008 100.862C69.8929 98.5505 69.6469 97.0264 69.1629 96.2896C68.7108 95.5207 67.8427 95.1383 66.5586 95.1426C65.7239 95.1454 64.8905 95.5334 64.0584 96.3067C63.2264 97.0799 62.8117 97.8518 62.8143 98.6223L62.8636 113.069C62.8661 113.807 62.5954 114.45 62.0515 114.998C61.5076 115.545 60.8665 115.82 60.1281 115.823L59.165 115.826Z" fill="#FA1F6F"/>
<path d="M100.113 115.689C99.3746 115.692 98.7316 115.421 98.184 114.877C97.6364 114.333 97.3613 113.692 97.3588 112.954L97.2921 93.4029C97.2896 92.6645 97.5603 92.0215 98.1041 91.4739C98.648 90.9263 99.2892 90.6513 100.028 90.6489L101.28 90.6447C102.018 90.6422 102.661 90.913 103.209 91.4569C103.756 92.0008 104.031 92.642 104.034 93.3804L104.101 112.931C104.103 113.67 103.832 114.313 103.288 114.86C102.745 115.408 102.103 115.683 101.365 115.685L100.113 115.689ZM100.009 85.3518C99.2711 85.3543 98.6281 85.0835 98.0805 84.5396C97.5329 83.9957 97.2578 83.3545 97.2553 82.6161L97.2543 82.3272C97.2518 81.5888 97.5224 80.9458 98.0663 80.3983C98.6102 79.8507 99.2514 79.5757 99.9897 79.5732L101.242 79.569C101.98 79.5666 102.623 79.8373 103.171 80.3812C103.718 80.9252 103.993 81.5663 103.996 82.3047L103.997 82.5936C103.999 83.332 103.729 83.975 103.185 84.5226C102.641 85.0702 102 85.3452 101.262 85.3476L100.009 85.3518Z" fill="#FA1F6F"/>
<path d="M226.202 252.392C236.477 249.492 245.84 241.945 249.636 233.504C252.425 227.302 252.493 214.382 249.768 208.326C248.622 205.779 245.945 201.776 243.818 199.429C241.191 196.531 240.375 194.633 241.273 193.513C250.048 182.572 251.087 180.37 251.625 171.575C252.307 160.427 250.421 154.977 243.273 147.438C232.636 136.219 214.941 133.442 200.493 140.726C192.846 144.581 185.753 152.72 183.926 159.737C181.164 170.345 171.918 181.087 162.399 184.746C154.25 187.878 153.394 186.558 153.855 171.566L154.265 158.221L167.016 153.773C180.506 149.067 184.228 146.122 185.733 138.967C186.993 132.976 182.655 125.3 176.36 122.381C172.191 120.448 167.339 120.069 146.75 120.067C120.242 120.065 114.611 121.109 110.297 126.823C106.562 131.77 105.985 137.758 108.727 143.124C111.538 148.624 112.932 149.449 127.755 154.387L138.592 157.996L138.994 171.453C139.447 186.59 138.606 187.884 130.376 184.72C123.06 181.907 115.915 175.028 112.416 167.428C104.243 149.676 101.595 145.981 94.0048 141.732C76.9731 132.197 56.7189 136.509 45.65 152.027C42.1014 157.001 41.7023 158.716 41.6994 168.994C41.696 180.865 41.9672 181.539 51.5637 193.513C52.4615 194.633 51.6442 196.531 49.0158 199.429C43.3413 205.686 40.9746 211.965 40.9721 220.772C40.9668 239.406 55.3061 252.869 75.1591 252.869C91.5261 252.869 103.001 244.349 110.214 226.842C117.099 210.132 128.922 202.029 146.339 202.083C165.777 202.144 177.014 210.743 184.161 231.028C189.773 246.955 209.66 257.062 226.202 252.392ZM210.972 238.997C204.521 236.735 199.214 231.076 196.975 224.07C194.202 215.398 189.239 207.824 182.154 201.455C178.956 198.58 176.339 195.577 176.34 194.781C176.34 193.985 178.958 190.982 182.158 188.107C189.246 181.738 194.214 174.164 196.992 165.492C199.479 157.725 204.842 152.632 212.828 150.453C217.949 149.055 219.483 149.192 225.257 151.563C233.452 154.928 237.607 160.794 237.605 168.994C237.602 179.277 231.324 185.774 219.087 188.162C212.65 189.418 210.537 191.075 210.536 194.868C210.535 198.509 215.425 202.051 220.469 202.063C229.021 202.083 237.579 211.199 237.591 220.303C237.609 234.003 223.996 243.564 210.972 238.997ZM66.5922 237.955C52.1947 230.853 51.1673 212.836 64.688 204.564C66.9287 203.193 70.3825 202.068 72.3632 202.063C77.4072 202.052 82.299 198.509 82.3 194.868C82.3011 191.075 80.1893 189.418 73.7529 188.162C61.5168 185.774 55.2431 179.277 55.2461 168.994C55.2484 160.813 59.4093 154.927 67.5537 151.584C73.3003 149.225 74.8342 149.092 80.2177 150.491C88.2051 152.567 92.9867 157.373 96.4997 166.857C100.091 176.553 103.407 181.511 110.709 188.107C113.892 190.982 116.497 193.985 116.496 194.781C116.496 195.577 113.878 198.58 110.678 201.455C103.59 207.824 98.6217 215.398 95.8445 224.07C91.5606 237.446 78.3108 243.736 66.5922 237.955ZM225.973 111.253L230.061 107.461L230.95 83.6784C231.867 59.1581 234.633 42.6651 240.466 26.9442C244.447 16.2134 244.238 10.154 239.714 5.16274C231.949 -3.40417 221.945 -1.30264 209.938 11.4176C194.825 27.4288 184.043 33.5065 161.605 38.6629C141.022 43.3929 137.759 47.2625 140.588 63.5901C144.059 83.6226 157.738 100.854 177.077 109.556C186.435 113.766 188.121 114.073 204.467 114.544L221.886 115.046L225.973 111.253ZM181.715 81.5672C176.355 76.2842 176.421 69.9663 181.896 64.2808C192.47 53.2999 211.231 65.2084 204.373 78.5484C201.689 83.7702 194.757 87.2335 189.194 86.1327C187.235 85.7448 183.87 83.6906 181.715 81.5672ZM107.51 85.129C112.98 82.8588 115.105 79.4995 115.106 73.12C115.108 66.8654 113.181 63.7124 107.77 61.115C93.8064 54.4123 79.9628 70.9355 90.5254 81.698C95.1973 86.4584 101.325 87.6963 107.51 85.129Z" fill="#2B294E"/>
</svg>
