<?xml version="1.0" encoding="utf-8"?>
<!-- Generator: Adobe Illustrator 21.0.0, SVG Export Plug-In . SVG Version: 6.00 Build 0)  -->
<svg version="1.1" id="Capa_1" xmlns="http://www.w3.org/2000/svg" xmlns:xlink="http://www.w3.org/1999/xlink" x="0px" y="0px"
	 viewBox="0 0 60 60" style="enable-background:new 0 0 60 60;" xml:space="preserve">
<style type="text/css">
	.st0{fill:#FA1F6F;}
</style>
<path class="st0" d="M7.7,50c1.3,0,1.9,0.8,1.9,2.3v3.3c0,0.2,0,0.3-0.1,0.4c-0.1,0.1-0.2,0.1-0.3,0.1s-0.3,0-0.4-0.1
	c-0.1-0.1-0.1-0.2-0.1-0.4v-3.2c0-0.5-0.1-0.9-0.3-1.2c-0.2-0.2-0.5-0.4-0.9-0.4c-0.5,0-0.9,0.2-1.2,0.5s-0.4,0.8-0.4,1.3v2.9
	c0,0.2,0,0.3-0.1,0.4C5.7,56,5.6,56,5.5,56s-0.3,0-0.3-0.1C5,55.9,5,55.7,5,55.6v-3.2c0-0.5-0.1-0.9-0.3-1.2
	c-0.2-0.2-0.5-0.4-0.9-0.4c-0.5,0-0.9,0.2-1.2,0.5s-0.4,0.8-0.4,1.3v2.9c0,0.2,0,0.3-0.1,0.4C2,56,1.9,56.1,1.7,56.1s-0.3,0-0.4-0.1
	s-0.1-0.2-0.1-0.4v-5.1c0-0.1,0-0.3,0.1-0.3C1.5,50.1,1.6,50,1.7,50s0.2,0,0.3,0.1s0.1,0.2,0.1,0.3V51c0.2-0.3,0.4-0.6,0.7-0.8
	C3.2,50.1,3.6,50,4,50c0.9,0,1.5,0.4,1.8,1.2c0.2-0.4,0.4-0.6,0.8-0.8S7.3,50,7.7,50z M13.8,50c1.5,0,2.2,0.8,2.2,2.3v3.3
	c0,0.1,0,0.3-0.1,0.3C15.8,56,15.7,56,15.6,56s-0.3,0-0.3-0.1c-0.1-0.1-0.1-0.2-0.1-0.3V55c-0.2,0.3-0.4,0.6-0.7,0.8
	s-0.7,0.3-1.1,0.3c-0.4,0-0.7-0.1-1-0.2c-0.3-0.2-0.6-0.4-0.7-0.6s-0.3-0.6-0.3-0.9c0-0.4,0.1-0.8,0.3-1s0.6-0.4,1.1-0.5
	s1.2-0.2,2.1-0.2h0.3v-0.4c0-0.5-0.1-0.8-0.3-1.1c-0.2-0.2-0.5-0.3-0.9-0.3c-0.5,0-1.1,0.1-1.7,0.4c-0.2,0.1-0.4,0.2-0.5,0.2
	s-0.2,0-0.2-0.1c-0.1-0.1-0.1-0.2-0.1-0.3s0-0.2,0.1-0.3s0.2-0.2,0.3-0.3c0.3-0.2,0.6-0.3,0.9-0.4C13.1,50.1,13.5,50,13.8,50z
	 M13.4,55.3c0.5,0,0.9-0.2,1.2-0.5s0.5-0.7,0.5-1.3v-0.3h-0.2c-0.7,0-1.2,0-1.6,0.1c-0.4,0.1-0.6,0.2-0.8,0.3s-0.2,0.3-0.2,0.6
	s0.1,0.6,0.3,0.8C12.8,55.2,13.1,55.3,13.4,55.3z M20.8,50c1.4,0,2.1,0.8,2.1,2.3v3.3c0,0.2,0,0.3-0.1,0.4c-0.1,0.1-0.2,0.1-0.3,0.1
	c-0.2,0-0.3,0-0.4-0.1S22,55.8,22,55.6v-3.2c0-0.5-0.1-0.9-0.3-1.2c-0.2-0.2-0.5-0.4-1-0.4s-1,0.2-1.3,0.5s-0.5,0.8-0.5,1.3v2.9
	c0,0.2,0,0.3-0.1,0.4S18.6,56,18.5,56s-0.3,0-0.4-0.1S18,55.7,18,55.5v-5.1c0-0.1,0-0.3,0.1-0.3c0.1-0.1,0.2-0.1,0.4-0.1
	c0.1,0,0.3,0,0.3,0.1c0.1,0.1,0.1,0.2,0.1,0.3V51c0.2-0.4,0.5-0.6,0.8-0.8C19.9,50.1,20.3,50,20.8,50z M29.2,54.6
	c0.1,0,0.2,0,0.2,0.1c0.1,0.1,0.1,0.2,0.1,0.3c0,0.2-0.1,0.4-0.4,0.6c-0.3,0.2-0.6,0.3-0.9,0.4c-0.3,0.1-0.6,0.1-0.9,0.1
	c-0.9,0-1.6-0.3-2.1-0.8s-0.8-1.3-0.8-2.2c0-0.6,0.1-1.1,0.3-1.6c0.2-0.5,0.6-0.8,1-1.1C26,50.1,26.5,50,27,50
	c0.8,0,1.4,0.2,1.8,0.7s0.7,1.2,0.7,2c0,0.2,0,0.3-0.1,0.3c-0.1,0.1-0.2,0.1-0.3,0.1h-3.9c0.1,1.4,0.7,2.1,2,2.1
	c0.3,0,0.6,0,0.8-0.1c0.2-0.1,0.5-0.2,0.7-0.3C28.9,54.7,29.1,54.6,29.2,54.6z M27.1,50.8c-0.5,0-0.9,0.2-1.2,0.5
	c-0.3,0.3-0.5,0.8-0.5,1.4h3.4c0-0.6-0.2-1-0.4-1.4C28,50.9,27.6,50.8,27.1,50.8z M29.7,58.2c-0.2,0-0.3,0-0.4-0.1s-0.2-0.2-0.2-0.3
	c0-0.2,0.1-0.3,0.4-0.4h0.3c0.4,0,0.6-0.1,0.8-0.3c0.2-0.2,0.3-0.5,0.3-0.9v-5.6c0-0.2,0-0.3,0.1-0.3c0.1-0.1,0.2-0.1,0.4-0.1
	c0.1,0,0.3,0,0.3,0.1c0.1,0.1,0.1,0.2,0.1,0.3v5.6c0,0.7-0.2,1.2-0.5,1.5s-0.8,0.5-1.4,0.6L29.7,58.2z M31.5,48.8
	c-0.2,0-0.3-0.1-0.5-0.2c-0.1-0.1-0.2-0.3-0.2-0.4c0-0.2,0.1-0.3,0.2-0.4c0.1-0.1,0.3-0.2,0.5-0.2s0.3,0.1,0.5,0.2
	c0.1,0.1,0.2,0.3,0.2,0.4c0,0.2-0.1,0.3-0.2,0.4C31.8,48.7,31.6,48.8,31.5,48.8z M36.1,50c1.5,0,2.2,0.8,2.2,2.3v3.3
	c0,0.1,0,0.3-0.1,0.3C38.1,56,38,56,37.9,56s-0.3,0-0.3-0.1c-0.1-0.1-0.1-0.2-0.1-0.3V55c-0.2,0.3-0.4,0.6-0.7,0.8s-0.7,0.3-1.1,0.3
	c-0.4,0-0.7-0.1-1-0.2c-0.3-0.2-0.6-0.4-0.7-0.6c-0.2-0.3-0.3-0.6-0.3-0.9c0-0.4,0.1-0.8,0.3-1s0.6-0.4,1.1-0.5s1.2-0.2,2.1-0.2h0.3
	v-0.4c0-0.5-0.1-0.8-0.3-1.1c-0.2-0.2-0.5-0.3-0.9-0.3c-0.5,0-1.1,0.1-1.7,0.4c-0.2,0.1-0.4,0.2-0.5,0.2s-0.2,0-0.2-0.1
	c-0.1-0.1-0.1-0.2-0.1-0.3s0-0.2,0.1-0.3s0.2-0.2,0.3-0.3c0.3-0.2,0.6-0.3,0.9-0.4C35.4,50.1,35.8,50,36.1,50z M35.7,55.3
	c0.5,0,0.9-0.2,1.2-0.5s0.5-0.7,0.5-1.3v-0.3h-0.2c-0.7,0-1.2,0-1.6,0.1c-0.4,0.1-0.6,0.2-0.8,0.3s-0.2,0.3-0.2,0.6s0.1,0.6,0.3,0.8
	C35.1,55.2,35.4,55.3,35.7,55.3z M43.1,50c1.4,0,2.1,0.8,2.1,2.3v3.3c0,0.2,0,0.3-0.1,0.4c-0.1,0.1-0.2,0.1-0.3,0.1
	c-0.2,0-0.3,0-0.4-0.1c-0.1-0.1-0.1-0.2-0.1-0.4v-3.2c0-0.5-0.1-0.9-0.3-1.2c-0.2-0.2-0.5-0.4-1-0.4s-1,0.2-1.3,0.5
	s-0.5,0.8-0.5,1.3v2.9c0,0.2,0,0.3-0.1,0.4C41,56,40.9,56,40.8,56s-0.3,0-0.4-0.1c-0.1-0.1-0.1-0.2-0.1-0.4v-5.1
	c0-0.1,0-0.3,0.1-0.3c0.1-0.1,0.2-0.1,0.4-0.1c0.1,0,0.3,0,0.3,0.1c0.1,0.1,0.1,0.2,0.1,0.3V51c0.2-0.4,0.5-0.6,0.8-0.8
	C42.2,50.1,42.6,50,43.1,50z M51.6,47.5c0.2,0,0.3,0,0.4,0.1c0.1,0.1,0.1,0.2,0.1,0.3v7.6c0,0.1,0,0.3-0.1,0.3
	c-0.1,0.1-0.2,0.1-0.4,0.1s-0.3,0-0.4-0.1c-0.1-0.1-0.1-0.2-0.1-0.3v-0.6c-0.2,0.4-0.4,0.7-0.8,0.9c-0.3,0.2-0.7,0.3-1.2,0.3
	s-1-0.1-1.4-0.4c-0.4-0.3-0.7-0.6-0.9-1.1s-0.3-1-0.3-1.6s0.1-1.1,0.3-1.6s0.5-0.8,0.9-1.1c0.4-0.2,0.8-0.4,1.4-0.4
	c0.5,0,0.9,0.1,1.2,0.3s0.6,0.5,0.8,0.9v-3.2c0-0.1,0-0.3,0.1-0.3C51.4,47.5,51.5,47.5,51.6,47.5z M49.4,55.3c0.6,0,1-0.2,1.3-0.6
	c0.3-0.4,0.5-0.9,0.5-1.7c0-0.7-0.2-1.3-0.5-1.6c-0.3-0.4-0.7-0.6-1.3-0.6s-1,0.2-1.3,0.6c-0.3,0.4-0.5,0.9-0.5,1.6
	c0,0.7,0.2,1.3,0.5,1.7C48.4,55.1,48.8,55.3,49.4,55.3z M56.3,56.1c-0.6,0-1-0.1-1.5-0.4c-0.4-0.2-0.7-0.6-1-1.1
	c-0.2-0.5-0.3-1-0.3-1.6s0.1-1.1,0.3-1.6s0.6-0.8,1-1.1c0.4-0.2,0.9-0.4,1.5-0.4s1,0.1,1.5,0.4c0.4,0.2,0.7,0.6,1,1.1
	c0.2,0.5,0.3,1,0.3,1.6s-0.1,1.1-0.3,1.6s-0.5,0.8-1,1.1C57.4,56,56.9,56.1,56.3,56.1z M56.3,55.3c0.6,0,1-0.2,1.3-0.6
	c0.3-0.4,0.5-0.9,0.5-1.7c0-0.7-0.2-1.3-0.5-1.6c-0.3-0.4-0.8-0.6-1.3-0.6s-1,0.2-1.3,0.6c-0.3,0.4-0.5,0.9-0.5,1.6
	c0,0.7,0.2,1.3,0.5,1.7C55.3,55.1,55.8,55.3,56.3,55.3z"/>
<path class="st0" d="M16.1,41.6h2.3c1,0,2.2-1.3,2.5-2.3c-1.5,0-4.9-0.3-7-1.7l-0.1,1.7C13.8,40.6,14.8,41.6,16.1,41.6z M44.8,41.6
	c1.3,0,2.3-1,2.3-2.3v-1.6c-2,1.5-5.7,1.7-7,1.7c0.3,0.9,1.2,2.2,2.3,2.2C42.5,41.6,44.8,41.6,44.8,41.6z M41.5,33.9
	c-1.6,0-2.8-1.3-2.8-2.8s1.2-2.8,2.8-2.8c1.6,0,2.8,1.3,2.8,2.8C44.3,32.6,43.1,33.9,41.5,33.9z M34,33.9h-7.1c-1.2,0-2.2-1-2.2-2.3
	s1-2.3,2.2-2.3h7c1.2,0,2.2,1,2.2,2.3C36.1,32.9,35.1,33.9,34,33.9z M19.3,33.9c-1.6,0-2.8-1.3-2.8-2.8s1.2-2.8,2.8-2.8
	c1.6,0,2.8,1.3,2.8,2.8C22.2,32.6,20.8,33.9,19.3,33.9z M26.4,20.8c2.8-0.1,5.5-0.1,8.3,0c1.9,0.1,3.9,0,4.9,1l0.6,2
	c0.3,1.3-0.3,2.3-1.7,2.3h-16c-1.3,0-2-1-1.7-2.3l0.6-2C22.6,20.8,24.4,20.8,26.4,20.8z M43.3,25.8c-0.3-0.3-0.4-0.7-0.6-1.2
	c-0.4-1-1-2-1.5-3c-0.4-1-1-1.9-2-2.3c-1-0.4-2.5-0.4-3.6-0.6c-3.6-0.3-7.1-0.3-10.6,0c-2.5,0.3-4.2,0.4-5.2,2.9
	c-0.3,0.7-0.6,1.3-1,1.9c-0.3,0.4-0.3,0.9-0.6,1.3c-0.4,1.2-1,1.2-2,1.5c-0.4,0.3-0.9,0.4-1.2,0.7c-0.7,0.7-1,2.5-1,3.5v4.6
	c0,2.2,6.4,2.5,8.4,2.5H39c2.2,0,8.3-0.3,8.3-2.5v-4.6c0-1-0.4-2.8-1.2-3.5c-0.6-0.6-1.6-0.7-2.3-1.2C43.5,25.9,43.4,25.9,43.3,25.8
	z"/>
</svg>
