<?xml version="1.0" encoding="utf-8"?>
<!-- Generator: Adobe Illustrator 21.0.0, SVG Export Plug-In . SVG Version: 6.00 Build 0)  -->
<svg version="1.1" id="Capa_1" xmlns="http://www.w3.org/2000/svg" xmlns:xlink="http://www.w3.org/1999/xlink" x="0px" y="0px"
	 viewBox="0 0 60 60" style="enable-background:new 0 0 60 60;" xml:space="preserve">
<style type="text/css">
	.st0{fill:#2B294E;}
</style>
<path class="st0" d="M7.7,50c1.3,0,1.9,0.8,1.9,2.3v3.3c0,0.2,0,0.3-0.1,0.4c-0.1,0.1-0.2,0.1-0.3,0.1s-0.3,0-0.4-0.1
	c-0.1-0.1-0.1-0.2-0.1-0.4v-3.2c0-0.5-0.1-0.9-0.3-1.2c-0.2-0.2-0.5-0.4-0.9-0.4c-0.5,0-0.9,0.2-1.2,0.5s-0.4,0.8-0.4,1.3v2.9
	c0,0.2,0,0.3-0.1,0.4c-0.1,0.1-0.2,0.1-0.3,0.1s-0.3,0-0.3-0.1C5,55.9,5,55.7,5,55.6v-3.2c0-0.5-0.1-0.9-0.3-1.2
	c-0.2-0.2-0.5-0.4-0.9-0.4c-0.5,0-0.9,0.2-1.2,0.5c-0.3,0.3-0.4,0.8-0.4,1.3v2.9c0,0.2,0,0.3-0.1,0.4C2,56,1.9,56.1,1.7,56.1
	s-0.3,0-0.4-0.1c-0.1-0.1-0.1-0.2-0.1-0.4v-5.1c0-0.1,0-0.3,0.1-0.3C1.5,50.1,1.6,50,1.7,50c0.1,0,0.2,0,0.3,0.1
	c0.1,0.1,0.1,0.2,0.1,0.3v0.6c0.2-0.3,0.4-0.6,0.7-0.8C3.2,50.1,3.6,50,4,50c0.9,0,1.5,0.4,1.8,1.2c0.2-0.4,0.4-0.6,0.8-0.8
	S7.3,50,7.7,50z M13.8,50c1.5,0,2.2,0.8,2.2,2.3v3.3c0,0.1,0,0.3-0.1,0.3c-0.1,0.1-0.2,0.1-0.3,0.1s-0.3,0-0.3-0.1
	c-0.1-0.1-0.1-0.2-0.1-0.3V55c-0.2,0.3-0.4,0.6-0.7,0.8c-0.3,0.2-0.7,0.3-1.1,0.3c-0.4,0-0.7-0.1-1-0.2c-0.3-0.2-0.6-0.4-0.7-0.6
	s-0.3-0.6-0.3-0.9c0-0.4,0.1-0.8,0.3-1c0.2-0.2,0.6-0.4,1.1-0.5c0.5-0.1,1.2-0.2,2.1-0.2h0.3v-0.4c0-0.5-0.1-0.8-0.3-1.1
	c-0.2-0.2-0.5-0.3-0.9-0.3c-0.5,0-1.1,0.1-1.7,0.4c-0.2,0.1-0.4,0.2-0.5,0.2c-0.1,0-0.2,0-0.2-0.1c-0.1-0.1-0.1-0.2-0.1-0.3
	c0-0.1,0-0.2,0.1-0.3c0.1-0.1,0.2-0.2,0.3-0.3c0.3-0.2,0.6-0.3,0.9-0.4C13.1,50.1,13.5,50,13.8,50z M13.4,55.3
	c0.5,0,0.9-0.2,1.2-0.5c0.3-0.3,0.5-0.7,0.5-1.3v-0.3h-0.2c-0.7,0-1.2,0-1.6,0.1c-0.4,0.1-0.6,0.2-0.8,0.3c-0.2,0.1-0.2,0.3-0.2,0.6
	c0,0.3,0.1,0.6,0.3,0.8C12.8,55.2,13.1,55.3,13.4,55.3z M20.8,50c1.4,0,2.1,0.8,2.1,2.3v3.3c0,0.2,0,0.3-0.1,0.4
	c-0.1,0.1-0.2,0.1-0.3,0.1c-0.2,0-0.3,0-0.4-0.1c-0.1-0.1-0.1-0.2-0.1-0.4v-3.2c0-0.5-0.1-0.9-0.3-1.2c-0.2-0.2-0.5-0.4-1-0.4
	c-0.5,0-1,0.2-1.3,0.5s-0.5,0.8-0.5,1.3v2.9c0,0.2,0,0.3-0.1,0.4c-0.1,0.1-0.2,0.1-0.3,0.1s-0.3,0-0.4-0.1c-0.1-0.1-0.1-0.2-0.1-0.4
	v-5.1c0-0.1,0-0.3,0.1-0.3c0.1-0.1,0.2-0.1,0.4-0.1c0.1,0,0.3,0,0.3,0.1c0.1,0.1,0.1,0.2,0.1,0.3v0.6c0.2-0.4,0.5-0.6,0.8-0.8
	C19.9,50.1,20.3,50,20.8,50z M29.2,54.6c0.1,0,0.2,0,0.2,0.1c0.1,0.1,0.1,0.2,0.1,0.3c0,0.2-0.1,0.4-0.4,0.6
	c-0.3,0.2-0.6,0.3-0.9,0.4c-0.3,0.1-0.6,0.1-0.9,0.1c-0.9,0-1.6-0.3-2.1-0.8c-0.5-0.5-0.8-1.3-0.8-2.2c0-0.6,0.1-1.1,0.3-1.6
	c0.2-0.5,0.6-0.8,1-1.1C26,50.1,26.5,50,27,50c0.8,0,1.4,0.2,1.8,0.7c0.4,0.5,0.7,1.2,0.7,2c0,0.2,0,0.3-0.1,0.3
	c-0.1,0.1-0.2,0.1-0.3,0.1h-3.9c0.1,1.4,0.7,2.1,2,2.1c0.3,0,0.6,0,0.8-0.1c0.2-0.1,0.5-0.2,0.7-0.3C28.9,54.7,29.1,54.6,29.2,54.6z
	 M27.1,50.8c-0.5,0-0.9,0.2-1.2,0.5c-0.3,0.3-0.5,0.8-0.5,1.4h3.4c0-0.6-0.2-1-0.4-1.4C28,50.9,27.6,50.8,27.1,50.8z M29.7,58.2
	c-0.2,0-0.3,0-0.4-0.1c-0.1-0.1-0.2-0.2-0.2-0.3c0-0.2,0.1-0.3,0.4-0.4l0.3,0c0.4,0,0.6-0.1,0.8-0.3c0.2-0.2,0.3-0.5,0.3-0.9v-5.6
	c0-0.2,0-0.3,0.1-0.3c0.1-0.1,0.2-0.1,0.4-0.1c0.1,0,0.3,0,0.3,0.1c0.1,0.1,0.1,0.2,0.1,0.3v5.6c0,0.7-0.2,1.2-0.5,1.5
	c-0.3,0.3-0.8,0.5-1.4,0.6L29.7,58.2z M31.5,48.8c-0.2,0-0.3-0.1-0.5-0.2c-0.1-0.1-0.2-0.3-0.2-0.4c0-0.2,0.1-0.3,0.2-0.4
	c0.1-0.1,0.3-0.2,0.5-0.2s0.3,0.1,0.5,0.2c0.1,0.1,0.2,0.3,0.2,0.4c0,0.2-0.1,0.3-0.2,0.4C31.8,48.7,31.6,48.8,31.5,48.8z M36.1,50
	c1.5,0,2.2,0.8,2.2,2.3v3.3c0,0.1,0,0.3-0.1,0.3c-0.1,0.1-0.2,0.1-0.3,0.1s-0.3,0-0.3-0.1c-0.1-0.1-0.1-0.2-0.1-0.3V55
	c-0.2,0.3-0.4,0.6-0.7,0.8c-0.3,0.2-0.7,0.3-1.1,0.3c-0.4,0-0.7-0.1-1-0.2c-0.3-0.2-0.6-0.4-0.7-0.6c-0.2-0.3-0.3-0.6-0.3-0.9
	c0-0.4,0.1-0.8,0.3-1c0.2-0.2,0.6-0.4,1.1-0.5c0.5-0.1,1.2-0.2,2.1-0.2h0.3v-0.4c0-0.5-0.1-0.8-0.3-1.1c-0.2-0.2-0.5-0.3-0.9-0.3
	c-0.5,0-1.1,0.1-1.7,0.4c-0.2,0.1-0.4,0.2-0.5,0.2c-0.1,0-0.2,0-0.2-0.1c-0.1-0.1-0.1-0.2-0.1-0.3c0-0.1,0-0.2,0.1-0.3
	c0.1-0.1,0.2-0.2,0.3-0.3c0.3-0.2,0.6-0.3,0.9-0.4C35.4,50.1,35.8,50,36.1,50z M35.7,55.3c0.5,0,0.9-0.2,1.2-0.5
	c0.3-0.3,0.5-0.7,0.5-1.3v-0.3h-0.2c-0.7,0-1.2,0-1.6,0.1c-0.4,0.1-0.6,0.2-0.8,0.3c-0.2,0.1-0.2,0.3-0.2,0.6c0,0.3,0.1,0.6,0.3,0.8
	C35.1,55.2,35.4,55.3,35.7,55.3z M43.1,50c1.4,0,2.1,0.8,2.1,2.3v3.3c0,0.2,0,0.3-0.1,0.4c-0.1,0.1-0.2,0.1-0.3,0.1
	c-0.2,0-0.3,0-0.4-0.1c-0.1-0.1-0.1-0.2-0.1-0.4v-3.2c0-0.5-0.1-0.9-0.3-1.2c-0.2-0.2-0.5-0.4-1-0.4c-0.5,0-1,0.2-1.3,0.5
	s-0.5,0.8-0.5,1.3v2.9c0,0.2,0,0.3-0.1,0.4c-0.1,0.1-0.2,0.1-0.3,0.1s-0.3,0-0.4-0.1c-0.1-0.1-0.1-0.2-0.1-0.4v-5.1
	c0-0.1,0-0.3,0.1-0.3c0.1-0.1,0.2-0.1,0.4-0.1c0.1,0,0.3,0,0.3,0.1c0.1,0.1,0.1,0.2,0.1,0.3v0.6c0.2-0.4,0.5-0.6,0.8-0.8
	C42.2,50.1,42.6,50,43.1,50z M51.6,47.5c0.2,0,0.3,0,0.4,0.1c0.1,0.1,0.1,0.2,0.1,0.3v7.6c0,0.1,0,0.3-0.1,0.3
	c-0.1,0.1-0.2,0.1-0.4,0.1s-0.3,0-0.4-0.1c-0.1-0.1-0.1-0.2-0.1-0.3v-0.6c-0.2,0.4-0.4,0.7-0.8,0.9c-0.3,0.2-0.7,0.3-1.2,0.3
	c-0.5,0-1-0.1-1.4-0.4c-0.4-0.3-0.7-0.6-0.9-1.1c-0.2-0.5-0.3-1-0.3-1.6c0-0.6,0.1-1.1,0.3-1.6c0.2-0.5,0.5-0.8,0.9-1.1
	c0.4-0.2,0.8-0.4,1.4-0.4c0.5,0,0.9,0.1,1.2,0.3c0.3,0.2,0.6,0.5,0.8,0.9v-3.2c0-0.1,0-0.3,0.1-0.3C51.4,47.5,51.5,47.5,51.6,47.5z
	 M49.4,55.3c0.6,0,1-0.2,1.3-0.6c0.3-0.4,0.5-0.9,0.5-1.7c0-0.7-0.2-1.3-0.5-1.6c-0.3-0.4-0.7-0.6-1.3-0.6c-0.6,0-1,0.2-1.3,0.6
	c-0.3,0.4-0.5,0.9-0.5,1.6c0,0.7,0.2,1.3,0.5,1.7C48.4,55.1,48.8,55.3,49.4,55.3z M56.3,56.1c-0.6,0-1-0.1-1.5-0.4
	c-0.4-0.2-0.7-0.6-1-1.1c-0.2-0.5-0.3-1-0.3-1.6c0-0.6,0.1-1.1,0.3-1.6c0.2-0.5,0.6-0.8,1-1.1c0.4-0.2,0.9-0.4,1.5-0.4
	c0.6,0,1,0.1,1.5,0.4c0.4,0.2,0.7,0.6,1,1.1c0.2,0.5,0.3,1,0.3,1.6c0,0.6-0.1,1.1-0.3,1.6c-0.2,0.5-0.5,0.8-1,1.1
	C57.4,56,56.9,56.1,56.3,56.1z M56.3,55.3c0.6,0,1-0.2,1.3-0.6c0.3-0.4,0.5-0.9,0.5-1.7c0-0.7-0.2-1.3-0.5-1.6
	c-0.3-0.4-0.8-0.6-1.3-0.6s-1,0.2-1.3,0.6c-0.3,0.4-0.5,0.9-0.5,1.6c0,0.7,0.2,1.3,0.5,1.7C55.3,55.1,55.8,55.3,56.3,55.3z"/>
<path class="st0" d="M20.6,38h1.6c0.7,0,1.5-0.9,1.7-1.6c-1,0-3.4-0.2-4.8-1.2L19,36.4C19,37.3,19.7,38,20.6,38z M40.4,38
	c0.9,0,1.6-0.7,1.6-1.6v-1.1c-1.4,1-3.9,1.2-4.8,1.2c0.2,0.6,0.8,1.5,1.6,1.5H40.4z M38.1,32.7c-1.1,0-1.9-0.9-1.9-1.9
	c0-1,0.8-1.9,1.9-1.9c1.1,0,1.9,0.9,1.9,1.9C40,31.8,39.2,32.7,38.1,32.7z M32.9,32.7H28c-0.8,0-1.5-0.7-1.5-1.6s0.7-1.6,1.5-1.6
	h4.8c0.8,0,1.5,0.7,1.5,1.6C34.4,32,33.7,32.7,32.9,32.7z M22.8,32.7c-1.1,0-1.9-0.9-1.9-1.9c0-1,0.8-1.9,1.9-1.9
	c1.1,0,1.9,0.9,1.9,1.9C24.8,31.8,23.8,32.7,22.8,32.7z M27.7,23.7c1.9-0.1,3.8-0.1,5.7,0c1.3,0.1,2.7,0,3.4,0.7l0.4,1.4
	c0.2,0.9-0.2,1.6-1.2,1.6H25c-0.9,0-1.4-0.7-1.2-1.6l0.4-1.4C25.1,23.7,26.3,23.7,27.7,23.7z M39.3,27.1c-0.2-0.2-0.3-0.5-0.4-0.8
	c-0.3-0.7-0.7-1.4-1-2.1c-0.3-0.7-0.7-1.3-1.4-1.6c-0.7-0.3-1.7-0.3-2.5-0.4c-2.5-0.2-4.9-0.2-7.3,0c-1.7,0.2-2.9,0.3-3.6,2
	c-0.2,0.5-0.4,0.9-0.7,1.3c-0.2,0.3-0.2,0.6-0.4,0.9c-0.3,0.8-0.7,0.8-1.4,1c-0.3,0.2-0.6,0.3-0.8,0.5c-0.5,0.5-0.7,1.7-0.7,2.4v3.2
	c0,1.5,4.4,1.7,5.8,1.7h11.5c1.5,0,5.7-0.2,5.7-1.7v-3.2c0-0.7-0.3-1.9-0.8-2.4c-0.4-0.4-1.1-0.5-1.6-0.8
	C39.5,27.2,39.4,27.2,39.3,27.1z"/>
</svg>
