<?xml version="1.0" encoding="utf-8"?>
<!-- Generator: Adobe Illustrator 21.0.0, SVG Export Plug-In . SVG Version: 6.00 Build 0)  -->
<svg version="1.1" id="Capa_1" xmlns="http://www.w3.org/2000/svg" xmlns:xlink="http://www.w3.org/1999/xlink" x="0px" y="0px"
	 viewBox="0 0 60 60" style="enable-background:new 0 0 60 60;" xml:space="preserve">
<style type="text/css">
	.st0{fill:#FF8226;}
</style>
<path class="st0" d="M14.9,48.4c0.1-0.3,0.3-0.4,0.6-0.4c0.2,0,0.3,0.1,0.4,0.2c0.1,0.1,0.2,0.2,0.2,0.4c0,0.1,0,0.2-0.1,0.3
	l-3.1,6.7c-0.1,0.1-0.2,0.3-0.3,0.3C12.5,56,12.4,56,12.2,56c-0.1,0-0.3,0-0.4-0.1c-0.1-0.1-0.2-0.2-0.3-0.3l-3.1-6.7
	c0-0.1-0.1-0.2-0.1-0.2c0-0.2,0.1-0.3,0.2-0.4C8.7,48.1,8.8,48,9,48c0.1,0,0.2,0,0.3,0.1c0.1,0.1,0.2,0.2,0.2,0.3l2.7,6L14.9,48.4z
	 M20.7,56.1c-0.7,0-1.4-0.2-2-0.5c-0.6-0.3-1-0.8-1.3-1.4c-0.3-0.6-0.5-1.3-0.5-2.1c0-0.8,0.1-1.5,0.4-2.1c0.3-0.6,0.7-1.1,1.3-1.4
	c0.6-0.3,1.2-0.5,2-0.5c0.7,0,1.4,0.2,2,0.5c0.6,0.3,1,0.8,1.3,1.4c0.3,0.6,0.5,1.3,0.5,2.1c0,0.8-0.1,1.5-0.5,2.1
	c-0.3,0.6-0.7,1.1-1.3,1.4C22,55.9,21.4,56.1,20.7,56.1z M20.7,55c0.8,0,1.4-0.3,1.8-0.8C22.8,53.7,23,53,23,52
	c0-0.9-0.2-1.7-0.6-2.2c-0.4-0.5-1-0.8-1.8-0.8c-0.8,0-1.3,0.3-1.8,0.8c-0.4,0.5-0.6,1.2-0.6,2.2c0,1,0.2,1.7,0.6,2.2
	C19.3,54.7,19.9,55,20.7,55z M27,56c-0.2,0-0.4-0.1-0.5-0.2c-0.1-0.1-0.2-0.3-0.2-0.5l0-10.2c0-0.2,0.1-0.4,0.2-0.5
	c0.1-0.1,0.3-0.2,0.5-0.2c0.2,0,0.3,0.1,0.4,0.2c0.1,0.1,0.2,0.3,0.2,0.5l0,10.2c0,0.2-0.1,0.4-0.2,0.5C27.3,56,27.1,56,27,56z
	 M35.6,48.3c0.1-0.3,0.3-0.4,0.6-0.4c0.2,0,0.3,0.1,0.4,0.2c0.1,0.1,0.2,0.2,0.2,0.4c0,0.1,0,0.2-0.1,0.3l-3.1,6.7
	c-0.1,0.1-0.2,0.3-0.3,0.3c-0.1,0.1-0.3,0.1-0.4,0.1c-0.1,0-0.3,0-0.4-0.1c-0.1-0.1-0.2-0.2-0.3-0.3l-3.1-6.7c0-0.1-0.1-0.2-0.1-0.2
	c0-0.2,0.1-0.3,0.2-0.4c0.1-0.1,0.3-0.2,0.5-0.2c0.1,0,0.2,0,0.3,0.1c0.1,0.1,0.2,0.2,0.2,0.3l2.7,6L35.6,48.3z M44.2,54.1
	c0.1,0,0.2,0,0.3,0.1c0.1,0.1,0.1,0.2,0.1,0.4c0,0.3-0.2,0.5-0.6,0.7c-0.4,0.2-0.8,0.4-1.2,0.5C42.4,55.9,42,56,41.6,56
	c-1.2,0-2.2-0.4-2.9-1.1c-0.7-0.7-1-1.7-1.1-3c0-0.8,0.1-1.5,0.5-2.1c0.3-0.6,0.7-1.1,1.3-1.4c0.6-0.3,1.2-0.5,1.9-0.5
	c1,0,1.8,0.3,2.4,1c0.6,0.7,0.9,1.6,0.9,2.7c0,0.2,0,0.4-0.1,0.5c-0.1,0.1-0.2,0.1-0.4,0.1l-5.2,0c0.1,1.8,1,2.7,2.6,2.7
	c0.4,0,0.8-0.1,1.1-0.2c0.3-0.1,0.6-0.3,1-0.5C43.9,54.1,44.1,54.1,44.2,54.1z M41.3,48.9c-0.7,0-1.2,0.2-1.6,0.6
	c-0.4,0.4-0.6,1-0.7,1.8l4.5,0c0-0.8-0.2-1.4-0.6-1.8C42.5,49.1,42,48.9,41.3,48.9z M50.4,47.9c0.4,0,0.7,0.1,0.7,0.5
	c0,0.2,0,0.3-0.1,0.4C50.8,49,50.7,49,50.4,49l-0.5,0c-0.7,0.1-1.2,0.3-1.6,0.8c-0.3,0.4-0.5,1-0.5,1.6l0,3.9c0,0.2-0.1,0.4-0.2,0.5
	c-0.1,0.1-0.3,0.2-0.5,0.2c-0.2,0-0.4-0.1-0.5-0.2c-0.1-0.1-0.2-0.3-0.2-0.5l0-6.8c0-0.2,0.1-0.4,0.2-0.5c0.1-0.1,0.3-0.2,0.5-0.2
	c0.2,0,0.3,0.1,0.4,0.2c0.1,0.1,0.2,0.3,0.2,0.4l0,0.9c0.2-0.5,0.5-0.8,0.9-1.1c0.4-0.2,0.9-0.4,1.4-0.4L50.4,47.9z"/>
<path class="st0" d="M18.9,22.3L35.3,8.7c1.1-0.9,3-0.9,4.1,0l2.7,2.3c1.1,0.9,1.1,2.5,0,3.4L30.5,24l11.7,9.6
	c1.1,0.9,1.1,2.5,0,3.4l-2.7,2.3c-1.1,0.9-3,0.9-4.1,0L18.9,25.7C17.7,24.8,17.7,23.2,18.9,22.3z"/>
</svg>
