<?xml version="1.0" encoding="utf-8"?>
<!-- Generator: Adobe Illustrator 21.0.0, SVG Export Plug-In . SVG Version: 6.00 Build 0)  -->
<svg version="1.1" id="Capa_1" xmlns="http://www.w3.org/2000/svg" xmlns:xlink="http://www.w3.org/1999/xlink" x="0px" y="0px"
	 viewBox="0 0 60 60" style="enable-background:new 0 0 60 60;" xml:space="preserve">
<style type="text/css">
	.st0{fill:#2B294E;}
</style>
<g>
	<path class="st0" d="M11.4,48c0.7,0,1.3,0.2,1.8,0.5s0.9,0.8,1.2,1.4c0.3,0.6,0.4,1.3,0.4,2.1s-0.1,1.5-0.4,2.1
		c-0.3,0.6-0.7,1.1-1.2,1.4c-0.5,0.3-1.1,0.5-1.8,0.5c-0.6,0-1.1-0.1-1.6-0.4c-0.4-0.3-0.8-0.6-1-1.1v3.8c0,0.2-0.1,0.3-0.2,0.4
		C8.5,58.9,8.3,59,8.1,59s-0.4-0.1-0.5-0.2c-0.1-0.1-0.2-0.3-0.2-0.4v-9.6c0-0.2,0.1-0.3,0.2-0.5C7.8,48.1,7.9,48,8.1,48
		c0.2,0,0.4,0.1,0.5,0.2c0.1,0.1,0.2,0.3,0.2,0.5v0.9c0.2-0.5,0.6-0.9,1-1.1C10.3,48.1,10.8,48,11.4,48z M11.2,55
		c0.8,0,1.3-0.3,1.8-0.8c0.4-0.5,0.6-1.2,0.6-2.2c0-0.9-0.2-1.7-0.6-2.2c-0.4-0.5-1-0.8-1.8-0.8s-1.3,0.3-1.8,0.8
		C9,50.3,8.8,51,8.8,52c0,0.9,0.2,1.7,0.6,2.2C9.8,54.8,10.4,55,11.2,55z M20.7,48c0.4,0,0.7,0.1,0.7,0.5c0,0.2,0,0.3-0.1,0.4
		c-0.1,0.1-0.3,0.2-0.5,0.2h-0.5c-0.7,0.1-1.2,0.3-1.6,0.8c-0.3,0.4-0.5,1-0.5,1.6v3.9c0,0.2-0.1,0.4-0.2,0.5s-0.3,0.2-0.5,0.2
		S17.1,56,17,55.9s-0.2-0.3-0.2-0.5v-6.8c0-0.2,0.1-0.4,0.2-0.5s0.3-0.2,0.5-0.2s0.3,0.1,0.4,0.2c0.1,0.1,0.2,0.3,0.2,0.4v0.9
		c0.2-0.5,0.5-0.8,0.9-1.1c0.4-0.2,0.9-0.4,1.4-0.4L20.7,48z M25.5,56.1c-0.7,0-1.4-0.2-2-0.5s-1-0.8-1.3-1.4
		c-0.3-0.6-0.4-1.3-0.4-2.1s0.1-1.5,0.4-2.1s0.7-1.1,1.3-1.4c0.6-0.3,1.2-0.5,2-0.5s1.4,0.2,2,0.5s1,0.8,1.3,1.4
		c0.3,0.6,0.5,1.3,0.5,2.1s-0.2,1.5-0.5,2.1s-0.7,1.1-1.3,1.4C26.9,55.9,26.3,56.1,25.5,56.1z M25.5,55c0.8,0,1.4-0.3,1.8-0.8
		s0.6-1.3,0.6-2.2s-0.2-1.7-0.6-2.2s-1-0.8-1.8-0.8s-1.3,0.3-1.8,0.8c-0.4,0.5-0.6,1.2-0.6,2.2s0.2,1.7,0.6,2.2
		C24.2,54.8,24.7,55,25.5,55z M39.8,48c1.7,0,2.6,1,2.6,3.1v4.3c0,0.2-0.1,0.4-0.2,0.5c-0.1,0.1-0.3,0.2-0.5,0.2s-0.4-0.1-0.5-0.2
		c-0.1-0.1-0.2-0.3-0.2-0.5v-4.3c0-0.7-0.1-1.2-0.4-1.6S39.9,49,39.4,49c-0.7,0-1.2,0.2-1.5,0.7c-0.4,0.4-0.6,1-0.6,1.8v3.9
		c0,0.2-0.1,0.4-0.2,0.5c-0.1,0.1-0.3,0.2-0.5,0.2s-0.3-0.1-0.5-0.2c-0.1-0.1-0.2-0.3-0.2-0.5v-4.3c0-0.7-0.1-1.2-0.4-1.6
		c-0.3-0.3-0.7-0.5-1.2-0.5c-0.6,0-1.2,0.2-1.5,0.7c-0.4,0.4-0.6,1-0.6,1.8v3.9c0,0.2-0.1,0.4-0.2,0.5c-0.1,0.1-0.3,0.2-0.5,0.2
		S31.1,56,31,55.9c-0.1-0.1-0.2-0.3-0.2-0.5v-6.8c0-0.2,0.1-0.3,0.2-0.5c0.1-0.1,0.3-0.2,0.5-0.2s0.3,0.1,0.4,0.2
		c0.1,0.1,0.2,0.3,0.2,0.4v0.8c0.2-0.5,0.6-0.8,1-1.1s0.9-0.4,1.4-0.4c1.2,0,2,0.5,2.4,1.5c0.2-0.5,0.6-0.8,1-1.1
		C38.7,48.2,39.2,48,39.8,48z M48,56.1c-0.7,0-1.4-0.2-2-0.5s-1-0.8-1.3-1.4c-0.3-0.6-0.4-1.3-0.4-2.1s0.1-1.5,0.4-2.1
		c0.3-0.6,0.7-1.1,1.3-1.4c0.6-0.3,1.2-0.5,2-0.5s1.4,0.2,2,0.5s1,0.8,1.3,1.4c0.3,0.6,0.5,1.3,0.5,2.1s-0.2,1.5-0.5,2.1
		s-0.7,1.1-1.3,1.4S48.8,56.1,48,56.1z M48,55c0.8,0,1.4-0.3,1.8-0.8c0.4-0.5,0.6-1.3,0.6-2.2s-0.2-1.7-0.6-2.2
		c-0.4-0.5-1-0.8-1.8-0.8s-1.3,0.3-1.8,0.8c-0.4,0.5-0.6,1.2-0.6,2.2s0.2,1.7,0.6,2.2C46.7,54.8,47.2,55,48,55z"/>
	<path class="st0" d="M44.1,16.3H46c0.6,0,1,0.5,1,1.1v8.8c0,0.6-0.5,1.1-1,1.1h-3.1c-0.6,0.8-1.3,1.5-2,2.1v5.5
		c0,0.6-0.5,1.1-1,1.1h-4.1c-0.6,0-1-0.5-1-1.1v-3.3h-8.2v3.3c0,0.6-0.5,1.1-1,1.1h-4.1c-0.6,0-1-0.5-1-1.1v-5.5
		c-2.5-2-4.1-5.1-4.1-8.7h-2.6c-2.1,0-3.8-2-3.6-4.3c0.2-1.9,1.9-3.3,3.7-3.3c0.2,0,0.4,0.2,0.4,0.4v1.4c0,0.2-0.2,0.4-0.4,0.4h-0.1
		c-0.7,0-1.4,0.5-1.6,1.3c-0.2,1,0.6,2,1.5,2h2.8c1-5,5.1-8.8,10.1-8.8h8.2c0.5,0,0.9,0.1,1.4,0.1h0.1c1.1-1.4,2.8-2.3,4.7-2.3h2.1
		l-1.2,5.2C42.7,13.7,43.5,14.9,44.1,16.3z M36.7,19.6c0,0.6,0.5,1.1,1,1.1s1-0.5,1-1.1s-0.5-1.1-1-1.1S36.7,19,36.7,19.6z
		 M34.7,7.6h-8.2c-1.1,0-2.1,0.2-3,0.4c0-0.1,0-0.1,0-0.2s0-0.2,0-0.2C23.5,4,26.3,1,29.7,1s6.2,2.9,6.2,6.6l0,0l0,0
		C35.4,7.6,35,7.6,34.7,7.6z M32.9,25.1c0.6-0.6,0.9-1.3,0.9-2.1c0-0.7-0.2-1.2-0.5-1.6s-0.7-0.7-1.2-0.9c-0.5-0.2-1.1-0.4-1.9-0.6
		c-0.7-0.2-1.2-0.3-1.6-0.5c-0.4-0.1-0.7-0.4-1-0.6c-0.3-0.3-0.4-0.6-0.4-1.1c0-0.6,0.2-1.1,0.7-1.5s1.1-0.6,1.9-0.6
		c0.6,0,1.1,0.1,1.5,0.3c0.4,0.2,0.9,0.5,1.4,0.8c0.2,0.1,0.3,0.2,0.4,0.2c0.1,0,0.2-0.1,0.3-0.2s0.1-0.3,0.1-0.4
		c0-0.2-0.1-0.4-0.3-0.5c-0.4-0.4-0.8-0.7-1.3-0.9s-1.1-0.3-1.6-0.4v-1.2c0-0.2-0.1-0.3-0.2-0.4c-0.1-0.1-0.2-0.2-0.4-0.2
		c-0.2,0-0.3,0.1-0.4,0.2c-0.1,0.1-0.2,0.2-0.2,0.4v1.2c-0.7,0.1-1.3,0.2-1.8,0.5s-0.9,0.7-1.2,1.1c-0.3,0.5-0.4,1-0.4,1.6
		c0,0.7,0.2,1.3,0.5,1.7s0.8,0.7,1.3,0.9c0.5,0.2,1.2,0.4,2,0.6c0.6,0.1,1.1,0.3,1.5,0.4c0.4,0.1,0.7,0.3,0.9,0.6
		c0.2,0.2,0.4,0.5,0.4,0.9c0,0.7-0.2,1.2-0.7,1.5c-0.5,0.4-1.1,0.5-2,0.5c-1.1,0-2.1-0.4-3.2-1.1c-0.2-0.1-0.3-0.2-0.5-0.2
		c-0.1,0-0.2,0.1-0.3,0.2c-0.1,0.1-0.1,0.2-0.1,0.4c0,0.2,0.1,0.4,0.3,0.5c0.4,0.4,0.9,0.7,1.6,0.9c0.6,0.2,1.2,0.3,1.9,0.4v1.2
		c0,0.2,0,0.3,0.1,0.4s0.2,0.2,0.4,0.2s0.3-0.1,0.4-0.2s0.2-0.3,0.2-0.4v-1.2C31.5,26,32.3,25.6,32.9,25.1z"/>
</g>
</svg>
