<svg width="60" height="60" viewBox="0 0 60 60" fill="none" xmlns="http://www.w3.org/2000/svg">
<path d="M39.5546 23.0198C37.9926 23.0198 36.6042 21.5885 36.6042 19.9782C36.6042 18.3678 37.9926 16.9364 39.5546 16.9364C41.1167 16.9364 42.5053 18.3678 42.5053 19.9782C42.3317 21.7674 41.1167 23.0198 39.5546 23.0198ZM29.6618 39.1231C24.8021 39.1231 20.8102 35.0079 20.8102 29.998C20.8102 24.988 24.8021 20.8728 29.6618 20.8728C34.5215 20.8728 38.5133 24.988 38.5133 29.998C38.5133 35.1868 34.5215 39.1231 29.6618 39.1231ZM41.464 13H17.8596C15.0826 13 13 15.326 13 18.0099V42.3439C13 45.2067 15.2562 47.3538 17.8596 47.3538H41.464C44.0674 47.3538 46.3235 45.0278 46.3235 42.3439V18.0099C46.3235 15.326 44.0674 13 41.464 13Z" fill="#87003D"/>
<path d="M39.5542 20.8728C39.9376 20.8728 40.2485 20.5524 40.2485 20.1571C40.2485 19.7618 39.9376 19.4413 39.5542 19.4413C39.1708 19.4413 38.8601 19.7618 38.8601 20.1571C38.8601 20.5524 39.1708 20.8728 39.5542 20.8728Z" fill="#87003D"/>
<path d="M29.6624 37.3309C33.4966 37.3309 36.6048 34.1265 36.6048 30.1738C36.6048 26.2211 33.4966 23.0168 29.6624 23.0168C25.8282 23.0168 22.72 26.2211 22.72 30.1738C22.72 34.1265 25.8282 37.3309 29.6624 37.3309Z" fill="#87003D"/>
</svg>
