<?xml version="1.0" encoding="utf-8"?>
<!-- Generator: Adobe Illustrator 21.0.0, SVG Export Plug-In . SVG Version: 6.00 Build 0)  -->
<svg version="1.1" id="Capa_1" xmlns="http://www.w3.org/2000/svg" xmlns:xlink="http://www.w3.org/1999/xlink" x="0px" y="0px"
	 viewBox="0 0 60 60" style="enable-background:new 0 0 60 60;" xml:space="preserve">
<style type="text/css">
	.st0{fill:#FA1F6F;}
</style>
<path class="st0" d="M7.3,48c1.9,0,2.8,1,2.8,3.1v4.3c0,0.2-0.1,0.4-0.2,0.5c-0.1,0.1-0.3,0.2-0.5,0.2S9,56,8.9,55.9
	c-0.1-0.1-0.2-0.3-0.2-0.5v-4.3c0-0.7-0.1-1.3-0.4-1.6C8,49.2,7.6,49,7,49c-0.7,0-1.3,0.2-1.7,0.7c-0.4,0.4-0.6,1-0.6,1.8v3.9
	c0,0.2-0.1,0.4-0.2,0.5S4.2,56.1,4,56.1c-0.2,0-0.4-0.1-0.5-0.2c-0.1-0.1-0.2-0.3-0.2-0.5v-6.8c0-0.2,0.1-0.3,0.2-0.5
	c0.2,0,0.4-0.1,0.6-0.1s0.3,0.1,0.4,0.2c0.1,0.1,0.2,0.3,0.2,0.4v0.8c0.3-0.5,0.6-0.8,1.1-1.1C6.2,48.1,6.7,48,7.3,48z M15.8,56.1
	c-0.7,0-1.4-0.2-2-0.5s-1-0.8-1.3-1.4C12.2,53.6,12,52.8,12,52s0.1-1.5,0.4-2.1c0.3-0.6,0.7-1.1,1.3-1.4c0.6-0.3,1.2-0.5,2-0.5
	c0.7,0,1.4,0.2,2,0.5s1,0.8,1.3,1.4c0.3,0.6,0.5,1.3,0.5,2.1s-0.1,1.5-0.5,2.1c-0.3,0.6-0.7,1.1-1.3,1.4
	C17.1,55.9,16.5,56.1,15.8,56.1z M15.8,55c0.8,0,1.4-0.3,1.8-0.8s0.6-1.3,0.6-2.2s-0.2-1.7-0.6-2.2s-1-0.8-1.8-0.8s-1.3,0.3-1.8,0.8
	c-0.4,0.5-0.6,1.2-0.6,2.2s0.2,1.7,0.6,2.2C14.4,54.7,15,55,15.8,55z M25,55c0.4,0,0.6,0.2,0.6,0.5c0,0.2-0.1,0.3-0.2,0.4
	C25.2,56,25,56,24.7,56h-0.4c-0.9-0.1-1.5-0.3-1.9-0.8c-0.4-0.4-0.6-1.1-0.6-2v-4h-1.1c-0.2,0-0.3,0-0.4-0.1s-0.1-0.2-0.1-0.4
	s0-0.3,0.1-0.4c0.1-0.1,0.3-0.1,0.4-0.1h1.1v-1.8c0-0.2,0.1-0.4,0.2-0.5s0.3-0.2,0.5-0.2s0.3,0.1,0.5,0.2c0.1,0.1,0.2,0.3,0.2,0.5
	v1.8H25c0.2,0,0.3,0,0.4,0.1s0.2,0.2,0.2,0.4c0,0.1-0.1,0.3-0.2,0.4c-0.1,0.1-0.2,0.1-0.4,0.1h-1.8v4.1c0,0.6,0.1,1,0.4,1.3
	c0.2,0.3,0.6,0.4,1.1,0.4H25z M27.5,56c-0.2,0-0.4-0.1-0.5-0.2c-0.1-0.1-0.2-0.3-0.2-0.5v-6.8c0-0.2,0.1-0.4,0.2-0.5
	s0.3-0.2,0.5-0.2s0.3,0.1,0.5,0.2c0.1,0.1,0.2,0.3,0.2,0.5v6.8c0,0.2-0.1,0.4-0.2,0.5C27.8,55.9,27.7,56,27.5,56z M27.4,46.3
	c-0.3,0-0.5-0.1-0.6-0.2c-0.2-0.1-0.2-0.3-0.2-0.6c0-0.2,0.1-0.4,0.2-0.6c0.2-0.1,0.4-0.2,0.6-0.2c0.3,0,0.5,0.1,0.6,0.2
	c0.2,0.1,0.2,0.3,0.2,0.6c0,0.2-0.1,0.4-0.2,0.6C27.9,46.2,27.7,46.3,27.4,46.3z M33.8,56c-0.7,0-1.4-0.2-1.9-0.5
	c-0.6-0.3-1-0.8-1.3-1.4c-0.3-0.6-0.5-1.3-0.5-2.1s0.1-1.5,0.5-2.1c0.3-0.6,0.8-1.1,1.3-1.4c0.6-0.3,1.2-0.5,2-0.5
	c0.4,0,0.8,0.1,1.2,0.2c0.4,0.1,0.8,0.3,1.1,0.5c0.2,0.1,0.3,0.3,0.4,0.4c0.1,0.1,0.1,0.3,0.1,0.4c0,0.1,0,0.3-0.1,0.4
	C36.5,50,36.4,50,36.3,50s-0.2,0-0.2-0.1c-0.1,0-0.2-0.1-0.2-0.1c-0.1,0-0.1-0.1-0.1-0.1c-0.3-0.2-0.5-0.3-0.8-0.4
	c-0.2-0.1-0.5-0.2-0.9-0.2c-0.8,0-1.4,0.3-1.8,0.8c-0.4,0.5-0.6,1.3-0.6,2.2s0.2,1.7,0.6,2.2c0.4,0.5,1,0.8,1.8,0.8
	c0.4,0,0.7-0.1,0.9-0.2c0.3-0.1,0.5-0.3,0.8-0.4c0.1-0.1,0.2-0.1,0.3-0.2c0.1-0.1,0.2-0.1,0.3-0.1s0.2,0,0.3,0.1s0.1,0.2,0.1,0.4
	c0,0.1,0,0.3-0.1,0.4c-0.1,0.1-0.2,0.2-0.4,0.4c-0.3,0.2-0.7,0.4-1.1,0.5C34.6,56,34.2,56,33.8,56z M38.9,56c-0.2,0-0.4-0.1-0.5-0.2
	c-0.1-0.1-0.2-0.3-0.2-0.5v-6.8c0-0.2,0.1-0.4,0.2-0.5c0.1-0.1,0.3-0.2,0.5-0.2s0.3,0.1,0.5,0.2c0.1,0.1,0.2,0.3,0.2,0.5v6.8
	c0,0.2-0.1,0.4-0.2,0.5C39.2,55.9,39,56,38.9,56z M38.8,46.3c-0.3,0-0.5-0.1-0.6-0.2C38,45.9,38,45.7,38,45.4c0-0.2,0.1-0.4,0.2-0.6
	c0.2-0.1,0.4-0.2,0.6-0.2s0.5,0.1,0.6,0.2c0.2,0.1,0.2,0.3,0.2,0.6c0,0.2-0.1,0.4-0.2,0.6C39.3,46.2,39.1,46.3,38.8,46.3z
	 M45.1,47.9c2,0,2.9,1,2.9,3.1v4.4c0,0.2-0.1,0.3-0.2,0.5c-0.1,0.1-0.3,0.2-0.4,0.2c-0.2,0-0.3-0.1-0.5-0.2
	c-0.1-0.1-0.2-0.3-0.2-0.5v-0.8c-0.2,0.5-0.5,0.8-0.9,1.1c-0.4,0.2-0.9,0.4-1.4,0.4s-1-0.1-1.4-0.3s-0.7-0.5-1-0.8
	c-0.2-0.4-0.4-0.8-0.4-1.2c0-0.6,0.1-1,0.4-1.4c0.3-0.3,0.8-0.6,1.5-0.7c0.7-0.2,1.6-0.2,2.8-0.2h0.4V51c0-0.6-0.1-1.1-0.4-1.4
	c-0.3-0.3-0.7-0.4-1.3-0.4c-0.7,0-1.5,0.2-2.2,0.6c-0.3,0.2-0.5,0.3-0.6,0.3s-0.2,0-0.3-0.1s-0.1-0.2-0.1-0.4c0-0.1,0-0.3,0.1-0.4
	c0.1-0.1,0.2-0.2,0.4-0.4c0.4-0.2,0.8-0.4,1.3-0.5C44.1,48,44.6,47.9,45.1,47.9z M44.6,55c0.6,0,1.2-0.2,1.6-0.6
	c0.4-0.4,0.6-1,0.6-1.7v-0.5h-0.3c-0.9,0-1.7,0-2.1,0.1c-0.5,0.1-0.8,0.2-1.1,0.4c-0.2,0.2-0.3,0.5-0.3,0.8c0,0.4,0.2,0.8,0.5,1
	C43.7,54.8,44.1,55,44.6,55z M53,56c-0.5,0-1-0.1-1.4-0.2c-0.4-0.1-0.8-0.3-1.2-0.5c-0.2-0.1-0.3-0.2-0.4-0.4
	c-0.1-0.1-0.1-0.3-0.1-0.4c0-0.1,0-0.3,0.1-0.3c0.1-0.1,0.2-0.1,0.3-0.1s0.3,0.1,0.6,0.2c0.3,0.2,0.6,0.3,0.9,0.5
	c0.3,0.1,0.7,0.2,1.2,0.2c0.6,0,1-0.1,1.3-0.3s0.5-0.5,0.5-0.9c0-0.2-0.1-0.4-0.2-0.6c-0.1-0.1-0.3-0.3-0.6-0.4
	c-0.3-0.1-0.7-0.2-1.3-0.3c-0.9-0.2-1.6-0.5-2-0.8s-0.6-0.8-0.6-1.4c0-0.5,0.1-0.9,0.4-1.2s0.6-0.6,1.1-0.8s1-0.3,1.6-0.3
	c0.4,0,0.8,0.1,1.2,0.2c0.4,0.1,0.7,0.3,1,0.5c0.4,0.3,0.5,0.5,0.5,0.8c0,0.1,0,0.3-0.1,0.4C55.7,50,55.6,50,55.5,50
	s-0.3-0.1-0.6-0.3s-0.6-0.3-0.8-0.4c-0.3-0.1-0.6-0.2-1-0.2c-0.5,0-0.9,0.1-1.2,0.3s-0.4,0.5-0.4,0.9c0,0.2,0.1,0.4,0.2,0.6
	c0.1,0.1,0.3,0.3,0.6,0.4c0.3,0.1,0.6,0.2,1.1,0.3c0.7,0.2,1.3,0.3,1.7,0.5s0.7,0.4,0.9,0.7s0.3,0.6,0.3,1.1c0,0.7-0.3,1.2-0.8,1.6
	C54.7,55.7,54,56,53,56z"/>
<path class="st0" d="M45.6,22.4L45.6,22.4c-1.6-1.5-4.1-1.7-6-0.5L27.4,10.7c1.5-1.9,0.9-4.6-1.2-5.9s-5-0.8-6.5,1.1
	c-0.5,0.7-0.8,1.6-0.8,2.5c-1.3,0-2.5,0.4-3.4,1.2c-1.9,1.6-1.9,4.3-0.2,6c1.6,1.5,4.2,1.8,6.1,0.5l12.3,11.2
	c-1.5,1.9-0.9,4.6,1.2,5.9c2.1,1.3,5,0.8,6.5-1.1c0.5-0.7,0.8-1.6,0.8-2.5c2.6,0.1,4.7-1.8,4.8-4.2C47,24.3,46.5,23.2,45.6,22.4z"/>
</svg>
