<svg width="60" height="60" viewBox="0 0 60 60" fill="none" xmlns="http://www.w3.org/2000/svg">
<path fill-rule="evenodd" clip-rule="evenodd" d="M50.134 16.9364C48.5719 17.6521 47.0098 18.0099 45.2742 18.3678C47.0098 17.2942 48.3982 15.684 48.9189 13.5369C47.3569 14.6104 45.4478 15.326 43.5386 15.6839C41.9765 14.0736 39.8938 13 37.464 13C32.7778 13 29.1332 16.9365 29.1332 21.5885C29.1332 22.3042 29.1332 22.841 29.3067 23.5567C22.3643 23.1988 16.1161 19.7993 11.9507 14.4315C11.2564 15.684 10.7356 17.1153 10.7356 18.7256C10.7356 21.7674 12.2978 24.4513 14.5541 25.8827C13.1656 25.8827 11.9505 25.5249 10.7356 24.8092V24.9881C10.7356 29.1033 13.6862 32.6819 17.5045 33.3976C16.8103 33.5765 16.1162 33.7555 15.2483 33.7555C14.7277 33.7555 14.2069 33.7554 13.6863 33.5765C14.7276 36.9761 17.8517 39.4811 21.4965 39.66C18.546 41.986 15.0747 43.4174 11.0829 43.4174C10.3886 43.4174 9.69424 43.4174 9 43.2385C12.6448 45.7435 17.1574 47.1749 21.8435 47.1749C37.2904 47.1749 45.795 33.9344 45.795 22.4832V21.4095C47.5306 20.1571 48.9191 18.7256 50.134 16.9364Z" fill="#00636B"/>
</svg>
