<svg width="142" height="142" viewBox="0 0 142 142" fill="none" xmlns="http://www.w3.org/2000/svg">
<ellipse cx="56.6964" cy="41.0149" rx="8.23884" ry="8.23883" fill="white"/>
<path d="M5.84745 56.952L0.121423 46.6413C-0.0413816 46.3541 -0.033404 46.0574 0.145356 45.7512C0.324116 45.4449 0.584309 45.2912 0.925935 45.2901L2.22052 45.2857C2.68801 45.2842 3.11996 45.4086 3.51639 45.659C3.91282 45.9094 4.21063 46.2411 4.40982 46.6539L7.9413 54.0591C7.94136 54.0771 7.95039 54.0861 7.96837 54.086C7.98635 54.086 7.99531 54.0769 7.99524 54.059L11.4761 46.6304C11.6725 46.2162 11.968 45.8826 12.3627 45.6295C12.7574 45.3765 13.1885 45.2492 13.656 45.2476L14.8427 45.2437C15.1843 45.2425 15.4456 45.3945 15.6264 45.6995C15.8073 46.0046 15.8173 46.3013 15.6564 46.5895L10.0009 56.9381C9.9115 57.0823 9.86704 57.2263 9.86753 57.3701L9.88815 63.4115C9.88956 63.8251 9.73796 64.1852 9.43333 64.4919C9.14669 64.7985 8.7966 64.9525 8.38305 64.9539L7.51999 64.9567C7.10645 64.9581 6.74632 64.8065 6.43961 64.5018C6.15088 64.1971 6.00581 63.838 6.0044 63.4245L5.98378 57.3831C5.98329 57.2392 5.93785 57.0955 5.84745 56.952Z" fill="white"/>
<path d="M20.089 65.1845C18.5067 65.1898 17.3545 64.7621 16.6323 63.9015C15.9101 63.0228 15.5454 61.5407 15.5383 59.4549L15.5144 52.4426C15.513 52.0291 15.6646 51.669 15.9692 51.3623C16.2738 51.0556 16.6329 50.9016 17.0464 50.9002L17.478 50.8987C17.8915 50.8974 18.2516 51.049 18.5584 51.3536C18.8651 51.6583 19.0191 52.0174 19.0205 52.4309L19.0432 59.0657C19.0475 60.3243 19.2213 61.1958 19.5645 61.6801C19.9078 62.1644 20.484 62.4052 21.2931 62.4025C22.0303 62.4001 22.7125 62.0832 23.3397 61.4517C23.9848 60.8203 24.3062 60.1449 24.3037 59.4257L24.2798 52.4134C24.2784 51.9998 24.43 51.6397 24.7346 51.333C25.0392 51.0264 25.3983 50.8723 25.8118 50.871L26.3513 50.8692C26.7648 50.8678 27.1159 51.0194 27.4047 51.3241C27.7114 51.6288 27.8654 51.9879 27.8669 52.4014L27.9042 63.3515C27.9056 63.765 27.754 64.1251 27.4494 64.4318C27.1628 64.7384 26.8127 64.8924 26.3991 64.8938L26.0485 64.895C25.617 64.8964 25.2479 64.7538 24.9412 64.4671C24.6525 64.1624 24.4984 63.7943 24.479 63.3629L24.4514 63.1742C24.4513 63.1562 24.4423 63.1472 24.4243 63.1473C24.4063 63.1473 24.3884 63.1564 24.3704 63.1744C23.1523 64.5091 21.7252 65.1791 20.089 65.1845Z" fill="white"/>
<path d="M33.1369 64.8713C32.7234 64.8727 32.3632 64.7211 32.0565 64.4164C31.7678 64.1117 31.6227 63.7526 31.6213 63.3391L31.5839 52.389C31.5825 51.9755 31.7251 51.6154 32.0118 51.3088C32.3164 51.0021 32.6755 50.8481 33.089 50.8467L33.4666 50.8454C33.8802 50.8441 34.2313 50.9867 34.5199 51.2735C34.8266 51.5601 34.9896 51.9102 35.009 52.3237L35.0096 52.5125C35.0097 52.5305 35.0187 52.5394 35.0367 52.5394C35.0727 52.5392 35.0906 52.5302 35.0906 52.5122C36.147 51.2141 37.3405 50.5628 38.671 50.5584C39.4801 50.5557 40.1279 50.7064 40.6144 51.0104C41.1189 51.3144 41.5613 51.8523 41.9415 52.6242C41.9416 52.6422 41.9596 52.6511 41.9956 52.651C42.0135 52.651 42.0315 52.6419 42.0494 52.6239C43.1774 51.2356 44.4517 50.5391 45.8721 50.5344C47.3645 50.5294 48.4357 50.9304 49.0858 51.7373C49.7538 52.5442 50.0912 53.9366 50.0979 55.9144L50.1231 63.2774C50.1245 63.6909 49.9729 64.051 49.6682 64.3577C49.3816 64.6644 49.0315 64.8184 48.618 64.8197L48.1595 64.8213C47.7459 64.8226 47.3858 64.671 47.0791 64.3664C46.7724 64.0617 46.6183 63.7026 46.6169 63.2891L46.5936 56.4655C46.5891 55.153 46.4603 54.2903 46.2072 53.8776C45.9541 53.4649 45.4679 53.2598 44.7487 53.2622C44.2812 53.2637 43.8144 53.481 43.3484 53.9141C42.8824 54.3472 42.6501 54.7795 42.6516 55.2111L42.6792 63.3022C42.6806 63.7157 42.529 64.0759 42.2244 64.3825C41.9198 64.6892 41.5607 64.8433 41.1471 64.8446L40.6886 64.8462C40.2751 64.8475 39.915 64.6959 39.6083 64.3913C39.3195 64.0866 39.1745 63.7274 39.173 63.3139L39.1498 56.4904C39.1453 55.1958 39.0076 54.3422 38.7365 53.9295C38.4833 53.4988 37.997 53.2847 37.2778 53.2871C36.8103 53.2886 36.3436 53.506 35.8776 53.939C35.4116 54.3721 35.1793 54.8044 35.1808 55.236L35.2084 63.3271C35.2098 63.7406 35.0582 64.1008 34.7536 64.4074C34.4489 64.7141 34.0899 64.8682 33.6763 64.8695L33.1369 64.8713Z" fill="white"/>
<path d="M56.0709 64.7949C55.6573 64.7963 55.2972 64.6446 54.9905 64.34C54.6838 64.0353 54.5297 63.6762 54.5283 63.2627L54.4909 52.3127C54.4895 51.8991 54.6411 51.539 54.9458 51.2323C55.2504 50.9256 55.6095 50.7716 56.023 50.7702L56.7242 50.7679C57.1378 50.7665 57.4979 50.9182 57.8046 51.2228C58.1113 51.5274 58.2654 51.8865 58.2668 52.3001L58.3042 63.2501C58.3056 63.6637 58.154 64.0238 57.8494 64.3305C57.5447 64.6371 57.1857 64.7912 56.7721 64.7925L56.0709 64.7949ZM56.0129 47.8035C55.5993 47.8049 55.2392 47.6532 54.9325 47.3486C54.6258 47.0439 54.4717 46.6848 54.4703 46.2713L54.4698 46.1095C54.4684 45.6959 54.62 45.3358 54.9246 45.0291C55.2292 44.7224 55.5883 44.5684 56.0018 44.567L56.7031 44.5647C57.1166 44.5633 57.4768 44.7149 57.7835 45.0196C58.0902 45.3242 58.2442 45.6833 58.2456 46.0969L58.2462 46.2587C58.2476 46.6723 58.096 47.0324 57.7914 47.3391C57.4868 47.6457 57.1277 47.7998 56.7141 47.8011L56.0129 47.8035Z" fill="white"/>
<path d="M126.69 141.359C132.445 139.734 137.689 135.507 139.815 130.78C141.377 127.306 141.415 120.07 139.889 116.678C139.247 115.252 137.748 113.01 136.556 111.695C135.085 110.072 134.628 109.009 135.131 108.382C140.046 102.254 140.628 101.021 140.929 96.0951C141.311 89.8515 140.255 86.7987 136.252 82.5766C130.294 76.2927 120.383 74.7378 112.291 78.8171C108.008 80.9761 104.036 85.535 103.013 89.465C101.466 95.4062 96.2873 101.422 90.9556 103.472C86.3916 105.226 85.9124 104.487 86.1705 96.0898L86.4001 88.6158L93.5416 86.1245C101.097 83.4888 103.182 81.8395 104.025 77.832C104.73 74.4768 102.301 70.1776 98.7751 68.5429C96.4401 67.4601 93.7224 67.2477 82.191 67.2468C67.3444 67.2453 64.1908 67.83 61.7747 71.0303C59.6827 73.8012 59.3598 77.1551 60.8956 80.1605C62.4697 83.2408 63.2503 83.7029 71.5528 86.4684L77.6219 88.4899L77.8474 96.0268C78.1011 104.505 77.63 105.23 73.0206 103.457C68.9228 101.882 64.9212 98.0292 62.9614 93.7726C58.3839 83.83 56.9011 81.7604 52.6498 79.3805C43.1108 74.0405 31.7669 76.4556 25.5675 85.1465C23.58 87.9327 23.3565 88.8928 23.3548 94.6495C23.3529 101.298 23.5048 101.676 28.8796 108.382C29.3824 109.009 28.9247 110.072 27.4526 111.695C24.2745 115.2 22.9489 118.717 22.9475 123.649C22.9445 134.085 30.9757 141.626 42.0948 141.626C51.2616 141.626 57.6885 136.854 61.7284 127.049C65.5843 117.69 72.2061 113.152 81.9612 113.182C92.8475 113.216 99.141 118.032 103.144 129.393C106.287 138.314 117.426 143.974 126.69 141.359ZM118.16 133.857C114.547 132.589 111.575 129.42 110.321 125.496C108.768 120.639 105.988 116.397 102.02 112.83C100.229 111.22 98.7635 109.538 98.7636 109.092C98.7638 108.646 100.23 106.964 102.022 105.354C105.992 101.787 108.775 97.5448 110.33 92.6882C111.723 88.3379 114.727 85.4857 119.2 84.265C122.068 83.4822 122.927 83.5589 126.161 84.8868C130.751 86.7713 133.078 90.0566 133.077 94.6495C133.075 100.408 129.559 104.048 122.705 105.385C119.1 106.089 117.917 107.017 117.916 109.141C117.916 111.18 120.654 113.164 123.479 113.171C128.269 113.182 133.062 118.288 133.069 123.386C133.079 131.06 125.455 136.415 118.16 133.857ZM37.2967 133.273C29.233 129.295 28.6576 119.204 36.2302 114.571C37.4852 113.804 39.4196 113.173 40.5289 113.171C43.3539 113.165 46.0937 111.18 46.0943 109.141C46.0949 107.017 44.9121 106.089 41.3072 105.385C34.4541 104.048 30.9404 100.408 30.942 94.6495C30.9433 90.0674 33.2738 86.7708 37.8352 84.8984C41.0537 83.5772 41.9129 83.5031 44.928 84.2866C49.4016 85.4492 52.0797 88.141 54.0472 93.4527C56.0587 98.883 57.9155 101.66 62.0055 105.354C63.7883 106.964 65.2469 108.646 65.2468 109.092C65.2467 109.538 63.7803 111.22 61.9881 112.83C58.0182 116.397 55.2357 120.639 53.6803 125.496C51.2809 132.988 43.86 136.51 37.2967 133.273ZM126.562 62.3103L128.851 60.1862L129.35 46.8662C129.863 33.133 131.413 23.8957 134.679 15.0908C136.909 9.08075 136.792 5.687 134.258 2.89152C129.909 -1.90659 124.306 -0.729579 117.581 6.39472C109.117 15.3622 103.078 18.7662 90.5112 21.6541C78.9829 24.3033 77.1557 26.4706 78.7401 35.6153C80.6839 46.835 88.3453 56.4862 99.1764 61.3594C104.418 63.7178 105.362 63.8898 114.517 64.1534L124.273 64.4343L126.562 62.3103ZM101.774 45.6838C98.7721 42.7249 98.8091 39.1864 101.876 36.0021C107.798 29.852 118.305 36.5217 114.464 43.9931C112.961 46.9177 109.079 48.8574 105.963 48.2408C104.866 48.0236 102.981 46.8731 101.774 45.6838ZM60.2139 47.6787C63.2772 46.4072 64.4673 44.5258 64.4683 40.9527C64.4693 37.4497 63.3902 35.6838 60.3596 34.229C52.5387 30.475 44.7853 39.7293 50.7011 45.7571C53.3177 48.4233 56.7499 49.1166 60.2139 47.6787Z" fill="white"/>
</svg>
