<svg width="60" height="60" viewBox="0 0 60 60" fill="none" xmlns="http://www.w3.org/2000/svg">
<path d="M6.27788 56.08C6.08588 56.08 5.92588 56.0267 5.79788 55.92C5.68054 55.8027 5.62188 55.6427 5.62188 55.44V45.28C5.62188 45.0773 5.68054 44.9227 5.79788 44.816C5.92588 44.6987 6.08588 44.64 6.27788 44.64C6.45921 44.64 6.60854 44.6987 6.72588 44.816C6.85388 44.9227 6.91788 45.0773 6.91788 45.28V55.44C6.91788 55.6427 6.85388 55.8027 6.72588 55.92C6.60854 56.0267 6.45921 56.08 6.27788 56.08ZM15.2606 48.048C15.4633 48.048 15.618 48.1067 15.7246 48.224C15.842 48.3413 15.9006 48.496 15.9006 48.688V55.456C15.9006 55.6373 15.842 55.7867 15.7246 55.904C15.618 56.0213 15.4633 56.08 15.2606 56.08C15.0686 56.08 14.914 56.0267 14.7966 55.92C14.69 55.8027 14.6366 55.6533 14.6366 55.472V54.672C14.3913 55.1413 14.0446 55.4987 13.5966 55.744C13.1593 55.9893 12.6633 56.112 12.1086 56.112C11.1806 56.112 10.482 55.856 10.0126 55.344C9.54329 54.8213 9.30863 54.0533 9.30863 53.04V48.688C9.30863 48.496 9.36729 48.3413 9.48463 48.224C9.60196 48.1067 9.76196 48.048 9.96463 48.048C10.1673 48.048 10.322 48.1067 10.4286 48.224C10.546 48.3413 10.6046 48.496 10.6046 48.688V53.008C10.6046 53.7013 10.7433 54.2133 11.0206 54.544C11.298 54.864 11.7353 55.024 12.3326 55.024C13.0153 55.024 13.5646 54.8053 13.9806 54.368C14.3966 53.92 14.6046 53.3333 14.6046 52.608V48.688C14.6046 48.496 14.6633 48.3413 14.7806 48.224C14.898 48.1067 15.058 48.048 15.2606 48.048ZM24.6294 48.048C24.832 48.048 24.992 48.1067 25.1094 48.224C25.2267 48.3413 25.2854 48.496 25.2854 48.688V55.472C25.2854 56.6347 24.9867 57.5093 24.3894 58.096C23.792 58.6933 22.9067 58.992 21.7334 58.992C20.592 58.992 19.6427 58.768 18.8854 58.32C18.5014 58.1067 18.3094 57.8613 18.3094 57.584C18.3094 57.4347 18.3467 57.312 18.4214 57.216C18.5067 57.12 18.6134 57.072 18.7414 57.072C18.848 57.072 19.04 57.1467 19.3174 57.296C19.6907 57.488 20.0587 57.6427 20.4214 57.76C20.784 57.8773 21.216 57.936 21.7174 57.936C22.4747 57.936 23.0454 57.7333 23.4294 57.328C23.8134 56.9333 24.0054 56.352 24.0054 55.584V54.208C23.7814 54.7093 23.4347 55.0933 22.9654 55.36C22.5067 55.6267 21.9627 55.76 21.3334 55.76C20.6507 55.76 20.0427 55.6 19.5094 55.28C18.9867 54.96 18.576 54.5067 18.2774 53.92C17.9894 53.3333 17.8454 52.656 17.8454 51.888C17.8454 51.12 17.9894 50.4427 18.2774 49.856C18.576 49.2693 18.9867 48.816 19.5094 48.496C20.0427 48.176 20.6507 48.016 21.3334 48.016C21.952 48.016 22.4907 48.1493 22.9494 48.416C23.408 48.6827 23.7547 49.0613 23.9894 49.552V48.688C23.9894 48.496 24.0427 48.3413 24.1494 48.224C24.2667 48.1067 24.4267 48.048 24.6294 48.048ZM21.5894 54.688C22.336 54.688 22.9227 54.4427 23.3494 53.952C23.776 53.4507 23.9894 52.7627 23.9894 51.888C23.9894 51.024 23.776 50.3467 23.3494 49.856C22.9334 49.3547 22.3467 49.104 21.5894 49.104C20.832 49.104 20.2347 49.3547 19.7974 49.856C19.3707 50.3467 19.1574 51.024 19.1574 51.888C19.1574 52.7627 19.3707 53.4507 19.7974 53.952C20.2347 54.4427 20.832 54.688 21.5894 54.688ZM30.8684 48.016C32.8204 48.016 33.7964 49.04 33.7964 51.088V55.44C33.7964 55.632 33.7377 55.7867 33.6204 55.904C33.5137 56.0213 33.3644 56.08 33.1724 56.08C32.9804 56.08 32.8257 56.0213 32.7084 55.904C32.591 55.7867 32.5324 55.632 32.5324 55.44V54.672C32.3297 55.1307 32.0204 55.488 31.6044 55.744C31.1884 55.9893 30.7084 56.112 30.1644 56.112C29.663 56.112 29.199 56.0107 28.7724 55.808C28.3564 55.6053 28.0257 55.3227 27.7804 54.96C27.535 54.5973 27.4124 54.1973 27.4124 53.76C27.4124 53.1733 27.5617 52.72 27.8604 52.4C28.159 52.0693 28.6497 51.8347 29.3324 51.696C30.015 51.5467 30.9644 51.472 32.1804 51.472H32.5324V50.944C32.5324 50.304 32.399 49.8347 32.1324 49.536C31.8764 49.2373 31.455 49.088 30.8684 49.088C30.143 49.088 29.407 49.2853 28.6604 49.68C28.3724 49.8613 28.1697 49.952 28.0524 49.952C27.9244 49.952 27.8177 49.904 27.7324 49.808C27.647 49.712 27.6044 49.5893 27.6044 49.44C27.6044 49.2907 27.647 49.1627 27.7324 49.056C27.8284 48.9387 27.9777 48.8213 28.1804 48.704C28.5537 48.4907 28.975 48.3253 29.4444 48.208C29.9244 48.08 30.399 48.016 30.8684 48.016ZM30.3404 55.088C30.9804 55.088 31.503 54.8747 31.9084 54.448C32.3244 54.0107 32.5324 53.4507 32.5324 52.768V52.304H32.2444C31.3057 52.304 30.591 52.3467 30.1004 52.432C29.6097 52.5067 29.2577 52.64 29.0444 52.832C28.8417 53.0133 28.7404 53.2853 28.7404 53.648C28.7404 54.064 28.8897 54.4107 29.1884 54.688C29.4977 54.9547 29.8817 55.088 30.3404 55.088ZM40.0248 48.048C40.4728 48.016 40.6968 48.1973 40.6968 48.592C40.6968 48.7627 40.6488 48.9013 40.5528 49.008C40.4568 49.104 40.2914 49.1627 40.0568 49.184L39.5768 49.232C38.8621 49.296 38.3288 49.552 37.9768 50C37.6354 50.4373 37.4648 50.9547 37.4648 51.552V55.44C37.4648 55.6533 37.4061 55.8133 37.2888 55.92C37.1714 56.0267 37.0168 56.08 36.8248 56.08C36.6328 56.08 36.4728 56.0267 36.3448 55.92C36.2274 55.8027 36.1688 55.6427 36.1688 55.44V48.688C36.1688 48.4853 36.2328 48.3307 36.3608 48.224C36.4888 48.1067 36.6434 48.048 36.8248 48.048C36.9954 48.048 37.1394 48.1067 37.2568 48.224C37.3741 48.3307 37.4328 48.48 37.4328 48.672V49.568C37.6568 49.0987 37.9714 48.7413 38.3768 48.496C38.7928 48.2507 39.2674 48.1067 39.8008 48.064L40.0248 48.048ZM47.6851 54.192C47.8025 54.192 47.9038 54.24 47.9891 54.336C48.0745 54.432 48.1171 54.5547 48.1171 54.704C48.1171 54.9707 47.9305 55.216 47.5571 55.44C47.1731 55.664 46.7678 55.8347 46.3411 55.952C45.9145 56.0587 45.4985 56.112 45.0931 56.112C43.8878 56.112 42.9331 55.7547 42.2291 55.04C41.5358 54.3253 41.1891 53.3387 41.1891 52.08C41.1891 51.28 41.3438 50.576 41.6531 49.968C41.9625 49.3493 42.3945 48.8693 42.9491 48.528C43.5145 48.1867 44.1545 48.016 44.8691 48.016C45.8825 48.016 46.6878 48.3467 47.2851 49.008C47.8825 49.6693 48.1811 50.5653 48.1811 51.696C48.1811 51.9093 48.1385 52.064 48.0531 52.16C47.9678 52.256 47.8291 52.304 47.6371 52.304H42.4851C42.5811 54.1387 43.4505 55.056 45.0931 55.056C45.5091 55.056 45.8665 55.0027 46.1651 54.896C46.4638 54.7787 46.7838 54.624 47.1251 54.432C47.4025 54.272 47.5891 54.192 47.6851 54.192ZM44.8851 49.024C44.2025 49.024 43.6531 49.2373 43.2371 49.664C42.8318 50.0907 42.5918 50.6933 42.5171 51.472H47.0451C47.0238 50.6827 46.8265 50.08 46.4531 49.664C46.0798 49.2373 45.5571 49.024 44.8851 49.024ZM52.7146 56.112C52.224 56.112 51.7546 56.0533 51.3066 55.936C50.8693 55.8187 50.48 55.6533 50.1386 55.44C49.9466 55.312 49.808 55.1947 49.7226 55.088C49.648 54.9707 49.6106 54.832 49.6106 54.672C49.6106 54.5333 49.648 54.4213 49.7226 54.336C49.808 54.24 49.9146 54.192 50.0426 54.192C50.1706 54.192 50.3573 54.272 50.6026 54.432C50.9226 54.624 51.2373 54.7787 51.5466 54.896C51.8666 55.0027 52.2613 55.056 52.7306 55.056C53.3066 55.056 53.7546 54.9547 54.0746 54.752C54.3946 54.5493 54.5546 54.256 54.5546 53.872C54.5546 53.6373 54.496 53.4507 54.3786 53.312C54.2613 53.1627 54.0586 53.0347 53.7706 52.928C53.4826 52.8107 53.0613 52.6933 52.5066 52.576C51.568 52.3733 50.896 52.1013 50.4906 51.76C50.0853 51.4187 49.8826 50.9547 49.8826 50.368C49.8826 49.9093 50.0106 49.504 50.2666 49.152C50.5226 48.8 50.8746 48.5227 51.3226 48.32C51.7813 48.1173 52.2986 48.016 52.8746 48.016C53.2906 48.016 53.6906 48.0747 54.0746 48.192C54.4693 48.2987 54.816 48.4533 55.1146 48.656C55.4773 48.912 55.6586 49.1787 55.6586 49.456C55.6586 49.5947 55.616 49.712 55.5306 49.808C55.4453 49.904 55.344 49.952 55.2266 49.952C55.0986 49.952 54.9066 49.8613 54.6506 49.68C54.352 49.488 54.0693 49.3387 53.8026 49.232C53.536 49.1253 53.2053 49.072 52.8106 49.072C52.3093 49.072 51.904 49.184 51.5946 49.408C51.296 49.632 51.1466 49.9307 51.1466 50.304C51.1466 50.5387 51.2 50.7307 51.3066 50.88C51.424 51.0187 51.6106 51.1467 51.8666 51.264C52.1333 51.3707 52.512 51.4773 53.0026 51.584C53.728 51.744 54.288 51.92 54.6826 52.112C55.088 52.304 55.376 52.5387 55.5466 52.816C55.7173 53.0933 55.8026 53.4453 55.8026 53.872C55.8026 54.544 55.52 55.088 54.9546 55.504C54.3893 55.9093 53.6426 56.112 52.7146 56.112Z" fill="white"/>
<path fill-rule="evenodd" clip-rule="evenodd" d="M28.8043 39.2535C26.5773 36.5387 24.6738 34.2583 23.0492 32.3121C15.5647 23.346 14 21.4716 14 16.875C14 9.21202 21.3873 3 30.5 3C39.6127 3 47 9.21202 47 16.875C47 21.4716 45.4353 23.346 37.9508 32.3121C36.3262 34.2583 34.4227 36.5387 32.1957 39.2535C31.3763 40.2489 29.6236 40.2488 28.8043 39.2535ZM30.4642 24.7027L30.4629 24.7015C30.4668 23.733 29.7775 22.9028 28.8254 22.7291L28.8367 15.2855C29.9272 15.0771 30.6453 14.0247 30.4405 12.9349C30.2358 11.8451 29.1858 11.1306 28.0953 11.339C27.6856 11.4173 27.3099 11.621 27.0204 11.9219C26.6456 11.5246 26.1228 11.3001 25.5756 11.3015C24.4664 11.278 23.5451 12.1583 23.5179 13.2676C23.4934 14.2683 24.2092 15.1319 25.1966 15.2929L25.184 22.7352C24.0935 22.9436 23.3754 23.996 23.5802 25.0858C23.7849 26.1756 24.8349 26.8902 25.9254 26.6817C26.3352 26.6034 26.7108 26.3997 27.0003 26.0988C27.7654 26.8997 29.0371 26.9265 29.8406 26.1586C30.2386 25.7784 30.4639 25.2522 30.4642 24.7027ZM39.4252 10.5059L39.425 10.5047C39.3107 9.83071 37.8036 9.82407 37.7107 10.5413V15.2295C37.6679 15.3424 37.1714 15.3358 37.1393 15.2295C37.0893 14.3895 36.8607 10.611 36.8536 10.5213C36.7393 9.83071 35.2607 9.83071 35.1429 10.5213C35.1409 10.5678 35.0727 11.6868 35.0023 12.8406C34.942 13.8286 34.8802 14.842 34.8571 15.2295C34.825 15.3358 34.3321 15.3424 34.2857 15.2295V10.5413C34.1929 9.82075 32.6893 9.83071 32.575 10.5047L32.5745 10.5072C32.5411 10.6899 32 13.6447 32 14.7813C32 16.5145 32.9893 17.7563 34.4607 18.2543L34 26.16C33.975 26.6182 34.3679 27 34.8571 27H37.1429C37.6357 27 38.025 26.6148 38 26.16L37.5393 18.2543C39.0071 17.7563 40 16.5178 40 14.7813C40 13.6451 39.4562 10.6749 39.4252 10.5059Z" fill="white"/>
</svg>
