<?xml version="1.0" encoding="utf-8"?>
<!-- Generator: Adobe Illustrator 21.0.0, SVG Export Plug-In . SVG Version: 6.00 Build 0)  -->
<svg version="1.1" id="Capa_1" xmlns="http://www.w3.org/2000/svg" xmlns:xlink="http://www.w3.org/1999/xlink" x="0px" y="0px"
	 viewBox="0 0 60 60" style="enable-background:new 0 0 60 60;" xml:space="preserve">
<style type="text/css">
	.st0{fill:#242265;}
</style>
<path class="st0" d="M6.3,56.1c-0.2,0-0.4-0.1-0.5-0.2c-0.1-0.1-0.2-0.3-0.2-0.5V45.3c0-0.2,0.1-0.4,0.2-0.5
	c0.1-0.1,0.3-0.2,0.5-0.2c0.2,0,0.3,0.1,0.4,0.2c0.1,0.1,0.2,0.3,0.2,0.5v10.2c0,0.2-0.1,0.4-0.2,0.5C6.6,56,6.5,56.1,6.3,56.1z
	 M15.3,48c0.2,0,0.4,0.1,0.5,0.2c0.1,0.1,0.2,0.3,0.2,0.5v6.8c0,0.2-0.1,0.3-0.2,0.4c-0.1,0.1-0.3,0.2-0.5,0.2
	c-0.2,0-0.3-0.1-0.5-0.2c-0.1-0.1-0.2-0.3-0.2-0.4v-0.8c-0.2,0.5-0.6,0.8-1,1.1c-0.4,0.2-0.9,0.4-1.5,0.4c-0.9,0-1.6-0.3-2.1-0.8
	c-0.5-0.5-0.7-1.3-0.7-2.3v-4.4c0-0.2,0.1-0.3,0.2-0.5C9.6,48.1,9.8,48,10,48s0.4,0.1,0.5,0.2c0.1,0.1,0.2,0.3,0.2,0.5V53
	c0,0.7,0.1,1.2,0.4,1.5c0.3,0.3,0.7,0.5,1.3,0.5c0.7,0,1.2-0.2,1.6-0.7c0.4-0.4,0.6-1,0.6-1.8v-3.9c0-0.2,0.1-0.3,0.2-0.5
	C14.9,48.1,15.1,48,15.3,48z M24.6,48c0.2,0,0.4,0.1,0.5,0.2c0.1,0.1,0.2,0.3,0.2,0.5v6.8c0,1.2-0.3,2-0.9,2.6
	c-0.6,0.6-1.5,0.9-2.7,0.9c-1.1,0-2.1-0.2-2.8-0.7c-0.4-0.2-0.6-0.5-0.6-0.7c0-0.1,0-0.3,0.1-0.4c0.1-0.1,0.2-0.1,0.3-0.1
	c0.1,0,0.3,0.1,0.6,0.2c0.4,0.2,0.7,0.3,1.1,0.5c0.4,0.1,0.8,0.2,1.3,0.2c0.8,0,1.3-0.2,1.7-0.6c0.4-0.4,0.6-1,0.6-1.7v-1.4
	c-0.2,0.5-0.6,0.9-1,1.2c-0.5,0.3-1,0.4-1.6,0.4c-0.7,0-1.3-0.2-1.8-0.5c-0.5-0.3-0.9-0.8-1.2-1.4c-0.3-0.6-0.4-1.3-0.4-2
	c0-0.8,0.1-1.4,0.4-2c0.3-0.6,0.7-1,1.2-1.4c0.5-0.3,1.1-0.5,1.8-0.5c0.6,0,1.2,0.1,1.6,0.4c0.5,0.3,0.8,0.6,1,1.1v-0.9
	c0-0.2,0.1-0.3,0.2-0.5C24.3,48.1,24.4,48,24.6,48z M21.6,54.7c0.7,0,1.3-0.2,1.8-0.7c0.4-0.5,0.6-1.2,0.6-2.1c0-0.9-0.2-1.5-0.6-2
	c-0.4-0.5-1-0.8-1.8-0.8c-0.8,0-1.4,0.3-1.8,0.8c-0.4,0.5-0.6,1.2-0.6,2c0,0.9,0.2,1.6,0.6,2.1C20.2,54.4,20.8,54.7,21.6,54.7z
	 M30.9,48c2,0,2.9,1,2.9,3.1v4.4c0,0.2-0.1,0.3-0.2,0.5c-0.1,0.1-0.3,0.2-0.4,0.2c-0.2,0-0.3-0.1-0.5-0.2c-0.1-0.1-0.2-0.3-0.2-0.5
	v-0.8c-0.2,0.5-0.5,0.8-0.9,1.1c-0.4,0.2-0.9,0.4-1.4,0.4c-0.5,0-1-0.1-1.4-0.3c-0.4-0.2-0.7-0.5-1-0.8c-0.2-0.4-0.4-0.8-0.4-1.2
	c0-0.6,0.1-1,0.4-1.4c0.3-0.3,0.8-0.6,1.5-0.7c0.7-0.1,1.6-0.2,2.8-0.2h0.4v-0.5c0-0.6-0.1-1.1-0.4-1.4c-0.3-0.3-0.7-0.4-1.3-0.4
	c-0.7,0-1.5,0.2-2.2,0.6c-0.3,0.2-0.5,0.3-0.6,0.3c-0.1,0-0.2,0-0.3-0.1c-0.1-0.1-0.1-0.2-0.1-0.4s0-0.3,0.1-0.4
	c0.1-0.1,0.2-0.2,0.4-0.4c0.4-0.2,0.8-0.4,1.3-0.5C29.9,48.1,30.4,48,30.9,48z M30.3,55.1c0.6,0,1.2-0.2,1.6-0.6
	c0.4-0.4,0.6-1,0.6-1.7v-0.5h-0.3c-0.9,0-1.7,0-2.1,0.1c-0.5,0.1-0.8,0.2-1.1,0.4c-0.2,0.2-0.3,0.5-0.3,0.8c0,0.4,0.1,0.8,0.4,1
	C29.5,55,29.9,55.1,30.3,55.1z M40,48c0.4,0,0.7,0.1,0.7,0.5c0,0.2,0,0.3-0.1,0.4c-0.1,0.1-0.3,0.2-0.5,0.2l-0.5,0
	c-0.7,0.1-1.2,0.3-1.6,0.8c-0.3,0.4-0.5,1-0.5,1.6v3.9c0,0.2-0.1,0.4-0.2,0.5c-0.1,0.1-0.3,0.2-0.5,0.2c-0.2,0-0.4-0.1-0.5-0.2
	c-0.1-0.1-0.2-0.3-0.2-0.5v-6.8c0-0.2,0.1-0.4,0.2-0.5c0.1-0.1,0.3-0.2,0.5-0.2c0.2,0,0.3,0.1,0.4,0.2c0.1,0.1,0.2,0.3,0.2,0.4v0.9
	c0.2-0.5,0.5-0.8,0.9-1.1c0.4-0.2,0.9-0.4,1.4-0.4L40,48z M47.7,54.2c0.1,0,0.2,0,0.3,0.1c0.1,0.1,0.1,0.2,0.1,0.4
	c0,0.3-0.2,0.5-0.6,0.7c-0.4,0.2-0.8,0.4-1.2,0.5c-0.4,0.1-0.8,0.2-1.2,0.2c-1.2,0-2.2-0.4-2.9-1.1c-0.7-0.7-1-1.7-1-3
	c0-0.8,0.2-1.5,0.5-2.1c0.3-0.6,0.7-1.1,1.3-1.4c0.6-0.3,1.2-0.5,1.9-0.5c1,0,1.8,0.3,2.4,1c0.6,0.7,0.9,1.6,0.9,2.7
	c0,0.2,0,0.4-0.1,0.5c-0.1,0.1-0.2,0.1-0.4,0.1h-5.2c0.1,1.8,1,2.8,2.6,2.8c0.4,0,0.8-0.1,1.1-0.2c0.3-0.1,0.6-0.3,1-0.5
	C47.4,54.3,47.6,54.2,47.7,54.2z M44.9,49c-0.7,0-1.2,0.2-1.6,0.6c-0.4,0.4-0.6,1-0.7,1.8H47c0-0.8-0.2-1.4-0.6-1.8
	C46.1,49.2,45.6,49,44.9,49z M52.7,56.1c-0.5,0-1-0.1-1.4-0.2c-0.4-0.1-0.8-0.3-1.2-0.5c-0.2-0.1-0.3-0.2-0.4-0.4
	c-0.1-0.1-0.1-0.3-0.1-0.4c0-0.1,0-0.3,0.1-0.3c0.1-0.1,0.2-0.1,0.3-0.1c0.1,0,0.3,0.1,0.6,0.2c0.3,0.2,0.6,0.3,0.9,0.5
	c0.3,0.1,0.7,0.2,1.2,0.2c0.6,0,1-0.1,1.3-0.3c0.3-0.2,0.5-0.5,0.5-0.9c0-0.2-0.1-0.4-0.2-0.6c-0.1-0.1-0.3-0.3-0.6-0.4
	c-0.3-0.1-0.7-0.2-1.3-0.4c-0.9-0.2-1.6-0.5-2-0.8c-0.4-0.3-0.6-0.8-0.6-1.4c0-0.5,0.1-0.9,0.4-1.2c0.3-0.4,0.6-0.6,1.1-0.8
	c0.5-0.2,1-0.3,1.6-0.3c0.4,0,0.8,0.1,1.2,0.2c0.4,0.1,0.7,0.3,1,0.5c0.4,0.3,0.5,0.5,0.5,0.8c0,0.1,0,0.3-0.1,0.4
	c-0.1,0.1-0.2,0.1-0.3,0.1c-0.1,0-0.3-0.1-0.6-0.3c-0.3-0.2-0.6-0.3-0.8-0.4c-0.3-0.1-0.6-0.2-1-0.2c-0.5,0-0.9,0.1-1.2,0.3
	c-0.3,0.2-0.4,0.5-0.4,0.9c0,0.2,0.1,0.4,0.2,0.6c0.1,0.1,0.3,0.3,0.6,0.4c0.3,0.1,0.6,0.2,1.1,0.3c0.7,0.2,1.3,0.3,1.7,0.5
	c0.4,0.2,0.7,0.4,0.9,0.7c0.2,0.3,0.3,0.6,0.3,1.1c0,0.7-0.3,1.2-0.8,1.6C54.4,55.9,53.6,56.1,52.7,56.1z"/>
<path class="st0" d="M28.8,39.3c-2.2-2.7-4.1-5-5.8-6.9c-7.5-9-9-10.8-9-15.4C14,9.2,21.4,3,30.5,3S47,9.2,47,16.9
	c0,4.6-1.6,6.5-9,15.4c-1.6,1.9-3.5,4.2-5.8,6.9C31.4,40.2,29.6,40.2,28.8,39.3z M30.5,24.7L30.5,24.7c0-1-0.7-1.8-1.6-2l0-7.4
	c1.1-0.2,1.8-1.3,1.6-2.4c-0.2-1.1-1.3-1.8-2.3-1.6c-0.4,0.1-0.8,0.3-1.1,0.6c-0.4-0.4-0.9-0.6-1.4-0.6c-1.1,0-2,0.9-2.1,2
	c0,1,0.7,1.9,1.7,2l0,7.4c-1.1,0.2-1.8,1.3-1.6,2.4c0.2,1.1,1.3,1.8,2.3,1.6c0.4-0.1,0.8-0.3,1.1-0.6c0.8,0.8,2,0.8,2.8,0.1
	C30.2,25.8,30.5,25.3,30.5,24.7z M39.4,10.5L39.4,10.5c-0.1-0.7-1.6-0.7-1.7,0v4.7c0,0.1-0.5,0.1-0.6,0c-0.1-0.8-0.3-4.6-0.3-4.7
	c-0.1-0.7-1.6-0.7-1.7,0c0,0-0.1,1.2-0.1,2.3c-0.1,1-0.1,2-0.1,2.4c0,0.1-0.5,0.1-0.6,0v-4.7c-0.1-0.7-1.6-0.7-1.7,0l0,0
	c0,0.2-0.6,3.1-0.6,4.3c0,1.7,1,3,2.5,3.5L34,26.2c0,0.5,0.4,0.8,0.9,0.8h2.3c0.5,0,0.9-0.4,0.9-0.8l-0.5-7.9
	c1.5-0.5,2.5-1.7,2.5-3.5C40,13.6,39.5,10.7,39.4,10.5z"/>
</svg>
